<svg width="24" height="24" viewBox="0 0 24 24" fill="none" xmlns="http://www.w3.org/2000/svg">
<path d="M11.5283 3C15.686 3.00022 19.0574 6.37064 19.0576 10.5283C19.0576 11.6926 18.5451 12.9407 17.9092 14.0703C17.258 15.2269 16.4023 16.3883 15.5674 17.4102C14.7294 18.4357 13.894 19.3429 13.2695 19.9922C12.9569 20.3172 12.6955 20.5793 12.5117 20.7607C12.4199 20.8514 12.3471 20.9222 12.2969 20.9707C12.2718 20.9949 12.2518 21.0135 12.2383 21.0264L12.2168 21.0479L11.5283 21.6992L10.8408 21.0479L10.8389 21.0459C10.8379 21.0449 10.8357 21.0436 10.834 21.042C10.8303 21.0385 10.8249 21.0327 10.8184 21.0264C10.8049 21.0135 10.7855 20.9946 10.7607 20.9707C10.7106 20.9222 10.6376 20.8513 10.5459 20.7607C10.3621 20.5793 10.1006 20.3172 9.78809 19.9922C9.1637 19.343 8.32817 18.4356 7.49023 17.4102C6.65535 16.3884 5.7996 15.2268 5.14844 14.0703C4.51249 12.9407 4.00005 11.6926 4 10.5283C4.00023 6.37064 7.37064 3.00023 11.5283 3ZM11.5283 7.26465C10.1761 7.26465 9.08008 8.36077 9.08008 9.71289C9.08031 11.0649 10.1763 12.1611 11.5283 12.1611C12.8803 12.1611 13.9763 11.0649 13.9766 9.71289C13.9766 8.36077 12.8805 7.26466 11.5283 7.26465Z" fill="#CDAF95"/>
</svg>
