<svg width="16" height="16" viewBox="0 0 16 16" fill="none" xmlns="http://www.w3.org/2000/svg">
<path d="M8.00024 0.567078C8.82215 0.56715 9.61039 0.893226 10.1917 1.4743C10.773 2.05567 11.0999 2.84452 11.0999 3.66669V3.93622H12.0452C12.4577 3.9359 12.8545 4.0954 13.1526 4.38055C13.4507 4.66577 13.6269 5.05529 13.6448 5.46747L14.05 14.0866C14.0609 14.3033 14.0269 14.5199 13.9514 14.7233C13.8759 14.9268 13.7603 15.1131 13.6106 15.2702C13.461 15.4273 13.2807 15.552 13.0813 15.6374C12.882 15.7227 12.6673 15.7655 12.4504 15.7653V15.7663H3.55005C3.33314 15.7666 3.11863 15.7227 2.91919 15.6374C2.71977 15.5521 2.53952 15.4272 2.38989 15.2702C2.24022 15.1131 2.12363 14.9268 2.0481 14.7233C1.97262 14.5199 1.93959 14.3033 1.95044 14.0866L2.35474 5.46747C2.37262 5.05525 2.54976 4.66578 2.8479 4.38055C3.14602 4.09545 3.54281 3.93583 3.95532 3.93622H4.89966V3.66669C4.89966 2.84452 5.2265 2.05567 5.80786 1.4743C6.38921 0.893027 7.17814 0.567078 8.00024 0.567078ZM3.95532 5.1413C3.84932 5.1413 3.74712 5.18358 3.67212 5.25848C3.5971 5.3335 3.55493 5.4356 3.55493 5.54169V5.54657L3.14966 14.1462V14.1472C3.14702 14.2012 3.15524 14.2556 3.17407 14.3063C3.19294 14.357 3.2227 14.4029 3.26001 14.4421C3.29743 14.4814 3.34196 14.5135 3.39185 14.5349C3.44172 14.5562 3.4958 14.5671 3.55005 14.5671H12.4504C12.5044 14.5671 12.558 14.556 12.6077 14.5349C12.6575 14.5135 12.7031 14.4814 12.7405 14.4421C12.7776 14.403 12.8066 14.3569 12.8254 14.3063C12.8443 14.2556 12.8525 14.2012 12.8499 14.1472V14.1462L12.4456 5.52606L12.4446 5.52216C12.4446 5.41607 12.4024 5.31397 12.3274 5.23895C12.2524 5.16408 12.1511 5.12182 12.0452 5.12177L3.95532 5.1413ZM10.469 5.99188C10.5559 5.99092 10.6417 6.00907 10.7209 6.04462C10.8002 6.08019 10.8709 6.1324 10.928 6.19794C10.9851 6.26357 11.0278 6.34097 11.052 6.4245C11.0762 6.50788 11.0816 6.5955 11.0686 6.68134V6.68622L10.97 6.66669L11.0676 6.68622C10.9258 7.39357 10.5419 8.02949 9.98169 8.48407C9.42182 8.93833 8.72117 9.18206 8.00024 9.17548V9.17645C7.28345 9.17731 6.58825 8.93011 6.03345 8.47626C5.47858 8.02219 5.09828 7.3892 4.95728 6.68622L4.9563 6.68134C4.94332 6.59551 4.94872 6.50787 4.9729 6.4245C4.99715 6.34097 5.03985 6.26357 5.09692 6.19794C5.15397 6.13239 5.22468 6.0802 5.30396 6.04462C5.38291 6.0092 5.46841 5.99107 5.55493 5.99188C5.69733 5.99015 5.83594 6.03864 5.94556 6.12958C6.05459 6.22007 6.12765 6.34662 6.15259 6.48602C6.24203 6.91295 6.47615 7.29595 6.8147 7.57098C7.15333 7.84602 7.57668 7.99677 8.01294 7.99677C8.44903 7.99666 8.87169 7.84593 9.21021 7.57098C9.54877 7.29595 9.78287 6.91296 9.87231 6.48602C9.89725 6.34662 9.97031 6.22007 10.0793 6.12958C10.1887 6.03884 10.3269 5.99039 10.469 5.99188ZM8.00024 1.7663C7.4964 1.7663 7.0128 1.9667 6.65649 2.32294C6.30018 2.67926 6.09985 3.16278 6.09985 3.66669V3.93622H9.89966V3.66669C9.89966 3.16278 9.69934 2.67926 9.34302 2.32294C8.9868 1.9669 8.50389 1.76637 8.00024 1.7663Z" fill="#333333" stroke="#333333" stroke-width="0.2"/>
</svg>
