<svg width="24" height="25" viewBox="0 0 24 25" fill="none" xmlns="http://www.w3.org/2000/svg">
<g clip-path="url(#clip0_2490_991)">
<path d="M11.9999 1.40039C13.2199 1.40039 14.3901 1.88443 15.2528 2.74707C16.1155 3.60974 16.5995 4.78 16.5995 6V6.45508H18.0673C18.6732 6.45451 19.2563 6.68762 19.6942 7.10645C20.1321 7.52536 20.3916 8.09769 20.4178 8.70312H20.4169L21.0253 21.6328C21.0412 21.9511 20.9916 22.2696 20.8807 22.5684C20.7698 22.867 20.5995 23.1404 20.3798 23.3711C20.16 23.6018 19.8953 23.7848 19.6024 23.9102C19.3094 24.0355 18.9934 24.1 18.6747 24.0996H5.32507C5.00633 24.1 4.69039 24.0355 4.39734 23.9102C4.10449 23.7848 3.83969 23.6018 3.62 23.3711C3.40026 23.1404 3.22996 22.867 3.11902 22.5684C3.00811 22.2696 2.95957 21.9511 2.97546 21.6328L3.58289 8.70312L3.60339 8.47754C3.67664 7.95691 3.92248 7.4729 4.30554 7.10645C4.74342 6.68758 5.32654 6.45452 5.9325 6.45508H7.40027V6C7.40027 4.78002 7.88431 3.60973 8.74695 2.74707C9.6096 1.88442 10.7799 1.40041 11.9999 1.40039ZM5.9325 8.16211C5.76011 8.16211 5.59443 8.23065 5.47253 8.35254C5.35064 8.47444 5.2821 8.64011 5.2821 8.8125V8.81738L4.67468 21.7168V21.7178C4.67032 21.8057 4.68407 21.894 4.71472 21.9766C4.74541 22.0591 4.79267 22.1345 4.85339 22.1982C4.91418 22.2621 4.98721 22.313 5.06824 22.3477C5.14929 22.3823 5.23691 22.4005 5.32507 22.4004H18.6747C18.7628 22.4005 18.8505 22.3823 18.9315 22.3477C19.0125 22.313 19.0856 22.262 19.1464 22.1982C19.2071 22.1345 19.2543 22.0591 19.285 21.9766C19.3157 21.894 19.3294 21.8057 19.3251 21.7178V21.7168L18.7177 8.78711V8.78223C18.7176 8.61005 18.6489 8.44505 18.5272 8.32324C18.4053 8.20134 18.2397 8.13281 18.0673 8.13281L5.9325 8.16211ZM15.705 9.53711C15.8278 9.53588 15.9493 9.56201 16.0614 9.6123C16.1738 9.66276 16.2745 9.73711 16.3553 9.83008C16.436 9.92296 16.4959 10.0322 16.5302 10.1504C16.5645 10.2686 16.572 10.3929 16.5536 10.5146V10.5195H16.5526C16.3421 11.5692 15.7726 12.513 14.9413 13.1875C14.1103 13.8618 13.07 14.2239 11.9999 14.2139V14.2148C10.936 14.2161 9.90424 13.8485 9.08093 13.1748C8.25775 12.501 7.69346 11.5625 7.48425 10.5195L7.48328 10.5146C7.46486 10.393 7.47337 10.2686 7.50769 10.1504C7.54202 10.0322 7.60176 9.92299 7.6825 9.83008C7.76323 9.73724 7.86325 9.66275 7.97546 9.6123C8.08707 9.56221 8.20863 9.53611 8.33093 9.53711C8.53343 9.53417 8.73076 9.60406 8.8866 9.7334C9.04129 9.86189 9.1445 10.0413 9.17957 10.2393C9.31609 10.8909 9.67357 11.4757 10.1903 11.8955C10.7071 12.3152 11.3527 12.5449 12.0184 12.5449C12.6843 12.5449 13.3297 12.3153 13.8466 11.8955C14.3634 11.4757 14.7208 10.891 14.8573 10.2393C14.8924 10.0412 14.9964 9.86192 15.1512 9.7334C15.3067 9.60438 15.503 9.53452 15.705 9.53711ZM11.9999 3.09961C11.2308 3.09963 10.4929 3.40538 9.9491 3.94922C9.40527 4.49307 9.09949 5.23089 9.09949 6V6.45508H14.9003V6C14.9003 5.23087 14.5945 4.49307 14.0507 3.94922C13.5068 3.40539 12.769 3.09961 11.9999 3.09961Z" fill="#CDAF95" stroke="#CDAF95" stroke-width="0.2"/>
</g>
<defs>
<clipPath id="clip0_2490_991">
<rect width="24" height="24" fill="white" transform="translate(0 0.5)"/>
</clipPath>
</defs>
</svg>
