<svg width="24" height="24" viewBox="0 0 24 24" fill="none" xmlns="http://www.w3.org/2000/svg">
<mask id="path-1-inside-1_2566_2782" fill="white">
<path fill-rule="evenodd" clip-rule="evenodd" d="M18 12C18.7481 11.9998 19.4811 11.7898 20.1159 11.3939C20.7506 10.998 21.2616 10.432 21.5908 9.76029C21.92 9.08853 22.0543 8.33791 21.9783 7.59369C21.9023 6.84947 21.6191 6.14147 21.161 5.55011C20.7028 4.95875 20.0879 4.50773 19.3863 4.24828C18.6846 3.98882 17.9243 3.93133 17.1916 4.08234C16.4589 4.23335 15.7832 4.5868 15.2413 5.10254C14.6994 5.61829 14.313 6.27566 14.126 7H3C2.73479 7 2.48043 7.10536 2.2929 7.29289C2.10536 7.48043 2 7.73478 2 8C2 8.26522 2.10536 8.51957 2.2929 8.70711C2.48043 8.89464 2.73479 9 3 9H14.126C14.57 10.725 16.136 12 18 12ZM16 8C16 8.53043 16.2107 9.03914 16.5858 9.41421C16.9609 9.78929 17.4696 10 18 10C18.5304 10 19.0391 9.78929 19.4142 9.41421C19.7893 9.03914 20 8.53043 20 8C20 7.46957 19.7893 6.96086 19.4142 6.58579C19.0391 6.21071 18.5304 6 18 6C17.4696 6 16.9609 6.21071 16.5858 6.58579C16.2107 6.96086 16 7.46957 16 8ZM2 16C1.99904 15.0257 2.35369 14.0846 2.99738 13.3533C3.64107 12.6219 4.52954 12.1507 5.49605 12.0279C6.46255 11.9052 7.44062 12.1394 8.24669 12.6866C9.05276 13.2338 9.6314 14.0564 9.874 15H21C21.2652 15 21.5196 15.1054 21.7071 15.2929C21.8946 15.4804 22 15.7348 22 16C22 16.2652 21.8946 16.5196 21.7071 16.7071C21.5196 16.8946 21.2652 17 21 17H9.874C9.62827 17.9405 9.04864 18.7594 8.24333 19.3038C7.43802 19.8482 6.4621 20.0809 5.49778 19.9584C4.53346 19.836 3.64669 19.3667 3.00303 18.6383C2.35937 17.9099 2.00284 16.9721 2 16ZM8 16C8 15.4696 7.78929 14.9609 7.41422 14.5858C7.03914 14.2107 6.53044 14 6 14C5.46957 14 4.96086 14.2107 4.58579 14.5858C4.21072 14.9609 4 15.4696 4 16C4 16.5304 4.21072 17.0391 4.58579 17.4142C4.96086 17.7893 5.46957 18 6 18C6.53044 18 7.03914 17.7893 7.41422 17.4142C7.78929 17.0391 8 16.5304 8 16Z"/>
</mask>
<path fill-rule="evenodd" clip-rule="evenodd" d="M18 12C18.7481 11.9998 19.4811 11.7898 20.1159 11.3939C20.7506 10.998 21.2616 10.432 21.5908 9.76029C21.92 9.08853 22.0543 8.33791 21.9783 7.59369C21.9023 6.84947 21.6191 6.14147 21.161 5.55011C20.7028 4.95875 20.0879 4.50773 19.3863 4.24828C18.6846 3.98882 17.9243 3.93133 17.1916 4.08234C16.4589 4.23335 15.7832 4.5868 15.2413 5.10254C14.6994 5.61829 14.313 6.27566 14.126 7H3C2.73479 7 2.48043 7.10536 2.2929 7.29289C2.10536 7.48043 2 7.73478 2 8C2 8.26522 2.10536 8.51957 2.2929 8.70711C2.48043 8.89464 2.73479 9 3 9H14.126C14.57 10.725 16.136 12 18 12ZM16 8C16 8.53043 16.2107 9.03914 16.5858 9.41421C16.9609 9.78929 17.4696 10 18 10C18.5304 10 19.0391 9.78929 19.4142 9.41421C19.7893 9.03914 20 8.53043 20 8C20 7.46957 19.7893 6.96086 19.4142 6.58579C19.0391 6.21071 18.5304 6 18 6C17.4696 6 16.9609 6.21071 16.5858 6.58579C16.2107 6.96086 16 7.46957 16 8ZM2 16C1.99904 15.0257 2.35369 14.0846 2.99738 13.3533C3.64107 12.6219 4.52954 12.1507 5.49605 12.0279C6.46255 11.9052 7.44062 12.1394 8.24669 12.6866C9.05276 13.2338 9.6314 14.0564 9.874 15H21C21.2652 15 21.5196 15.1054 21.7071 15.2929C21.8946 15.4804 22 15.7348 22 16C22 16.2652 21.8946 16.5196 21.7071 16.7071C21.5196 16.8946 21.2652 17 21 17H9.874C9.62827 17.9405 9.04864 18.7594 8.24333 19.3038C7.43802 19.8482 6.4621 20.0809 5.49778 19.9584C4.53346 19.836 3.64669 19.3667 3.00303 18.6383C2.35937 17.9099 2.00284 16.9721 2 16ZM8 16C8 15.4696 7.78929 14.9609 7.41422 14.5858C7.03914 14.2107 6.53044 14 6 14C5.46957 14 4.96086 14.2107 4.58579 14.5858C4.21072 14.9609 4 15.4696 4 16C4 16.5304 4.21072 17.0391 4.58579 17.4142C4.96086 17.7893 5.46957 18 6 18C6.53044 18 7.03914 17.7893 7.41422 17.4142C7.78929 17.0391 8 16.5304 8 16Z" fill="#CDAF95"/>
<path d="M18 12V33.3333L18.0054 33.3333L18 12ZM14.126 7V28.3333H30.6507L34.7819 12.3333L14.126 7ZM2 8H-19.3333H2ZM14.126 9L34.7859 3.68231L30.6637 -12.3333H14.126V9ZM16 8H37.3333H16ZM18 6V-15.3333V6ZM2 16L-19.3333 16.0211L-19.3333 16.0417L-19.3332 16.0622L2 16ZM9.874 15L-10.7873 20.3123L-6.66815 36.3333H9.874V15ZM9.874 17V-4.33333H-6.60154L-10.7664 11.6071L9.874 17ZM8 16H29.3333H8ZM4 16H-17.3333H4ZM18 12L18.0054 33.3333C22.7433 33.3321 27.386 32.0023 31.406 29.4949L20.1159 11.3939L8.82577 -6.70702C11.5763 -8.42263 14.7529 -9.33251 17.9946 -9.33333L18 12ZM20.1159 11.3939L31.406 29.4949C35.426 26.9875 38.6624 23.4029 40.7474 19.1485L21.5908 9.76029L2.4343 0.372092C3.86089 -2.53885 6.0752 -4.99141 8.82577 -6.70702L20.1159 11.3939ZM21.5908 9.76029L40.7474 19.1485C42.8324 14.894 43.6826 10.1401 43.2013 5.4267L21.9783 7.59369L0.755307 9.76068C0.426018 6.53571 1.00771 3.28303 2.4343 0.372092L21.5908 9.76029ZM21.9783 7.59369L43.2013 5.4267C42.72 0.713279 40.9266 -3.77071 38.0248 -7.51598L21.161 5.55011L4.29713 18.6162C2.31167 16.0536 1.0846 12.9857 0.755307 9.76068L21.9783 7.59369ZM21.161 5.55011L38.0248 -7.51598C35.1229 -11.2613 31.229 -14.1177 26.7851 -15.7609L19.3863 4.24828L11.9874 24.2575C8.9469 23.1332 6.2826 21.1788 4.29713 18.6162L21.161 5.55011ZM19.3863 4.24828L26.7851 -15.7609C22.3413 -17.4041 17.5257 -17.7682 12.8853 -16.8119L17.1916 4.08234L21.4978 24.9765C18.3228 25.6309 15.0279 25.3818 11.9874 24.2575L19.3863 4.24828ZM17.1916 4.08234L12.8853 -16.8119C8.24493 -15.8555 3.96573 -13.617 0.533748 -10.3506L15.2413 5.10254L29.9489 20.5557C27.6007 22.7906 24.6728 24.3222 21.4978 24.9765L17.1916 4.08234ZM15.2413 5.10254L0.533748 -10.3506C-2.89824 -7.08416 -5.34543 -2.92079 -6.52991 1.66667L14.126 7L34.7819 12.3333C33.9715 15.4721 32.2971 18.3207 29.9489 20.5557L15.2413 5.10254ZM14.126 7V-14.3333H3V7V28.3333H14.126V7ZM3 7V-14.3333C-2.92318 -14.3333 -8.60375 -11.9804 -12.7921 -7.79205L2.2929 7.29289L17.3778 22.3778C13.5646 26.1911 8.39275 28.3333 3 28.3333V7ZM2.2929 7.29289L-12.7921 -7.79205C-16.9804 -3.60374 -19.3333 2.07684 -19.3333 8H2H23.3333C23.3333 13.3927 21.1911 18.5646 17.3778 22.3778L2.2929 7.29289ZM2 8H-19.3333C-19.3333 13.9232 -16.9804 19.6037 -12.7921 23.7921L2.2929 8.70711L17.3778 -6.37784C21.1911 -2.5646 23.3333 2.60726 23.3333 8H2ZM2.2929 8.70711L-12.7921 23.7921C-8.60375 27.9804 -2.92318 30.3333 3 30.3333V9V-12.3333C8.39275 -12.3333 13.5646 -10.1911 17.3778 -6.37784L2.2929 8.70711ZM3 9V30.3333H14.126V9V-12.3333H3V9ZM14.126 9L-6.53394 14.3177C-3.72317 25.2379 6.16501 33.3333 18 33.3333V12V-9.33333C26.107 -9.33333 32.8632 -3.78791 34.7859 3.68231L14.126 9ZM16 8H-5.33333C-5.33333 14.1884 -2.87499 20.1233 1.50084 24.4992L16.5858 9.41421L31.6707 -5.67073C35.2964 -2.04504 37.3333 2.87247 37.3333 8H16ZM16.5858 9.41421L1.50084 24.4992C5.87668 28.875 11.8116 31.3333 18 31.3333V10V-11.3333C23.1275 -11.3333 28.045 -9.29642 31.6707 -5.67073L16.5858 9.41421ZM18 10V31.3333C24.1884 31.3333 30.1233 28.875 34.4992 24.4992L19.4142 9.41421L4.32927 -5.67073C7.95496 -9.29642 12.8725 -11.3333 18 -11.3333V10ZM19.4142 9.41421L34.4992 24.4992C38.875 20.1233 41.3333 14.1884 41.3333 8H20H-1.33333C-1.33333 2.87247 0.703577 -2.04504 4.32927 -5.67073L19.4142 9.41421ZM20 8H41.3333C41.3333 1.81161 38.875 -4.12331 34.4992 -8.49916L19.4142 6.58579L4.32927 21.6707C0.703571 18.045 -1.33333 13.1275 -1.33333 8H20ZM19.4142 6.58579L34.4992 -8.49916C30.1233 -12.875 24.1884 -15.3333 18 -15.3333V6V27.3333C12.8725 27.3333 7.95497 25.2964 4.32927 21.6707L19.4142 6.58579ZM18 6V-15.3333C11.8116 -15.3333 5.87669 -12.875 1.50084 -8.49916L16.5858 6.58579L31.6707 21.6707C28.045 25.2964 23.1275 27.3333 18 27.3333V6ZM16.5858 6.58579L1.50084 -8.49916C-2.875 -4.12331 -5.33333 1.81161 -5.33333 8H16H37.3333C37.3333 13.1275 35.2964 18.045 31.6707 21.6707L16.5858 6.58579ZM2 16L23.3333 15.9789C23.3375 20.2007 21.8007 24.2789 19.0114 27.4481L2.99738 13.3533L-13.0166 -0.741517C-17.0933 3.89029 -19.3394 9.85074 -19.3333 16.0211L2 16ZM2.99738 13.3533L19.0114 27.4481C16.222 30.6172 12.372 32.6594 8.1838 33.1913L5.49605 12.0279L2.8083 -9.13542C-3.31288 -8.35803 -8.93991 -5.37333 -13.0166 -0.741517L2.99738 13.3533ZM5.49605 12.0279L8.1838 33.1913C3.99562 33.7232 -0.242705 32.7082 -3.73566 30.3369L8.24669 12.6866L20.229 -4.96372C15.124 -8.42944 8.92948 -9.91282 2.8083 -9.13542L5.49605 12.0279ZM8.24669 12.6866L-3.73566 30.3369C-7.22863 27.9657 -9.73606 24.4011 -10.7873 20.3123L9.874 15L30.5353 9.68775C28.9989 3.71177 25.3341 -1.498 20.229 -4.96372L8.24669 12.6866ZM9.874 15V36.3333H21V15V-6.33333H9.874V15ZM21 15V36.3333C15.6073 36.3333 10.4354 34.1911 6.62216 30.3778L21.7071 15.2929L36.7921 0.207949C32.6037 -3.98037 26.9232 -6.33333 21 -6.33333V15ZM21.7071 15.2929L6.62216 30.3778C2.8089 26.5646 0.666668 21.3927 0.666668 16H22H43.3333C43.3333 10.0769 40.9804 4.39629 36.7921 0.207949L21.7071 15.2929ZM22 16H0.666668C0.666668 10.6073 2.80888 5.43544 6.62216 1.62216L21.7071 16.7071L36.7921 31.7921C40.9804 27.6037 43.3333 21.9231 43.3333 16H22ZM21.7071 16.7071L6.62216 1.62216C10.4354 -2.19112 15.6073 -4.33333 21 -4.33333V17V38.3333C26.9231 38.3333 32.6037 35.9804 36.7921 31.7921L21.7071 16.7071ZM21 17V-4.33333H9.874V17V38.3333H21V17ZM9.874 17L-10.7664 11.6071C-9.70226 7.53416 -7.19207 3.98776 -3.70453 1.6301L8.24333 19.3038L20.1912 36.9775C25.2893 33.531 28.9588 28.3468 30.5144 22.3929L9.874 17ZM8.24333 19.3038L-3.70453 1.6301C-0.217001 -0.727559 4.00941 -1.73528 8.18553 -1.20491L5.49778 19.9584L2.81003 41.1218C8.91478 41.8971 15.093 40.424 20.1912 36.9775L8.24333 19.3038ZM5.49778 19.9584L8.18553 -1.20491C12.3617 -0.674539 16.202 1.35766 18.9895 4.51224L3.00303 18.6383L-12.9834 32.7643C-8.90862 37.3758 -3.29473 40.3465 2.81003 41.1218L5.49778 19.9584ZM3.00303 18.6383L18.9895 4.51224C21.7769 7.66682 23.321 11.7281 23.3332 15.9378L2 16L-19.3332 16.0622C-19.3153 22.216 -17.0582 28.1529 -12.9834 32.7643L3.00303 18.6383ZM8 16H29.3333C29.3333 9.81161 26.875 3.87669 22.4992 -0.499157L7.41422 14.5858L-7.67073 29.6707C-11.2964 26.045 -13.3333 21.1275 -13.3333 16H8ZM7.41422 14.5858L22.4992 -0.499157C18.1233 -4.875 12.1884 -7.33333 6 -7.33333V14V35.3333C0.872473 35.3333 -4.04503 33.2964 -7.67073 29.6707L7.41422 14.5858ZM6 14V-7.33333C-0.188393 -7.33333 -6.12331 -4.875 -10.4992 -0.499157L4.58579 14.5858L19.6707 29.6707C16.045 33.2964 11.1275 35.3333 6 35.3333V14ZM4.58579 14.5858L-10.4992 -0.499157C-14.875 3.87669 -17.3333 9.81161 -17.3333 16H4H25.3333C25.3333 21.1275 23.2964 26.045 19.6707 29.6707L4.58579 14.5858ZM4 16H-17.3333C-17.3333 22.1884 -14.875 28.1233 -10.4992 32.4992L4.58579 17.4142L19.6707 2.32927C23.2964 5.95497 25.3333 10.8725 25.3333 16H4ZM4.58579 17.4142L-10.4992 32.4992C-6.12331 36.875 -0.188393 39.3333 6 39.3333V18V-3.33333C11.1275 -3.33333 16.045 -1.29643 19.6707 2.32927L4.58579 17.4142ZM6 18V39.3333C12.1884 39.3333 18.1233 36.875 22.4992 32.4992L7.41422 17.4142L-7.67073 2.32927C-4.04503 -1.29643 0.872473 -3.33333 6 -3.33333V18ZM7.41422 17.4142L22.4992 32.4992C26.875 28.1233 29.3333 22.1884 29.3333 16H8H-13.3333C-13.3333 10.8725 -11.2964 5.95497 -7.67073 2.32927L7.41422 17.4142Z" fill="#CDAF95" mask="url(#path-1-inside-1_2566_2782)"/>
</svg>
