<svg width="24" height="25" viewBox="0 0 24 25" fill="none" xmlns="http://www.w3.org/2000/svg">
<g clip-path="url(#clip0_2450_19343)">
<path d="M12 1.37231C14.542 1.37234 16.6529 3.26484 16.9941 5.71509L17.0654 6.22974L17.5771 6.13794C19.9709 5.70878 22.4495 7.08268 23.25 9.54614C24.0505 12.0097 22.853 14.5776 20.6641 15.6379L20.1953 15.8645L20.4404 16.3235C21.6045 18.5063 21.0095 21.2776 18.9531 22.7717C16.9109 24.2555 14.0898 23.9891 12.3604 22.1936L12 21.8196L11.6396 22.1936C9.90993 23.9896 7.08813 24.2547 5.04688 22.7717C2.99045 21.2775 2.39545 18.5063 3.55957 16.3235L3.80371 15.8645L3.33594 15.6379C1.14755 14.5779 -0.0505903 12.0101 0.75 9.54614C1.55062 7.08245 4.02885 5.70894 6.42285 6.13794L6.93457 6.22974L7.00586 5.71509C7.34709 3.26482 9.45802 1.37231 12 1.37231ZM12 2.24731C9.70186 2.24731 7.83301 4.11607 7.83301 6.41431V6.8645C7.83278 7.16084 7.54276 7.37162 7.26074 7.28052L6.83203 7.14087C4.63277 6.42645 2.28972 7.63544 1.58105 9.81665C0.869348 12.0071 2.06688 14.356 4.25684 15.0676L4.68457 15.2063C4.96649 15.2979 5.07761 15.639 4.90332 15.8792L4.63867 16.2434C3.2879 18.1027 3.70136 20.7138 5.56055 22.0647C7.4198 23.4155 10.031 23.0011 11.3818 21.1418L11.6465 20.7786C11.8208 20.5386 12.179 20.5384 12.3535 20.7786L12.6182 21.1418C13.969 23.0012 16.5801 23.4155 18.4395 22.0647C20.2987 20.7139 20.7121 18.1027 19.3613 16.2434L19.0967 15.8792C18.9226 15.6393 19.0332 15.298 19.3154 15.2063L19.7432 15.0676C21.9334 14.3558 23.1305 12.0067 22.4189 9.81665C21.7072 7.62611 19.3578 6.4296 17.168 7.14087L16.7393 7.28052C16.4573 7.37171 16.1672 7.1609 16.167 6.8645V6.41431C16.167 4.11614 14.2982 2.24734 12 2.24731Z" fill="black" stroke="#CDAF95"/>
<path d="M12 9.87195C13.7912 9.8722 15.249 11.3307 15.249 13.1219C15.2488 14.9129 13.791 16.3707 12 16.371C10.2088 16.371 8.75025 14.9131 8.75 13.1219C8.75 11.3306 10.2087 9.87195 12 9.87195ZM12 10.7469C10.6903 10.7469 9.62525 11.8113 9.625 13.121C9.625 14.4308 10.6901 15.496 12 15.496C13.3097 15.4957 14.374 14.4307 14.374 13.121C14.3738 11.8115 13.3095 10.7472 12 10.7469Z" fill="black" stroke="#CDAF95"/>
</g>
<defs>
<clipPath id="clip0_2450_19343">
<rect width="24" height="24" fill="white" transform="translate(0 0.552612)"/>
</clipPath>
</defs>
</svg>
