<svg width="16" height="16" viewBox="0 0 16 16" fill="none" xmlns="http://www.w3.org/2000/svg">
<path d="M6 14H4.66667C3.19391 14 2 12.8061 2 11.3333V7.1384C2 6.20592 2.48707 5.34117 3.28453 4.85786L6.61786 2.83766C7.4674 2.32281 8.5326 2.32281 9.38213 2.83766L12.7155 4.85786C13.5129 5.34117 14 6.20592 14 7.1384V11.3333C14 12.8061 12.8061 14 11.3333 14H10M6 14V11.3333C6 10.2287 6.8954 9.33334 8 9.33334C9.1046 9.33334 10 10.2287 10 11.3333V14M6 14H10" stroke="black" stroke-width="1.6" stroke-linecap="round" stroke-linejoin="round"/>
</svg>
