<svg width="24" height="24" viewBox="0 0 24 24" fill="none" xmlns="http://www.w3.org/2000/svg">
<path d="M3.89469 11.3999L7.75709 12.874L9.26276 17.8324C9.32822 18.1675 9.72101 18.2345 9.98287 18.0335L12.1432 16.2243C12.3396 16.0233 12.6669 16.0233 12.9288 16.2243L16.7911 19.1055C17.053 19.3066 17.4458 19.1726 17.5113 18.8375L20.3917 4.7663C20.4571 4.43127 20.1298 4.09624 19.8025 4.23025L3.89469 10.5288C3.5019 10.6628 3.5019 11.2659 3.89469 11.3999ZM9.06637 12.1369L16.6602 7.37953C16.7911 7.31252 16.9221 7.51354 16.7911 7.58055L10.572 13.5441C10.3756 13.7451 10.1793 14.0131 10.1793 14.3481L9.98287 15.9563C9.98287 16.1573 9.65554 16.2243 9.59008 15.9563L8.8045 13.008C8.60811 12.673 8.73905 12.271 9.06637 12.1369Z" fill="#CDAF95"/>
</svg>
