<svg width="92" height="24" viewBox="0 0 92 24" fill="none" xmlns="http://www.w3.org/2000/svg">
<g clip-path="url(#clip0_2174_12831)">
<path d="M12 0.819763C14.542 0.819784 16.6529 2.71228 16.9941 5.16254L17.0654 5.67719L17.5771 5.58539C19.9709 5.15623 22.4495 6.53013 23.25 8.99359C24.0505 11.4571 22.853 14.0251 20.6641 15.0854L20.1953 15.312L20.4404 15.7709C21.6045 17.9537 21.0095 20.725 18.9531 22.2192C16.9109 23.7029 14.0898 23.4366 12.3604 21.6411L12 21.267L11.6396 21.6411C9.90993 23.437 7.08813 23.7022 5.04688 22.2192C2.99045 20.725 2.39545 17.9537 3.55957 15.7709L3.80371 15.312L3.33594 15.0854C1.14755 14.0253 -0.0505903 11.4576 0.75 8.99359C1.55062 6.5299 4.02885 5.15639 6.42285 5.58539L6.93457 5.67719L7.00586 5.16254C7.34709 2.71227 9.45802 0.819763 12 0.819763ZM12 1.69476C9.70186 1.69476 7.83301 3.56352 7.83301 5.86176V6.31195C7.83278 6.60829 7.54276 6.81907 7.26074 6.72797L6.83203 6.58832C4.63277 5.8739 2.28972 7.08289 1.58105 9.2641C0.869348 11.4545 2.06688 13.8035 4.25684 14.5151L4.68457 14.6537C4.96649 14.7453 5.07761 15.0865 4.90332 15.3266L4.63867 15.6909C3.2879 17.5501 3.70136 20.1613 5.56055 21.5121C7.4198 22.863 10.031 22.4486 11.3818 20.5893L11.6465 20.226C11.8208 19.9861 12.179 19.9859 12.3535 20.226L12.6182 20.5893C13.969 22.4486 16.5801 22.863 18.4395 21.5121C20.2987 20.1613 20.7121 17.5501 19.3613 15.6909L19.0967 15.3266C18.9226 15.0867 19.0332 14.7455 19.3154 14.6537L19.7432 14.5151C21.9334 13.8033 23.1305 11.4541 22.4189 9.2641C21.7072 7.07355 19.3578 5.87705 17.168 6.58832L16.7393 6.72797C16.4573 6.81915 16.1672 6.60835 16.167 6.31195V5.86176C16.167 3.56359 14.2982 1.69479 12 1.69476Z" fill="black" stroke="#CDAF95"/>
<path d="M12 9.3194C13.7912 9.31965 15.249 10.7782 15.249 12.5694C15.2488 14.3604 13.791 15.8182 12 15.8184C10.2088 15.8184 8.75025 14.3606 8.75 12.5694C8.75 10.778 10.2087 9.3194 12 9.3194ZM12 10.1944C10.6903 10.1944 9.62525 11.2588 9.625 12.5684C9.625 13.8783 10.6901 14.9434 12 14.9434C13.3097 14.9432 14.374 13.8782 14.374 12.5684C14.3738 11.2589 13.3095 10.1947 12 10.1944Z" fill="black" stroke="#CDAF95"/>
</g>
<g clip-path="url(#clip1_2174_12831)">
<path d="M46 0.819763C48.542 0.819784 50.6529 2.71228 50.9941 5.16254L51.0654 5.67719L51.5771 5.58539C53.9709 5.15623 56.4495 6.53013 57.25 8.99359C58.0505 11.4571 56.853 14.0251 54.6641 15.0854L54.1953 15.312L54.4404 15.7709C55.6045 17.9537 55.0095 20.725 52.9531 22.2192C50.9109 23.7029 48.0898 23.4366 46.3604 21.6411L46 21.267L45.6396 21.6411C43.9099 23.437 41.0881 23.7022 39.0469 22.2192C36.9905 20.725 36.3954 17.9537 37.5596 15.7709L37.8037 15.312L37.3359 15.0854C35.1476 14.0253 33.9494 11.4576 34.75 8.99359C35.5506 6.5299 38.0288 5.15639 40.4229 5.58539L40.9346 5.67719L41.0059 5.16254C41.3471 2.71227 43.458 0.819763 46 0.819763ZM46 1.69476C43.7019 1.69476 41.833 3.56352 41.833 5.86176V6.31195C41.8328 6.60829 41.5428 6.81907 41.2607 6.72797L40.832 6.58832C38.6328 5.8739 36.2897 7.08289 35.5811 9.2641C34.8693 11.4545 36.0669 13.8035 38.2568 14.5151L38.6846 14.6537C38.9665 14.7453 39.0776 15.0865 38.9033 15.3266L38.6387 15.6909C37.2879 17.5501 37.7014 20.1613 39.5605 21.5121C41.4198 22.863 44.031 22.4486 45.3818 20.5893L45.6465 20.226C45.8208 19.9861 46.179 19.9859 46.3535 20.226L46.6182 20.5893C47.969 22.4486 50.5801 22.863 52.4395 21.5121C54.2987 20.1613 54.7121 17.5501 53.3613 15.6909L53.0967 15.3266C52.9226 15.0867 53.0332 14.7455 53.3154 14.6537L53.7432 14.5151C55.9334 13.8033 57.1305 11.4541 56.4189 9.2641C55.7072 7.07355 53.3578 5.87705 51.168 6.58832L50.7393 6.72797C50.4573 6.81915 50.1672 6.60835 50.167 6.31195V5.86176C50.167 3.56359 48.2982 1.69479 46 1.69476Z" fill="black" stroke="#CDAF95"/>
<path d="M46 9.3194C47.7912 9.31965 49.249 10.7782 49.249 12.5694C49.2488 14.3604 47.791 15.8182 46 15.8184C44.2088 15.8184 42.7503 14.3606 42.75 12.5694C42.75 10.778 44.2087 9.3194 46 9.3194ZM46 10.1944C44.6903 10.1944 43.6253 11.2588 43.625 12.5684C43.625 13.8783 44.6901 14.9434 46 14.9434C47.3097 14.9432 48.374 13.8782 48.374 12.5684C48.3738 11.2589 47.3095 10.1947 46 10.1944Z" fill="black" stroke="#CDAF95"/>
</g>
<g clip-path="url(#clip2_2174_12831)">
<path d="M80 0.819763C82.542 0.819784 84.6529 2.71228 84.9941 5.16254L85.0654 5.67719L85.5771 5.58539C87.9709 5.15623 90.4495 6.53013 91.25 8.99359C92.0505 11.4571 90.853 14.0251 88.6641 15.0854L88.1953 15.312L88.4404 15.7709C89.6045 17.9537 89.0095 20.725 86.9531 22.2192C84.9109 23.7029 82.0898 23.4366 80.3604 21.6411L80 21.267L79.6396 21.6411C77.9099 23.437 75.0881 23.7022 73.0469 22.2192C70.9905 20.725 70.3954 17.9537 71.5596 15.7709L71.8037 15.312L71.3359 15.0854C69.1476 14.0253 67.9494 11.4576 68.75 8.99359C69.5506 6.5299 72.0288 5.15639 74.4229 5.58539L74.9346 5.67719L75.0059 5.16254C75.3471 2.71227 77.458 0.819763 80 0.819763ZM80 1.69476C77.7019 1.69476 75.833 3.56352 75.833 5.86176V6.31195C75.8328 6.60829 75.5428 6.81907 75.2607 6.72797L74.832 6.58832C72.6328 5.8739 70.2897 7.08289 69.5811 9.2641C68.8693 11.4545 70.0669 13.8035 72.2568 14.5151L72.6846 14.6537C72.9665 14.7453 73.0776 15.0865 72.9033 15.3266L72.6387 15.6909C71.2879 17.5501 71.7014 20.1613 73.5605 21.5121C75.4198 22.863 78.031 22.4486 79.3818 20.5893L79.6465 20.226C79.8208 19.9861 80.179 19.9859 80.3535 20.226L80.6182 20.5893C81.969 22.4486 84.5801 22.863 86.4395 21.5121C88.2987 20.1613 88.7121 17.5501 87.3613 15.6909L87.0967 15.3266C86.9226 15.0867 87.0332 14.7455 87.3154 14.6537L87.7432 14.5151C89.9334 13.8033 91.1305 11.4541 90.4189 9.2641C89.7072 7.07355 87.3578 5.87705 85.168 6.58832L84.7393 6.72797C84.4573 6.81915 84.1672 6.60835 84.167 6.31195V5.86176C84.167 3.56359 82.2982 1.69479 80 1.69476Z" fill="black" stroke="#CDAF95"/>
<path d="M80 9.3194C81.7912 9.31965 83.249 10.7782 83.249 12.5694C83.2488 14.3604 81.791 15.8182 80 15.8184C78.2088 15.8184 76.7503 14.3606 76.75 12.5694C76.75 10.778 78.2087 9.3194 80 9.3194ZM80 10.1944C78.6903 10.1944 77.6253 11.2588 77.625 12.5684C77.625 13.8783 78.6901 14.9434 80 14.9434C81.3097 14.9432 82.374 13.8782 82.374 12.5684C82.3738 11.2589 81.3095 10.1947 80 10.1944Z" fill="black" stroke="#CDAF95"/>
</g>
<defs>
<clipPath id="clip0_2174_12831">
<rect width="24" height="24" fill="white"/>
</clipPath>
<clipPath id="clip1_2174_12831">
<rect width="24" height="24" fill="white" transform="translate(34)"/>
</clipPath>
<clipPath id="clip2_2174_12831">
<rect width="24" height="24" fill="white" transform="translate(68)"/>
</clipPath>
</defs>
</svg>
