<svg width="24" height="24" viewBox="0 0 24 24" fill="none" xmlns="http://www.w3.org/2000/svg">
<path d="M17.861 5.83126C16.4216 4.39688 14.5025 3.60001 12.4767 3.60001C8.2652 3.60001 4.85336 7.00001 4.85336 11.1969C4.85336 12.525 5.22653 13.8531 5.86625 14.9688L4.80005 18.9L8.85162 17.8375C9.97113 18.4219 11.1973 18.7406 12.4767 18.7406C16.6882 18.7406 20.1 15.3406 20.1 11.1438C20.0467 9.17813 19.3004 7.26563 17.861 5.83126ZM16.1551 13.9063C15.9952 14.3313 15.2488 14.7563 14.8757 14.8094C14.5558 14.8625 14.1293 14.8625 13.7028 14.7563C13.4363 14.65 13.0631 14.5438 12.6366 14.3313C10.7175 13.5344 9.49134 11.6219 9.38472 11.4625C9.2781 11.3563 8.58507 10.4531 8.58507 9.49688C8.58507 8.54063 9.06486 8.11563 9.22479 7.90313C9.38472 7.69063 9.59796 7.69063 9.75789 7.69063C9.86451 7.69063 10.0244 7.69063 10.1311 7.69063C10.2377 7.69063 10.3976 7.63751 10.5575 8.00938C10.7175 8.38126 11.0906 9.33751 11.1439 9.39063C11.1973 9.49688 11.1973 9.60313 11.1439 9.70938C11.0906 9.81563 11.0373 9.92188 10.9307 10.0281C10.8241 10.1344 10.7175 10.2938 10.6642 10.3469C10.5575 10.4531 10.4509 10.5594 10.5575 10.7188C10.6642 10.9313 11.0373 11.5156 11.6237 12.0469C12.3701 12.6844 12.9565 12.8969 13.1697 13.0031C13.383 13.1094 13.4896 13.0563 13.5962 12.95C13.7028 12.8438 14.076 12.4188 14.1826 12.2063C14.2892 11.9938 14.4492 12.0469 14.6091 12.1C14.769 12.1531 15.7286 12.6313 15.8885 12.7375C16.1018 12.8438 16.2084 12.8969 16.2617 12.95C16.315 13.1094 16.315 13.4813 16.1551 13.9063Z" fill="#CDAF95"/>
</svg>
