<svg width="24" height="24" viewBox="0 0 24 24" fill="none" xmlns="http://www.w3.org/2000/svg">
<path fill-rule="evenodd" clip-rule="evenodd" d="M6.04651 6C4.91626 6 4 6.9532 4 8.12903V15.871C4 17.0468 4.91626 18 6.04651 18H17.9535C19.0838 18 20 17.0468 20 15.871V8.12903C20 6.9532 19.0838 6 17.9535 6H6.04651ZM8.59914 9.20174C8.34661 9.01784 7.99859 9.08173 7.82183 9.34444C7.64505 9.60715 7.70647 9.9692 7.959 10.1531L11.6799 12.8628C11.8721 13.0027 12.1279 13.0027 12.3201 12.8628L16.041 10.1531C16.2935 9.9692 16.355 9.60715 16.1782 9.34444C16.0014 9.08173 15.6534 9.01784 15.4009 9.20174L12 11.6783L8.59914 9.20174Z" fill="#756659"/>
</svg>
