<svg width="24" height="24" viewBox="0 0 24 24" fill="none" xmlns="http://www.w3.org/2000/svg">
<path fill-rule="evenodd" clip-rule="evenodd" d="M5.96641 4H8.78337C9.01797 4 9.22799 4.14642 9.31057 4.36754L10.4036 7.29419C10.4398 7.39107 10.449 7.49606 10.4301 7.59781L9.88244 10.5563C10.5556 12.1505 11.6676 13.2218 13.5118 14.1828L16.4144 13.6164C16.5174 13.5963 16.624 13.6056 16.7221 13.6433L19.6373 14.7619C19.8557 14.8457 20 15.0566 20 15.2919V18.0026C20 19.2319 18.9244 20.2295 17.6663 19.9538C15.373 19.4513 11.1244 18.1741 8.14889 15.1778C5.29871 12.3077 4.34378 8.34286 4.02231 6.19973C3.8389 4.97688 4.8128 4 5.96641 4Z" fill="#756659"/>
</svg>
