<svg width="16" height="16" viewBox="0 0 16 16" fill="none" xmlns="http://www.w3.org/2000/svg">
<path fill-rule="evenodd" clip-rule="evenodd" d="M8.14276 2.29389L9.68676 5.39989C9.7641 5.55655 9.91343 5.66589 10.0868 5.69122L13.5434 6.19055C13.6834 6.20922 13.8094 6.28255 13.8954 6.39455C14.0568 6.60455 14.0321 6.90189 13.8388 7.08255L11.3334 9.50522C11.2061 9.62522 11.1494 9.80122 11.1828 9.97255L11.7828 13.3912C11.8248 13.6746 11.6314 13.9399 11.3481 13.9859C11.2308 14.0039 11.1108 13.9852 11.0041 13.9326L7.92543 12.3186C7.77076 12.2346 7.58543 12.2346 7.43076 12.3186L4.32943 13.9412C4.0701 14.0732 3.75276 13.9752 3.61143 13.7212C3.55743 13.6186 3.53876 13.5019 3.55743 13.3879L4.15743 9.96922C4.18743 9.79855 4.13076 9.62322 4.00676 9.50255L1.4881 7.08055C1.28276 6.87655 1.28143 6.54455 1.4861 6.33922C1.48676 6.33855 1.48743 6.33722 1.4881 6.33655C1.57276 6.25989 1.67676 6.20855 1.78943 6.18855L5.24676 5.68922C5.41943 5.66189 5.5681 5.55389 5.64676 5.39722L7.18943 2.29389C7.25143 2.16789 7.36143 2.07122 7.49476 2.02722C7.62876 1.98255 7.77543 1.99322 7.90143 2.05655C8.00476 2.10789 8.08943 2.19122 8.14276 2.29389Z" stroke="#FFC24A" stroke-width="2" stroke-linecap="round" stroke-linejoin="round"/>
<path fill-rule="evenodd" clip-rule="evenodd" d="M8.14276 2.29389L9.68676 5.39989C9.7641 5.55655 9.91343 5.66589 10.0868 5.69122L13.5434 6.19055C13.6834 6.20922 13.8094 6.28255 13.8954 6.39455C14.0568 6.60455 14.0321 6.90189 13.8388 7.08255L11.3334 9.50522C11.2061 9.62522 11.1494 9.80122 11.1828 9.97255L11.7828 13.3912C11.8248 13.6746 11.6314 13.9399 11.3481 13.9859C11.2308 14.0039 11.1108 13.9852 11.0041 13.9326L7.92543 12.3186C7.77076 12.2346 7.58543 12.2346 7.43076 12.3186L4.32943 13.9412C4.0701 14.0732 3.75276 13.9752 3.61143 13.7212C3.55743 13.6186 3.53876 13.5019 3.55743 13.3879L4.15743 9.96922C4.18743 9.79855 4.13076 9.62322 4.00676 9.50255L1.4881 7.08055C1.28276 6.87655 1.28143 6.54455 1.4861 6.33922C1.48676 6.33855 1.48743 6.33722 1.4881 6.33655C1.57276 6.25989 1.67676 6.20855 1.78943 6.18855L5.24676 5.68922C5.41943 5.66189 5.5681 5.55389 5.64676 5.39722L7.18943 2.29389C7.25143 2.16789 7.36143 2.07122 7.49476 2.02722C7.62876 1.98255 7.77543 1.99322 7.90143 2.05655C8.00476 2.10789 8.08943 2.19122 8.14276 2.29389Z" stroke="#FFC24A"/>
</svg>
