<svg width="16" height="16" viewBox="0 0 16 16" fill="none" xmlns="http://www.w3.org/2000/svg">
<g clip-path="url(#clip0_2463_12593)">
<path d="M8 10C9.1046 10 10 9.1046 10 8C10 6.8954 9.1046 6 8 6C6.8954 6 6 6.8954 6 8C6 9.1046 6.8954 10 8 10Z" stroke="#CDAF95" stroke-width="1.6" stroke-linecap="round" stroke-linejoin="round"/>
<path d="M13.0803 6.93028L12.3485 5.16321L13.332 4.00001L11.9987 2.66668L10.8418 3.65531L9.03723 2.91317L8.62223 1.33334H7.31936L6.8981 2.9341L5.13497 3.67732L3.9987 2.66668L2.66536 4.00001L3.63428 5.19258L2.9137 6.96421L1.33203 7.33334V8.66668L2.93277 9.10368L3.67586 10.8665L2.66536 12L3.9987 13.3333L5.1928 12.3602L6.93003 13.0749L7.33203 14.6667H8.66536L9.06836 13.0755L10.8354 12.3437C11.13 12.5542 11.9987 13.3333 11.9987 13.3333L13.332 12L12.3426 10.8329L13.0746 9.06534L14.6653 8.65148L14.6654 7.33334L13.0803 6.93028Z" stroke="#CDAF95" stroke-width="1.6" stroke-linecap="round" stroke-linejoin="round"/>
</g>
<defs>
<clipPath id="clip0_2463_12593">
<rect width="16" height="16" fill="white"/>
</clipPath>
</defs>
</svg>
