<svg width="108" height="155" viewBox="0 0 108 155" fill="none" xmlns="http://www.w3.org/2000/svg">
<path d="M104 0H4C1.79086 0 0 1.79086 0 4V148.481C0 151.466 3.15071 153.399 5.81173 152.047L52.1883 128.487C53.3268 127.908 54.6732 127.908 55.8117 128.487L102.188 152.047C104.849 153.399 108 151.466 108 148.481V4C108 1.79086 106.209 0 104 0Z" fill="url(#paint0_linear_2051_3111)"/>
<g clip-path="url(#clip0_2051_3111)">
<path d="M53.5 63C66.4787 63 77 52.4787 77 39.5C77 26.5213 66.4787 16 53.5 16C40.5213 16 30 26.5213 30 39.5C30 52.4787 40.5213 63 53.5 63Z" fill="#FC3F1D"/>
<path d="M57.1865 54.1875H62.3103V24.8125H54.8527C47.3525 24.8125 43.4185 28.6518 43.4185 34.3234C43.4185 39.2195 45.9689 41.98 50.4868 44.9784L53.2319 46.7901L49.7084 43.835L42.7267 54.1875H48.2815L55.7398 43.0588L53.146 41.333C50.0117 39.2195 48.4768 37.5803 48.4768 34.0216C48.4768 30.8946 50.6822 28.7811 54.8747 28.7811H57.166V54.1875H57.188H57.1865Z" fill="white"/>
</g>
<path d="M21.654 81.016L17.974 75.576H20.886L23.126 79.224L25.446 75.576H28.198L24.534 81.032L28.518 87H25.526L23.03 83.048L20.486 87H17.67L21.654 81.016ZM33.3019 87.208C32.6512 87.208 32.0645 87.1067 31.5419 86.904C31.0192 86.7013 30.5712 86.4133 30.1979 86.04C29.8245 85.656 29.5365 85.1973 29.3339 84.664C29.1312 84.1307 29.0299 83.5333 29.0299 82.872C29.0299 82.2107 29.1312 81.6133 29.3339 81.08C29.5365 80.536 29.8245 80.0773 30.1979 79.704C30.5712 79.32 31.0192 79.0267 31.5419 78.824C32.0645 78.6107 32.6512 78.504 33.3019 78.504C33.9525 78.504 34.5392 78.6107 35.0619 78.824C35.5952 79.0267 36.0485 79.32 36.4219 79.704C36.7952 80.0773 37.0832 80.536 37.2859 81.08C37.4885 81.6133 37.5899 82.2107 37.5899 82.872C37.5899 83.5333 37.4885 84.1307 37.2859 84.664C37.0832 85.1973 36.7952 85.656 36.4219 86.04C36.0485 86.4133 35.5952 86.7013 35.0619 86.904C34.5392 87.1067 33.9525 87.208 33.3019 87.208ZM33.3019 85.512C33.6859 85.512 34.0059 85.4373 34.2619 85.288C34.5285 85.1387 34.7365 84.9413 34.8859 84.696C35.0459 84.44 35.1579 84.1573 35.2219 83.848C35.2859 83.528 35.3179 83.2027 35.3179 82.872C35.3179 82.5413 35.2859 82.216 35.2219 81.896C35.1579 81.576 35.0459 81.2933 34.8859 81.048C34.7365 80.8027 34.5285 80.6053 34.2619 80.456C34.0059 80.296 33.6859 80.216 33.3019 80.216C32.9179 80.216 32.5979 80.296 32.3419 80.456C32.0859 80.6053 31.8779 80.8027 31.7179 81.048C31.5685 81.2933 31.4619 81.576 31.3979 81.896C31.3339 82.216 31.3019 82.5413 31.3019 82.872C31.3019 83.2027 31.3339 83.528 31.3979 83.848C31.4619 84.1573 31.5685 84.44 31.7179 84.696C31.8779 84.9413 32.0859 85.1387 32.3419 85.288C32.5979 85.4373 32.9179 85.512 33.3019 85.512ZM39.0671 78.728H41.2271V79.784H41.2591C41.5365 79.336 41.8885 79.0107 42.3151 78.808C42.7418 78.6053 43.2111 78.504 43.7231 78.504C44.3738 78.504 44.9338 78.6267 45.4031 78.872C45.8725 79.1173 46.2618 79.4427 46.5711 79.848C46.8805 80.2533 47.1098 80.728 47.2591 81.272C47.4085 81.8053 47.4831 82.3653 47.4831 82.952C47.4831 83.5067 47.4085 84.04 47.2591 84.552C47.1098 85.064 46.8805 85.5173 46.5711 85.912C46.2725 86.3067 45.8938 86.6213 45.4351 86.856C44.9871 87.0907 44.4591 87.208 43.8511 87.208C43.3391 87.208 42.8645 87.1067 42.4271 86.904C42.0005 86.6907 41.6485 86.3813 41.3711 85.976H41.3391V89.896H39.0671V78.728ZM43.2431 85.512C43.6165 85.512 43.9258 85.4373 44.1711 85.288C44.4271 85.1387 44.6298 84.9467 44.7791 84.712C44.9391 84.4667 45.0511 84.1893 45.1151 83.88C45.1791 83.56 45.2111 83.2293 45.2111 82.888C45.2111 82.5573 45.1738 82.232 45.0991 81.912C45.0351 81.592 44.9231 81.3093 44.7631 81.064C44.6031 80.808 44.3951 80.6053 44.1391 80.456C43.8938 80.296 43.5898 80.216 43.2271 80.216C42.8538 80.216 42.5391 80.296 42.2831 80.456C42.0378 80.6053 41.8351 80.8027 41.6751 81.048C41.5258 81.2933 41.4191 81.5813 41.3551 81.912C41.2911 82.232 41.2591 82.5573 41.2591 82.888C41.2591 83.2293 41.2911 83.56 41.3551 83.88C41.4298 84.1893 41.5418 84.4667 41.6911 84.712C41.8511 84.9467 42.0538 85.1387 42.2991 85.288C42.5551 85.4373 42.8698 85.512 43.2431 85.512ZM52.8644 87.208C52.2137 87.208 51.627 87.1067 51.1044 86.904C50.5817 86.7013 50.1337 86.4133 49.7604 86.04C49.387 85.656 49.099 85.1973 48.8964 84.664C48.6937 84.1307 48.5924 83.5333 48.5924 82.872C48.5924 82.2107 48.6937 81.6133 48.8964 81.08C49.099 80.536 49.387 80.0773 49.7604 79.704C50.1337 79.32 50.5817 79.0267 51.1044 78.824C51.627 78.6107 52.2137 78.504 52.8644 78.504C53.515 78.504 54.1017 78.6107 54.6244 78.824C55.1577 79.0267 55.611 79.32 55.9844 79.704C56.3577 80.0773 56.6457 80.536 56.8484 81.08C57.051 81.6133 57.1524 82.2107 57.1524 82.872C57.1524 83.5333 57.051 84.1307 56.8484 84.664C56.6457 85.1973 56.3577 85.656 55.9844 86.04C55.611 86.4133 55.1577 86.7013 54.6244 86.904C54.1017 87.1067 53.515 87.208 52.8644 87.208ZM52.8644 85.512C53.2484 85.512 53.5684 85.4373 53.8244 85.288C54.091 85.1387 54.299 84.9413 54.4484 84.696C54.6084 84.44 54.7204 84.1573 54.7844 83.848C54.8484 83.528 54.8804 83.2027 54.8804 82.872C54.8804 82.5413 54.8484 82.216 54.7844 81.896C54.7204 81.576 54.6084 81.2933 54.4484 81.048C54.299 80.8027 54.091 80.6053 53.8244 80.456C53.5684 80.296 53.2484 80.216 52.8644 80.216C52.4804 80.216 52.1604 80.296 51.9044 80.456C51.6484 80.6053 51.4404 80.8027 51.2804 81.048C51.131 81.2933 51.0244 81.576 50.9604 81.896C50.8964 82.216 50.8644 82.5413 50.8644 82.872C50.8644 83.2027 50.8964 83.528 50.9604 83.848C51.0244 84.1573 51.131 84.44 51.2804 84.696C51.4404 84.9413 51.6484 85.1387 51.9044 85.288C52.1604 85.4373 52.4804 85.512 52.8644 85.512ZM58.6296 78.728H60.8856V85.288H63.1896V78.728H65.4456V85.288H67.7496V78.728H70.0056V87H58.6296V78.728ZM75.563 87.208C74.9123 87.208 74.3257 87.1067 73.803 86.904C73.2803 86.6907 72.8377 86.392 72.475 86.008C72.1123 85.624 71.8297 85.1653 71.627 84.632C71.435 84.0987 71.339 83.512 71.339 82.872C71.339 82.2533 71.4403 81.6773 71.643 81.144C71.8457 80.6107 72.1337 80.152 72.507 79.768C72.8803 79.3733 73.323 79.064 73.835 78.84C74.3577 78.616 74.9337 78.504 75.563 78.504C76.2243 78.504 76.8057 78.6267 77.307 78.872C77.819 79.1173 78.2403 79.448 78.571 79.864C78.9123 80.2693 79.1683 80.744 79.339 81.288C79.5097 81.832 79.595 82.3973 79.595 82.984C79.595 83.0587 79.595 83.1333 79.595 83.208C79.595 83.272 79.5897 83.3413 79.579 83.416H73.611C73.643 84.152 73.8297 84.6853 74.171 85.016C74.5123 85.3467 75.003 85.512 75.643 85.512C76.1017 85.512 76.4963 85.4 76.827 85.176C77.1577 84.9413 77.3603 84.696 77.435 84.44H79.435C79.115 85.432 78.6243 86.1413 77.963 86.568C77.3017 86.9947 76.5017 87.208 75.563 87.208ZM77.307 81.976C77.2003 81.4 77.0083 80.9627 76.731 80.664C76.4643 80.3653 76.0537 80.216 75.499 80.216C75.1257 80.216 74.8217 80.28 74.587 80.408C74.3523 80.5253 74.1603 80.6747 74.011 80.856C73.8723 81.0373 73.771 81.2293 73.707 81.432C73.6537 81.6347 73.6217 81.816 73.611 81.976H77.307ZM84.7505 87.208C84.0998 87.208 83.5132 87.1067 82.9905 86.904C82.4678 86.6907 82.0252 86.392 81.6625 86.008C81.2998 85.624 81.0172 85.1653 80.8145 84.632C80.6225 84.0987 80.5265 83.512 80.5265 82.872C80.5265 82.2533 80.6278 81.6773 80.8305 81.144C81.0332 80.6107 81.3212 80.152 81.6945 79.768C82.0678 79.3733 82.5105 79.064 83.0225 78.84C83.5452 78.616 84.1212 78.504 84.7505 78.504C85.4118 78.504 85.9932 78.6267 86.4945 78.872C87.0065 79.1173 87.4278 79.448 87.7585 79.864C88.0998 80.2693 88.3558 80.744 88.5265 81.288C88.6972 81.832 88.7825 82.3973 88.7825 82.984C88.7825 83.0587 88.7825 83.1333 88.7825 83.208C88.7825 83.272 88.7772 83.3413 88.7665 83.416H82.7985C82.8305 84.152 83.0172 84.6853 83.3585 85.016C83.6998 85.3467 84.1905 85.512 84.8305 85.512C85.2892 85.512 85.6838 85.4 86.0145 85.176C86.3452 84.9413 86.5478 84.696 86.6225 84.44H88.6225C88.3025 85.432 87.8118 86.1413 87.1505 86.568C86.4892 86.9947 85.6892 87.208 84.7505 87.208ZM86.4945 81.976C86.3878 81.4 86.1958 80.9627 85.9185 80.664C85.6518 80.3653 85.2412 80.216 84.6865 80.216C84.3132 80.216 84.0092 80.28 83.7745 80.408C83.5398 80.5253 83.3478 80.6747 83.1985 80.856C83.0598 81.0373 82.9585 81.2293 82.8945 81.432C82.8412 81.6347 82.8092 81.816 82.7985 81.976H86.4945ZM30.364 98.728H33.66L35.372 104.744H35.436L37.148 98.728H40.444V107H38.3V100.712H38.252L36.476 107H34.332L32.556 100.712H32.508V107H30.364V98.728ZM46.0005 107.208C45.3498 107.208 44.7632 107.107 44.2405 106.904C43.7178 106.691 43.2752 106.392 42.9125 106.008C42.5498 105.624 42.2672 105.165 42.0645 104.632C41.8725 104.099 41.7765 103.512 41.7765 102.872C41.7765 102.253 41.8778 101.677 42.0805 101.144C42.2832 100.611 42.5712 100.152 42.9445 99.768C43.3178 99.3733 43.7605 99.064 44.2725 98.84C44.7952 98.616 45.3712 98.504 46.0005 98.504C46.6618 98.504 47.2432 98.6267 47.7445 98.872C48.2565 99.1173 48.6778 99.448 49.0085 99.864C49.3498 100.269 49.6058 100.744 49.7765 101.288C49.9472 101.832 50.0325 102.397 50.0325 102.984C50.0325 103.059 50.0325 103.133 50.0325 103.208C50.0325 103.272 50.0272 103.341 50.0165 103.416H44.0485C44.0805 104.152 44.2672 104.685 44.6085 105.016C44.9498 105.347 45.4405 105.512 46.0805 105.512C46.5392 105.512 46.9338 105.4 47.2645 105.176C47.5952 104.941 47.7978 104.696 47.8725 104.44H49.8725C49.5525 105.432 49.0618 106.141 48.4005 106.568C47.7392 106.995 46.9392 107.208 46.0005 107.208ZM47.7445 101.976C47.6378 101.4 47.4458 100.963 47.1685 100.664C46.9018 100.365 46.4912 100.216 45.9365 100.216C45.5632 100.216 45.2592 100.28 45.0245 100.408C44.7898 100.525 44.5978 100.675 44.4485 100.856C44.3098 101.037 44.2085 101.229 44.1445 101.432C44.0912 101.635 44.0592 101.816 44.0485 101.976H47.7445ZM55.284 107.208C54.6547 107.208 54.084 107.107 53.572 106.904C53.06 106.691 52.6227 106.397 52.26 106.024C51.8973 105.651 51.6147 105.208 51.412 104.696C51.2093 104.173 51.108 103.603 51.108 102.984C51.108 102.344 51.1987 101.752 51.38 101.208C51.572 100.653 51.8493 100.179 52.212 99.784C52.5747 99.3787 53.0173 99.064 53.54 98.84C54.0627 98.616 54.66 98.504 55.332 98.504C55.8227 98.504 56.292 98.568 56.74 98.696C57.1987 98.824 57.604 99.0213 57.956 99.288C58.3187 99.544 58.612 99.8693 58.836 100.264C59.06 100.659 59.188 101.117 59.22 101.64H56.996C56.8467 100.691 56.2867 100.216 55.316 100.216C54.9533 100.216 54.6493 100.301 54.404 100.472C54.1587 100.632 53.956 100.845 53.796 101.112C53.6467 101.368 53.54 101.656 53.476 101.976C53.412 102.296 53.38 102.605 53.38 102.904C53.38 103.203 53.412 103.507 53.476 103.816C53.54 104.125 53.6413 104.408 53.78 104.664C53.9293 104.909 54.1267 105.112 54.372 105.272C54.6173 105.432 54.916 105.512 55.268 105.512C55.812 105.512 56.228 105.363 56.516 105.064C56.8147 104.755 57.0013 104.344 57.076 103.832H59.268C59.1187 104.931 58.692 105.768 57.988 106.344C57.284 106.92 56.3827 107.208 55.284 107.208ZM62.5675 100.44H59.8475V98.728H67.5595V100.44H64.8395V107H62.5675V100.44ZM72.5988 107.208C71.9481 107.208 71.3614 107.107 70.8388 106.904C70.3161 106.701 69.8681 106.413 69.4948 106.04C69.1214 105.656 68.8334 105.197 68.6308 104.664C68.4281 104.131 68.3268 103.533 68.3268 102.872C68.3268 102.211 68.4281 101.613 68.6308 101.08C68.8334 100.536 69.1214 100.077 69.4948 99.704C69.8681 99.32 70.3161 99.0267 70.8388 98.824C71.3614 98.6107 71.9481 98.504 72.5988 98.504C73.2494 98.504 73.8361 98.6107 74.3588 98.824C74.8921 99.0267 75.3454 99.32 75.7188 99.704C76.0921 100.077 76.3801 100.536 76.5828 101.08C76.7854 101.613 76.8868 102.211 76.8868 102.872C76.8868 103.533 76.7854 104.131 76.5828 104.664C76.3801 105.197 76.0921 105.656 75.7188 106.04C75.3454 106.413 74.8921 106.701 74.3588 106.904C73.8361 107.107 73.2494 107.208 72.5988 107.208ZM72.5988 105.512C72.9828 105.512 73.3028 105.437 73.5588 105.288C73.8254 105.139 74.0334 104.941 74.1828 104.696C74.3428 104.44 74.4548 104.157 74.5188 103.848C74.5828 103.528 74.6148 103.203 74.6148 102.872C74.6148 102.541 74.5828 102.216 74.5188 101.896C74.4548 101.576 74.3428 101.293 74.1828 101.048C74.0334 100.803 73.8254 100.605 73.5588 100.456C73.3028 100.296 72.9828 100.216 72.5988 100.216C72.2148 100.216 71.8948 100.296 71.6388 100.456C71.3828 100.605 71.1748 100.803 71.0148 101.048C70.8654 101.293 70.7588 101.576 70.6948 101.896C70.6308 102.216 70.5988 102.541 70.5988 102.872C70.5988 103.203 70.6308 103.528 70.6948 103.848C70.7588 104.157 70.8654 104.44 71.0148 104.696C71.1748 104.941 71.3828 105.139 71.6388 105.288C71.8948 105.437 72.2148 105.512 72.5988 105.512Z" fill="#292929"/>
<defs>
<linearGradient id="paint0_linear_2051_3111" x1="10.3562" y1="3.89623e-05" x2="131.323" y2="12.5326" gradientUnits="userSpaceOnUse">
<stop stop-color="#FFD340"/>
<stop offset="1" stop-color="#FFBA68"/>
</linearGradient>
<clipPath id="clip0_2051_3111">
<rect width="47" height="47" fill="white" transform="translate(30 16)"/>
</clipPath>
</defs>
</svg>
