<svg width="176" height="82" viewBox="0 0 176 82" fill="none" xmlns="http://www.w3.org/2000/svg">
<rect width="176" height="82" rx="4" fill="white"/>
<g clip-path="url(#clip0_2051_3118)">
<path d="M20 30C25.5228 30 30 25.5228 30 20C30 14.4772 25.5228 10 20 10C14.4772 10 10 14.4772 10 20C10 25.5228 14.4772 30 20 30Z" fill="#FC3F1D"/>
<path d="M21.5688 26.25H23.7491V13.75H20.5756C17.3841 13.75 15.71 15.3838 15.71 17.7972C15.71 19.8806 16.7953 21.0553 18.7178 22.3312L19.886 23.1022L18.3866 21.8447L15.4156 26.25H17.7794L20.9531 21.5144L19.8494 20.78C18.5156 19.8806 17.8625 19.1831 17.8625 17.6688C17.8625 16.3381 18.801 15.4387 20.585 15.4387H21.56V26.25H21.5694H21.5688Z" fill="white"/>
</g>
<path d="M41 17.338H36.954L36.562 19.564L36.59 19.592C36.8607 19.3213 37.15 19.13 37.458 19.018C37.766 18.8967 38.116 18.836 38.508 18.836C38.9933 18.836 39.4227 18.9247 39.796 19.102C40.1693 19.2793 40.482 19.5173 40.734 19.816C40.9953 20.1147 41.1913 20.4693 41.322 20.88C41.462 21.2813 41.532 21.7107 41.532 22.168C41.532 22.672 41.434 23.1433 41.238 23.582C41.042 24.0113 40.776 24.3847 40.44 24.702C40.1133 25.0193 39.7307 25.2667 39.292 25.444C38.8533 25.612 38.3867 25.6913 37.892 25.682C37.416 25.682 36.9587 25.6213 36.52 25.5C36.0907 25.3693 35.708 25.1733 35.372 24.912C35.036 24.6507 34.7653 24.3287 34.56 23.946C34.364 23.554 34.2613 23.1013 34.252 22.588H36.24C36.2867 23.036 36.4547 23.3953 36.744 23.666C37.0333 23.9273 37.402 24.058 37.85 24.058C38.1113 24.058 38.3447 24.0067 38.55 23.904C38.7647 23.792 38.942 23.652 39.082 23.484C39.2313 23.3067 39.3433 23.106 39.418 22.882C39.502 22.6487 39.544 22.4107 39.544 22.168C39.544 21.916 39.5067 21.678 39.432 21.454C39.3573 21.23 39.2453 21.034 39.096 20.866C38.9467 20.698 38.7693 20.5673 38.564 20.474C38.3587 20.3807 38.1207 20.334 37.85 20.334C37.4953 20.334 37.206 20.3993 36.982 20.53C36.758 20.6513 36.548 20.8473 36.352 21.118H34.56L35.526 15.7H41V17.338ZM42.6333 23.344H44.8313V25.5C44.8313 25.8173 44.7706 26.1067 44.6493 26.368C44.5373 26.6387 44.3833 26.872 44.1873 27.068C43.9913 27.264 43.758 27.4227 43.4873 27.544C43.226 27.6747 42.946 27.7633 42.6473 27.81V26.802C42.7873 26.774 42.918 26.718 43.0393 26.634C43.17 26.55 43.282 26.4473 43.3753 26.326C43.4686 26.214 43.5386 26.0833 43.5853 25.934C43.632 25.794 43.6506 25.6493 43.6413 25.5H42.6333V23.344ZM47.9578 20.558C47.9578 20.838 47.9671 21.1787 47.9858 21.58C48.0044 21.972 48.0604 22.3547 48.1538 22.728C48.2564 23.092 48.4151 23.4047 48.6298 23.666C48.8444 23.9273 49.1524 24.058 49.5538 24.058C49.9644 24.058 50.2771 23.9273 50.4918 23.666C50.7158 23.4047 50.8744 23.092 50.9678 22.728C51.0704 22.3547 51.1311 21.972 51.1498 21.58C51.1684 21.1787 51.1778 20.838 51.1778 20.558C51.1778 20.39 51.1731 20.1893 51.1638 19.956C51.1638 19.7133 51.1451 19.466 51.1078 19.214C51.0798 18.962 51.0331 18.7147 50.9678 18.472C50.9118 18.22 50.8231 17.996 50.7018 17.8C50.5804 17.604 50.4264 17.4453 50.2398 17.324C50.0531 17.2027 49.8244 17.142 49.5538 17.142C49.2831 17.142 49.0544 17.2027 48.8678 17.324C48.6904 17.4453 48.5411 17.604 48.4198 17.8C48.3078 17.996 48.2191 18.22 48.1538 18.472C48.0884 18.7147 48.0418 18.962 48.0138 19.214C47.9858 19.466 47.9671 19.7133 47.9578 19.956C47.9578 20.1893 47.9578 20.39 47.9578 20.558ZM45.9698 20.558C45.9698 19.606 46.0631 18.808 46.2498 18.164C46.4458 17.5107 46.7071 16.988 47.0338 16.596C47.3604 16.204 47.7384 15.924 48.1678 15.756C48.6064 15.588 49.0684 15.504 49.5538 15.504C50.0484 15.504 50.5104 15.588 50.9398 15.756C51.3784 15.924 51.7611 16.204 52.0878 16.596C52.4238 16.988 52.6851 17.5107 52.8718 18.164C53.0678 18.808 53.1658 19.606 53.1658 20.558C53.1658 21.538 53.0678 22.3593 52.8718 23.022C52.6851 23.6753 52.4238 24.198 52.0878 24.59C51.7611 24.982 51.3784 25.262 50.9398 25.43C50.5104 25.598 50.0484 25.682 49.5538 25.682C49.0684 25.682 48.6064 25.598 48.1678 25.43C47.7384 25.262 47.3604 24.982 47.0338 24.59C46.7071 24.198 46.4458 23.6753 46.2498 23.022C46.0631 22.3593 45.9698 21.538 45.9698 20.558Z" fill="#292929"/>
<g clip-path="url(#clip1_2051_3118)">
<path fill-rule="evenodd" clip-rule="evenodd" d="M96.1071 15.7204L97.2651 18.0499C97.3231 18.1674 97.4351 18.2494 97.5651 18.2684L100.158 18.6429C100.263 18.6569 100.357 18.7119 100.422 18.7959C100.543 18.9534 100.524 19.1764 100.379 19.3119L98.5001 21.1289C98.4046 21.2189 98.3621 21.3509 98.3871 21.4794L98.8371 24.0434C98.8686 24.2559 98.7236 24.4549 98.5111 24.4894C98.4231 24.5029 98.3331 24.4889 98.2531 24.4494L95.9441 23.2389C95.8281 23.1759 95.6891 23.1759 95.5731 23.2389L93.2471 24.4559C93.0526 24.5549 92.8146 24.4814 92.7086 24.2909C92.6681 24.2139 92.6541 24.1264 92.6681 24.0409L93.1181 21.4769C93.1406 21.3489 93.0981 21.2174 93.0051 21.1269L91.1161 19.3104C90.9621 19.1574 90.9611 18.9084 91.1146 18.7544C91.1151 18.7539 91.1156 18.7529 91.1161 18.7524C91.1796 18.6949 91.2576 18.6564 91.3421 18.6414L93.9351 18.2669C94.0646 18.2464 94.1761 18.1654 94.2351 18.0479L95.3921 15.7204C95.4386 15.6259 95.5211 15.5534 95.6211 15.5204C95.7216 15.4869 95.8316 15.4949 95.9261 15.5424C96.0036 15.5809 96.0671 15.6434 96.1071 15.7204Z" stroke="#FFC24A" stroke-width="2" stroke-linecap="round" stroke-linejoin="round"/>
<path fill-rule="evenodd" clip-rule="evenodd" d="M96.1071 15.7204L97.2651 18.0499C97.3231 18.1674 97.4351 18.2494 97.5651 18.2684L100.158 18.6429C100.263 18.6569 100.357 18.7119 100.422 18.7959C100.543 18.9534 100.524 19.1764 100.379 19.3119L98.5001 21.1289C98.4046 21.2189 98.3621 21.3509 98.3871 21.4794L98.8371 24.0434C98.8686 24.2559 98.7236 24.4549 98.5111 24.4894C98.4231 24.5029 98.3331 24.4889 98.2531 24.4494L95.9441 23.2389C95.8281 23.1759 95.6891 23.1759 95.5731 23.2389L93.2471 24.4559C93.0526 24.5549 92.8146 24.4814 92.7086 24.2909C92.6681 24.2139 92.6541 24.1264 92.6681 24.0409L93.1181 21.4769C93.1406 21.3489 93.0981 21.2174 93.0051 21.1269L91.1161 19.3104C90.9621 19.1574 90.9611 18.9084 91.1146 18.7544C91.1151 18.7539 91.1156 18.7529 91.1161 18.7524C91.1796 18.6949 91.2576 18.6564 91.3421 18.6414L93.9351 18.2669C94.0646 18.2464 94.1761 18.1654 94.2351 18.0479L95.3921 15.7204C95.4386 15.6259 95.5211 15.5534 95.6211 15.5204C95.7216 15.4869 95.8316 15.4949 95.9261 15.5424C96.0036 15.5809 96.0671 15.6434 96.1071 15.7204Z" fill="#FFC24A"/>
</g>
<g clip-path="url(#clip2_2051_3118)">
<path fill-rule="evenodd" clip-rule="evenodd" d="M112.107 15.7204L113.265 18.0499C113.323 18.1674 113.435 18.2494 113.565 18.2684L116.158 18.6429C116.263 18.6569 116.357 18.7119 116.422 18.7959C116.543 18.9534 116.524 19.1764 116.379 19.3119L114.5 21.1289C114.405 21.2189 114.362 21.3509 114.387 21.4794L114.837 24.0434C114.869 24.2559 114.724 24.4549 114.511 24.4894C114.423 24.5029 114.333 24.4889 114.253 24.4494L111.944 23.2389C111.828 23.1759 111.689 23.1759 111.573 23.2389L109.247 24.4559C109.053 24.5549 108.815 24.4814 108.709 24.2909C108.668 24.2139 108.654 24.1264 108.668 24.0409L109.118 21.4769C109.141 21.3489 109.098 21.2174 109.005 21.1269L107.116 19.3104C106.962 19.1574 106.961 18.9084 107.115 18.7544C107.115 18.7539 107.116 18.7529 107.116 18.7524C107.18 18.6949 107.258 18.6564 107.342 18.6414L109.935 18.2669C110.065 18.2464 110.176 18.1654 110.235 18.0479L111.392 15.7204C111.439 15.6259 111.521 15.5534 111.621 15.5204C111.722 15.4869 111.832 15.4949 111.926 15.5424C112.004 15.5809 112.067 15.6434 112.107 15.7204Z" stroke="#FFC24A" stroke-width="2" stroke-linecap="round" stroke-linejoin="round"/>
<path fill-rule="evenodd" clip-rule="evenodd" d="M112.107 15.7204L113.265 18.0499C113.323 18.1674 113.435 18.2494 113.565 18.2684L116.158 18.6429C116.263 18.6569 116.357 18.7119 116.422 18.7959C116.543 18.9534 116.524 19.1764 116.379 19.3119L114.5 21.1289C114.405 21.2189 114.362 21.3509 114.387 21.4794L114.837 24.0434C114.869 24.2559 114.724 24.4549 114.511 24.4894C114.423 24.5029 114.333 24.4889 114.253 24.4494L111.944 23.2389C111.828 23.1759 111.689 23.1759 111.573 23.2389L109.247 24.4559C109.053 24.5549 108.815 24.4814 108.709 24.2909C108.668 24.2139 108.654 24.1264 108.668 24.0409L109.118 21.4769C109.141 21.3489 109.098 21.2174 109.005 21.1269L107.116 19.3104C106.962 19.1574 106.961 18.9084 107.115 18.7544C107.115 18.7539 107.116 18.7529 107.116 18.7524C107.18 18.6949 107.258 18.6564 107.342 18.6414L109.935 18.2669C110.065 18.2464 110.176 18.1654 110.235 18.0479L111.392 15.7204C111.439 15.6259 111.521 15.5534 111.621 15.5204C111.722 15.4869 111.832 15.4949 111.926 15.5424C112.004 15.5809 112.067 15.6434 112.107 15.7204Z" fill="#FFC24A"/>
</g>
<g clip-path="url(#clip3_2051_3118)">
<path fill-rule="evenodd" clip-rule="evenodd" d="M128.107 15.7204L129.265 18.0499C129.323 18.1674 129.435 18.2494 129.565 18.2684L132.158 18.6429C132.263 18.6569 132.357 18.7119 132.422 18.7959C132.543 18.9534 132.524 19.1764 132.379 19.3119L130.5 21.1289C130.405 21.2189 130.362 21.3509 130.387 21.4794L130.837 24.0434C130.869 24.2559 130.724 24.4549 130.511 24.4894C130.423 24.5029 130.333 24.4889 130.253 24.4494L127.944 23.2389C127.828 23.1759 127.689 23.1759 127.573 23.2389L125.247 24.4559C125.053 24.5549 124.815 24.4814 124.709 24.2909C124.668 24.2139 124.654 24.1264 124.668 24.0409L125.118 21.4769C125.141 21.3489 125.098 21.2174 125.005 21.1269L123.116 19.3104C122.962 19.1574 122.961 18.9084 123.115 18.7544C123.115 18.7539 123.116 18.7529 123.116 18.7524C123.18 18.6949 123.258 18.6564 123.342 18.6414L125.935 18.2669C126.065 18.2464 126.176 18.1654 126.235 18.0479L127.392 15.7204C127.439 15.6259 127.521 15.5534 127.621 15.5204C127.722 15.4869 127.832 15.4949 127.926 15.5424C128.004 15.5809 128.067 15.6434 128.107 15.7204Z" stroke="#FFC24A" stroke-width="2" stroke-linecap="round" stroke-linejoin="round"/>
<path fill-rule="evenodd" clip-rule="evenodd" d="M128.107 15.7204L129.265 18.0499C129.323 18.1674 129.435 18.2494 129.565 18.2684L132.158 18.6429C132.263 18.6569 132.357 18.7119 132.422 18.7959C132.543 18.9534 132.524 19.1764 132.379 19.3119L130.5 21.1289C130.405 21.2189 130.362 21.3509 130.387 21.4794L130.837 24.0434C130.869 24.2559 130.724 24.4549 130.511 24.4894C130.423 24.5029 130.333 24.4889 130.253 24.4494L127.944 23.2389C127.828 23.1759 127.689 23.1759 127.573 23.2389L125.247 24.4559C125.053 24.5549 124.815 24.4814 124.709 24.2909C124.668 24.2139 124.654 24.1264 124.668 24.0409L125.118 21.4769C125.141 21.3489 125.098 21.2174 125.005 21.1269L123.116 19.3104C122.962 19.1574 122.961 18.9084 123.115 18.7544C123.115 18.7539 123.116 18.7529 123.116 18.7524C123.18 18.6949 123.258 18.6564 123.342 18.6414L125.935 18.2669C126.065 18.2464 126.176 18.1654 126.235 18.0479L127.392 15.7204C127.439 15.6259 127.521 15.5534 127.621 15.5204C127.722 15.4869 127.832 15.4949 127.926 15.5424C128.004 15.5809 128.067 15.6434 128.107 15.7204Z" fill="#FFC24A"/>
</g>
<g clip-path="url(#clip4_2051_3118)">
<path fill-rule="evenodd" clip-rule="evenodd" d="M144.107 15.7204L145.265 18.0499C145.323 18.1674 145.435 18.2494 145.565 18.2684L148.158 18.6429C148.263 18.6569 148.357 18.7119 148.422 18.7959C148.543 18.9534 148.524 19.1764 148.379 19.3119L146.5 21.1289C146.405 21.2189 146.362 21.3509 146.387 21.4794L146.837 24.0434C146.869 24.2559 146.724 24.4549 146.511 24.4894C146.423 24.5029 146.333 24.4889 146.253 24.4494L143.944 23.2389C143.828 23.1759 143.689 23.1759 143.573 23.2389L141.247 24.4559C141.053 24.5549 140.815 24.4814 140.709 24.2909C140.668 24.2139 140.654 24.1264 140.668 24.0409L141.118 21.4769C141.141 21.3489 141.098 21.2174 141.005 21.1269L139.116 19.3104C138.962 19.1574 138.961 18.9084 139.115 18.7544C139.115 18.7539 139.116 18.7529 139.116 18.7524C139.18 18.6949 139.258 18.6564 139.342 18.6414L141.935 18.2669C142.065 18.2464 142.176 18.1654 142.235 18.0479L143.392 15.7204C143.439 15.6259 143.521 15.5534 143.621 15.5204C143.722 15.4869 143.832 15.4949 143.926 15.5424C144.004 15.5809 144.067 15.6434 144.107 15.7204Z" stroke="#FFC24A" stroke-width="2" stroke-linecap="round" stroke-linejoin="round"/>
<path fill-rule="evenodd" clip-rule="evenodd" d="M144.107 15.7204L145.265 18.0499C145.323 18.1674 145.435 18.2494 145.565 18.2684L148.158 18.6429C148.263 18.6569 148.357 18.7119 148.422 18.7959C148.543 18.9534 148.524 19.1764 148.379 19.3119L146.5 21.1289C146.405 21.2189 146.362 21.3509 146.387 21.4794L146.837 24.0434C146.869 24.2559 146.724 24.4549 146.511 24.4894C146.423 24.5029 146.333 24.4889 146.253 24.4494L143.944 23.2389C143.828 23.1759 143.689 23.1759 143.573 23.2389L141.247 24.4559C141.053 24.5549 140.815 24.4814 140.709 24.2909C140.668 24.2139 140.654 24.1264 140.668 24.0409L141.118 21.4769C141.141 21.3489 141.098 21.2174 141.005 21.1269L139.116 19.3104C138.962 19.1574 138.961 18.9084 139.115 18.7544C139.115 18.7539 139.116 18.7529 139.116 18.7524C139.18 18.6949 139.258 18.6564 139.342 18.6414L141.935 18.2669C142.065 18.2464 142.176 18.1654 142.235 18.0479L143.392 15.7204C143.439 15.6259 143.521 15.5534 143.621 15.5204C143.722 15.4869 143.832 15.4949 143.926 15.5424C144.004 15.5809 144.067 15.6434 144.107 15.7204Z" fill="#FFC24A"/>
</g>
<g clip-path="url(#clip5_2051_3118)">
<path fill-rule="evenodd" clip-rule="evenodd" d="M160.107 15.7204L161.265 18.0499C161.323 18.1674 161.435 18.2494 161.565 18.2684L164.158 18.6429C164.263 18.6569 164.357 18.7119 164.422 18.7959C164.543 18.9534 164.524 19.1764 164.379 19.3119L162.5 21.1289C162.405 21.2189 162.362 21.3509 162.387 21.4794L162.837 24.0434C162.869 24.2559 162.724 24.4549 162.511 24.4894C162.423 24.5029 162.333 24.4889 162.253 24.4494L159.944 23.2389C159.828 23.1759 159.689 23.1759 159.573 23.2389L157.247 24.4559C157.053 24.5549 156.815 24.4814 156.709 24.2909C156.668 24.2139 156.654 24.1264 156.668 24.0409L157.118 21.4769C157.141 21.3489 157.098 21.2174 157.005 21.1269L155.116 19.3104C154.962 19.1574 154.961 18.9084 155.115 18.7544C155.115 18.7539 155.116 18.7529 155.116 18.7524C155.18 18.6949 155.258 18.6564 155.342 18.6414L157.935 18.2669C158.065 18.2464 158.176 18.1654 158.235 18.0479L159.392 15.7204C159.439 15.6259 159.521 15.5534 159.621 15.5204C159.722 15.4869 159.832 15.4949 159.926 15.5424C160.004 15.5809 160.067 15.6434 160.107 15.7204Z" stroke="#FFC24A" stroke-width="2" stroke-linecap="round" stroke-linejoin="round"/>
<path fill-rule="evenodd" clip-rule="evenodd" d="M160.107 15.7204L161.265 18.0499C161.323 18.1674 161.435 18.2494 161.565 18.2684L164.158 18.6429C164.263 18.6569 164.357 18.7119 164.422 18.7959C164.543 18.9534 164.524 19.1764 164.379 19.3119L162.5 21.1289C162.405 21.2189 162.362 21.3509 162.387 21.4794L162.837 24.0434C162.869 24.2559 162.724 24.4549 162.511 24.4894C162.423 24.5029 162.333 24.4889 162.253 24.4494L159.944 23.2389C159.828 23.1759 159.689 23.1759 159.573 23.2389L157.247 24.4559C157.053 24.5549 156.815 24.4814 156.709 24.2909C156.668 24.2139 156.654 24.1264 156.668 24.0409L157.118 21.4769C157.141 21.3489 157.098 21.2174 157.005 21.1269L155.116 19.3104C154.962 19.1574 154.961 18.9084 155.115 18.7544C155.115 18.7539 155.116 18.7529 155.116 18.7524C155.18 18.6949 155.258 18.6564 155.342 18.6414L157.935 18.2669C158.065 18.2464 158.176 18.1654 158.235 18.0479L159.392 15.7204C159.439 15.6259 159.521 15.5534 159.621 15.5204C159.722 15.4869 159.832 15.4949 159.926 15.5424C160.004 15.5809 160.067 15.6434 160.107 15.7204Z" fill="#FFC24A"/>
</g>
<path d="M11.092 42.004H15.474C16.4913 42.004 17.2567 42.2653 17.77 42.788C18.2833 43.3013 18.54 44.0247 18.54 44.958C18.54 45.8913 18.2833 46.6193 17.77 47.142C17.2567 47.6553 16.4913 47.912 15.474 47.912H12.422V52H11.092V42.004ZM15.026 46.792C15.782 46.792 16.3327 46.638 16.678 46.33C17.0327 46.0127 17.21 45.5553 17.21 44.958C17.21 44.3607 17.0327 43.908 16.678 43.6C16.3327 43.2827 15.782 43.124 15.026 43.124H12.422V46.792H15.026ZM23.0541 52.154C22.4755 52.154 21.9668 52.0607 21.5281 51.874C21.0988 51.6873 20.7395 51.426 20.4501 51.09C20.1608 50.754 19.9415 50.3527 19.7921 49.886C19.6521 49.4193 19.5821 48.9107 19.5821 48.36C19.5821 47.8187 19.6661 47.3193 19.8341 46.862C20.0021 46.3953 20.2355 45.994 20.5341 45.658C20.8421 45.322 21.2015 45.0607 21.6121 44.874C22.0321 44.6873 22.4895 44.594 22.9841 44.594C23.6281 44.594 24.1601 44.7293 24.5801 45C25.0095 45.2613 25.3501 45.5973 25.6021 46.008C25.8635 46.4187 26.0408 46.8667 26.1341 47.352C26.2368 47.8373 26.2788 48.2993 26.2601 48.738H20.8421C20.8328 49.0553 20.8701 49.3587 20.9541 49.648C21.0381 49.928 21.1735 50.18 21.3601 50.404C21.5468 50.6187 21.7848 50.7913 22.0741 50.922C22.3635 51.0527 22.7041 51.118 23.0961 51.118C23.6001 51.118 24.0108 51.0013 24.3281 50.768C24.6548 50.5347 24.8695 50.18 24.9721 49.704H26.1481C25.9895 50.5253 25.6395 51.1413 25.0981 51.552C24.5568 51.9533 23.8755 52.154 23.0541 52.154ZM25.0001 47.688C24.9815 47.408 24.9161 47.142 24.8041 46.89C24.7015 46.638 24.5568 46.4233 24.3701 46.246C24.1928 46.0593 23.9781 45.9147 23.7261 45.812C23.4835 45.7 23.2128 45.644 22.9141 45.644C22.6061 45.644 22.3261 45.7 22.0741 45.812C21.8315 45.9147 21.6215 46.0593 21.4441 46.246C21.2668 46.4327 21.1268 46.652 21.0241 46.904C20.9215 47.1467 20.8608 47.408 20.8421 47.688H25.0001ZM27.4937 44.762H28.6837V50.67L32.0997 44.762H33.6257V52H32.4357V46.092L29.0197 52H27.4937V44.762ZM30.5597 43.698C30.2797 43.698 30.0183 43.656 29.7757 43.572C29.533 43.488 29.3183 43.3667 29.1317 43.208C28.9543 43.0493 28.8097 42.858 28.6977 42.634C28.595 42.4007 28.5437 42.1347 28.5437 41.836H29.5377C29.5563 42.5267 29.8923 42.872 30.5457 42.872C30.8723 42.872 31.1197 42.7833 31.2877 42.606C31.465 42.4193 31.5537 42.1627 31.5537 41.836H32.5477C32.5477 42.116 32.4963 42.3727 32.3937 42.606C32.291 42.8393 32.151 43.0353 31.9737 43.194C31.7963 43.3527 31.5863 43.4787 31.3437 43.572C31.101 43.656 30.8397 43.698 30.5597 43.698ZM37.1733 45.812H34.5833V44.762H40.9533V45.812H38.3633V52H37.1733V45.812ZM41.9038 44.762H43.0938V50.67L46.5098 44.762H48.0358V52H46.8458V46.092L43.4298 52H41.9038V44.762ZM49.8335 44.762H51.0235V47.646H54.6915V44.762H55.8815V52H54.6915V48.668H51.0235V52H49.8335V44.762ZM57.6955 44.762H62.6515V45.812H58.8855V52H57.6955V44.762ZM70.6196 52.154C70.0409 52.154 69.5322 52.0607 69.0936 51.874C68.6642 51.678 68.3002 51.412 68.0016 51.076C67.7029 50.7307 67.4789 50.3293 67.3296 49.872C67.1802 49.4147 67.1056 48.92 67.1056 48.388C67.1056 47.856 67.1802 47.3613 67.3296 46.904C67.4789 46.4373 67.7029 46.036 68.0016 45.7C68.3002 45.3547 68.6642 45.084 69.0936 44.888C69.5322 44.692 70.0409 44.594 70.6196 44.594C71.1889 44.594 71.6929 44.692 72.1316 44.888C72.5702 45.084 72.9389 45.3547 73.2376 45.7C73.5362 46.036 73.7602 46.4373 73.9096 46.904C74.0589 47.3613 74.1336 47.856 74.1336 48.388C74.1336 48.92 74.0589 49.4147 73.9096 49.872C73.7602 50.3293 73.5362 50.7307 73.2376 51.076C72.9389 51.412 72.5702 51.678 72.1316 51.874C71.6929 52.0607 71.1889 52.154 70.6196 52.154ZM70.6196 51.118C70.9276 51.118 71.2169 51.0573 71.4876 50.936C71.7676 50.8147 72.0102 50.642 72.2156 50.418C72.4209 50.1847 72.5796 49.9 72.6916 49.564C72.8129 49.2187 72.8736 48.8267 72.8736 48.388C72.8736 47.9493 72.8129 47.562 72.6916 47.226C72.5796 46.8807 72.4209 46.5913 72.2156 46.358C72.0102 46.1247 71.7676 45.9473 71.4876 45.826C71.2169 45.7047 70.9276 45.644 70.6196 45.644C70.3116 45.644 70.0176 45.7047 69.7376 45.826C69.4669 45.9473 69.2289 46.1247 69.0236 46.358C68.8182 46.5913 68.6549 46.8807 68.5336 47.226C68.4216 47.562 68.3656 47.9493 68.3656 48.388C68.3656 48.8267 68.4216 49.2187 68.5336 49.564C68.6549 49.9 68.8182 50.1847 69.0236 50.418C69.2289 50.642 69.4669 50.8147 69.7376 50.936C70.0176 51.0573 70.3116 51.118 70.6196 51.118ZM75.5786 44.762H76.7686V45.742H76.7966C76.9926 45.3407 77.3006 45.0513 77.7206 44.874C78.1406 44.6873 78.6026 44.594 79.1066 44.594C79.6666 44.594 80.152 44.6967 80.5626 44.902C80.9826 45.1073 81.328 45.3873 81.5986 45.742C81.8786 46.0873 82.0886 46.4887 82.2286 46.946C82.3686 47.4033 82.4386 47.8887 82.4386 48.402C82.4386 48.9247 82.3686 49.4147 82.2286 49.872C82.098 50.32 81.8926 50.7167 81.6126 51.062C81.342 51.398 80.9966 51.664 80.5766 51.86C80.166 52.056 79.6853 52.154 79.1346 52.154C78.948 52.154 78.7473 52.1353 78.5326 52.098C78.318 52.0607 78.1033 52 77.8886 51.916C77.674 51.832 77.4686 51.72 77.2726 51.58C77.086 51.4307 76.9273 51.2487 76.7966 51.034H76.7686V54.758H75.5786V44.762ZM79.0086 51.118C79.41 51.118 79.7506 51.0387 80.0306 50.88C80.3106 50.7213 80.5346 50.5113 80.7026 50.25C80.8706 49.9887 80.992 49.69 81.0666 49.354C81.1413 49.018 81.1786 48.6727 81.1786 48.318C81.1786 47.982 81.132 47.6553 81.0386 47.338C80.9546 47.0113 80.8193 46.722 80.6326 46.47C80.4553 46.218 80.222 46.0173 79.9326 45.868C79.6526 45.7187 79.3213 45.644 78.9386 45.644C78.5373 45.644 78.1966 45.7233 77.9166 45.882C77.6366 46.0407 77.408 46.2507 77.2306 46.512C77.0533 46.764 76.9226 47.0533 76.8386 47.38C76.764 47.7067 76.7266 48.038 76.7266 48.374C76.7266 48.7287 76.7686 49.074 76.8526 49.41C76.9366 49.7367 77.0673 50.026 77.2446 50.278C77.4313 50.53 77.6693 50.7353 77.9586 50.894C78.248 51.0433 78.598 51.118 79.0086 51.118ZM83.8635 44.762H88.8195V45.812H85.0535V52H83.8635V44.762ZM91.771 52.154C91.4444 52.154 91.1364 52.1167 90.847 52.042C90.5577 51.9767 90.301 51.8647 90.077 51.706C89.8624 51.538 89.6897 51.328 89.559 51.076C89.4377 50.8147 89.377 50.502 89.377 50.138C89.377 49.7273 89.447 49.3913 89.587 49.13C89.727 48.8687 89.909 48.6587 90.133 48.5C90.3664 48.332 90.6277 48.206 90.917 48.122C91.2157 48.038 91.519 47.968 91.827 47.912C92.1537 47.8467 92.4617 47.8 92.751 47.772C93.0497 47.7347 93.311 47.688 93.535 47.632C93.759 47.5667 93.9364 47.478 94.067 47.366C94.1977 47.2447 94.263 47.072 94.263 46.848C94.263 46.5867 94.2117 46.3767 94.109 46.218C94.0157 46.0593 93.8897 45.938 93.731 45.854C93.5817 45.77 93.409 45.714 93.213 45.686C93.0264 45.658 92.8397 45.644 92.653 45.644C92.149 45.644 91.729 45.742 91.393 45.938C91.057 46.1247 90.875 46.484 90.847 47.016H89.657C89.6757 46.568 89.769 46.19 89.937 45.882C90.105 45.574 90.329 45.3267 90.609 45.14C90.889 44.944 91.2064 44.804 91.561 44.72C91.925 44.636 92.3124 44.594 92.723 44.594C93.0497 44.594 93.3717 44.6173 93.689 44.664C94.0157 44.7107 94.3097 44.8087 94.571 44.958C94.8324 45.098 95.0424 45.2987 95.201 45.56C95.3597 45.8213 95.439 46.162 95.439 46.582V50.306C95.439 50.586 95.453 50.7913 95.481 50.922C95.5184 51.0527 95.6304 51.118 95.817 51.118C95.901 51.118 96.0224 51.0947 96.181 51.048V51.972C95.9757 52.0933 95.691 52.154 95.327 52.154C95.019 52.154 94.7717 52.07 94.585 51.902C94.4077 51.7247 94.319 51.44 94.319 51.048C93.9924 51.44 93.6097 51.7247 93.171 51.902C92.7417 52.07 92.275 52.154 91.771 52.154ZM92.037 51.118C92.429 51.118 92.765 51.0667 93.045 50.964C93.325 50.852 93.5537 50.7167 93.731 50.558C93.9084 50.39 94.039 50.2127 94.123 50.026C94.207 49.83 94.249 49.648 94.249 49.48V48.262C94.0997 48.3833 93.9037 48.4673 93.661 48.514C93.4184 48.5607 93.1617 48.6027 92.891 48.64C92.6297 48.6773 92.3637 48.7147 92.093 48.752C91.8224 48.7893 91.5797 48.8547 91.365 48.948C91.1504 49.0413 90.973 49.1767 90.833 49.354C90.7024 49.522 90.637 49.7553 90.637 50.054C90.637 50.25 90.6744 50.418 90.749 50.558C90.833 50.6887 90.9357 50.796 91.057 50.88C91.1877 50.964 91.337 51.0247 91.505 51.062C91.673 51.0993 91.8504 51.118 92.037 51.118ZM97.2886 44.762H98.4786V47.646H102.147V44.762H103.337V52H102.147V48.668H98.4786V52H97.2886V44.762ZM105.123 44.762H106.313V50.67L109.729 44.762H111.255V52H110.065V46.092L106.649 52H105.123V44.762ZM115.712 52.154C114.751 52.154 114 51.9393 113.458 51.51C112.917 51.0807 112.623 50.4693 112.576 49.676H113.78C113.818 50.208 114.014 50.5907 114.368 50.824C114.723 51.0573 115.166 51.174 115.698 51.174C116.268 51.174 116.706 51.0527 117.014 50.81C117.322 50.5673 117.476 50.2593 117.476 49.886C117.476 49.522 117.36 49.2373 117.126 49.032C116.893 48.8267 116.496 48.724 115.936 48.724H114.97V47.758H115.74C116.16 47.758 116.52 47.674 116.818 47.506C117.117 47.3287 117.266 47.0253 117.266 46.596C117.266 46.3253 117.136 46.0873 116.874 45.882C116.622 45.6767 116.244 45.574 115.74 45.574C115.526 45.574 115.311 45.5973 115.096 45.644C114.891 45.6907 114.704 45.7653 114.536 45.868C114.368 45.9707 114.228 46.106 114.116 46.274C114.004 46.442 113.934 46.6473 113.906 46.89H112.702C112.73 46.442 112.838 46.0733 113.024 45.784C113.211 45.4853 113.444 45.252 113.724 45.084C114.004 44.9067 114.322 44.7807 114.676 44.706C115.031 44.6313 115.39 44.594 115.754 44.594C116.128 44.594 116.478 44.6313 116.804 44.706C117.131 44.7807 117.416 44.902 117.658 45.07C117.91 45.2287 118.106 45.4293 118.246 45.672C118.396 45.9147 118.47 46.204 118.47 46.54C118.47 46.96 118.349 47.3007 118.106 47.562C117.873 47.8233 117.607 47.9867 117.308 48.052V48.08C117.476 48.108 117.644 48.164 117.812 48.248C117.98 48.332 118.13 48.4487 118.26 48.598C118.391 48.738 118.498 48.9153 118.582 49.13C118.666 49.3353 118.708 49.578 118.708 49.858C118.708 50.25 118.624 50.5907 118.456 50.88C118.288 51.1693 118.064 51.4073 117.784 51.594C117.504 51.7807 117.182 51.9207 116.818 52.014C116.464 52.1073 116.095 52.154 115.712 52.154ZM122.136 52.154C121.81 52.154 121.502 52.1167 121.212 52.042C120.923 51.9767 120.666 51.8647 120.442 51.706C120.228 51.538 120.055 51.328 119.924 51.076C119.803 50.8147 119.742 50.502 119.742 50.138C119.742 49.7273 119.812 49.3913 119.952 49.13C120.092 48.8687 120.274 48.6587 120.498 48.5C120.732 48.332 120.993 48.206 121.282 48.122C121.581 48.038 121.884 47.968 122.192 47.912C122.519 47.8467 122.827 47.8 123.116 47.772C123.415 47.7347 123.676 47.688 123.9 47.632C124.124 47.5667 124.302 47.478 124.432 47.366C124.563 47.2447 124.628 47.072 124.628 46.848C124.628 46.5867 124.577 46.3767 124.474 46.218C124.381 46.0593 124.255 45.938 124.096 45.854C123.947 45.77 123.774 45.714 123.578 45.686C123.392 45.658 123.205 45.644 123.018 45.644C122.514 45.644 122.094 45.742 121.758 45.938C121.422 46.1247 121.24 46.484 121.212 47.016H120.022C120.041 46.568 120.134 46.19 120.302 45.882C120.47 45.574 120.694 45.3267 120.974 45.14C121.254 44.944 121.572 44.804 121.926 44.72C122.29 44.636 122.678 44.594 123.088 44.594C123.415 44.594 123.737 44.6173 124.054 44.664C124.381 44.7107 124.675 44.8087 124.936 44.958C125.198 45.098 125.408 45.2987 125.566 45.56C125.725 45.8213 125.804 46.162 125.804 46.582V50.306C125.804 50.586 125.818 50.7913 125.846 50.922C125.884 51.0527 125.996 51.118 126.182 51.118C126.266 51.118 126.388 51.0947 126.546 51.048V51.972C126.341 52.0933 126.056 52.154 125.692 52.154C125.384 52.154 125.137 52.07 124.95 51.902C124.773 51.7247 124.684 51.44 124.684 51.048C124.358 51.44 123.975 51.7247 123.536 51.902C123.107 52.07 122.64 52.154 122.136 52.154ZM122.402 51.118C122.794 51.118 123.13 51.0667 123.41 50.964C123.69 50.852 123.919 50.7167 124.096 50.558C124.274 50.39 124.404 50.2127 124.488 50.026C124.572 49.83 124.614 49.648 124.614 49.48V48.262C124.465 48.3833 124.269 48.4673 124.026 48.514C123.784 48.5607 123.527 48.6027 123.256 48.64C122.995 48.6773 122.729 48.7147 122.458 48.752C122.188 48.7893 121.945 48.8547 121.73 48.948C121.516 49.0413 121.338 49.1767 121.198 49.354C121.068 49.522 121.002 49.7553 121.002 50.054C121.002 50.25 121.04 50.418 121.114 50.558C121.198 50.6887 121.301 50.796 121.422 50.88C121.553 50.964 121.702 51.0247 121.87 51.062C122.038 51.0993 122.216 51.118 122.402 51.118ZM133.296 52H127.654V44.762H128.844V50.95H132.26V44.762H133.45V50.95H134.43V54.198H133.296V52ZM135.556 44.762H136.746V50.67L140.162 44.762H141.688V52H140.498V46.092L137.082 52H135.556V44.762ZM143.486 44.762H144.676V50.67L148.092 44.762H149.618V52H148.428V46.092L145.012 52H143.486V44.762ZM10.896 61.762H14.242C14.5593 61.762 14.8627 61.7853 15.152 61.832C15.4507 61.8787 15.7167 61.9673 15.95 62.098C16.1833 62.2193 16.37 62.3967 16.51 62.63C16.65 62.8633 16.72 63.162 16.72 63.526C16.72 63.918 16.6267 64.2353 16.44 64.478C16.2533 64.7207 15.992 64.9213 15.656 65.08V65.094C16.076 65.178 16.4073 65.374 16.65 65.682C16.902 65.99 17.028 66.3867 17.028 66.872C17.028 67.18 16.972 67.4647 16.86 67.726C16.7573 67.9873 16.608 68.2113 16.412 68.398C16.216 68.5847 15.9827 68.734 15.712 68.846C15.4413 68.9487 15.1473 69 14.83 69H10.896V61.762ZM14.606 67.992C14.998 67.992 15.292 67.88 15.488 67.656C15.6933 67.4227 15.796 67.1333 15.796 66.788C15.796 66.4613 15.6887 66.2 15.474 66.004C15.2593 65.808 14.9 65.71 14.396 65.71H12.072V67.992H14.606ZM14.116 64.73C14.6293 64.73 14.984 64.6367 15.18 64.45C15.3853 64.2633 15.488 64.016 15.488 63.708C15.488 63.4093 15.39 63.1807 15.194 63.022C14.998 62.854 14.6387 62.77 14.116 62.77H12.072V64.73H14.116ZM24.705 64.8C24.005 64.6973 23.431 64.3987 22.983 63.904C22.535 63.4093 22.311 62.7373 22.311 61.888C22.311 60.936 22.5864 60.2173 23.137 59.732C23.697 59.2467 24.4717 59.004 25.461 59.004H29.745V69H28.429V64.884H26.203L23.109 69H21.457L24.705 64.8ZM28.429 63.764V60.124H25.909C25.181 60.124 24.621 60.264 24.229 60.544C23.837 60.824 23.641 61.272 23.641 61.888C23.641 62.504 23.8324 62.9707 24.215 63.288C24.607 63.6053 25.1717 63.764 25.909 63.764H28.429ZM31.7456 61.762H32.9356V64.646H36.6036V61.762H37.7936V69H36.6036V65.668H32.9356V69H31.7456V61.762ZM38.7256 67.95H39.5796C39.6823 67.754 39.7849 67.488 39.8876 67.152C39.9996 66.8067 40.0976 66.4287 40.1816 66.018C40.2749 65.598 40.3496 65.1547 40.4056 64.688C40.4616 64.2213 40.4896 63.764 40.4896 63.316V61.762H45.7256V67.95H46.7056V71.198H45.5716V69H39.8596V71.198H38.7256V67.95ZM44.5356 67.95V62.812H41.6516V63.428C41.6516 63.8853 41.6236 64.3427 41.5676 64.8C41.5209 65.248 41.4556 65.6727 41.3716 66.074C41.2876 66.4753 41.1943 66.8393 41.0916 67.166C40.9983 67.4927 40.9049 67.754 40.8116 67.95H44.5356ZM50.9037 69.154C50.3251 69.154 49.8164 69.0607 49.3777 68.874C48.9484 68.6873 48.5891 68.426 48.2997 68.09C48.0104 67.754 47.7911 67.3527 47.6417 66.886C47.5017 66.4193 47.4317 65.9107 47.4317 65.36C47.4317 64.8187 47.5157 64.3193 47.6837 63.862C47.8517 63.3953 48.0851 62.994 48.3837 62.658C48.6917 62.322 49.0511 62.0607 49.4617 61.874C49.8817 61.6873 50.3391 61.594 50.8337 61.594C51.4777 61.594 52.0097 61.7293 52.4297 62C52.8591 62.2613 53.1997 62.5973 53.4517 63.008C53.7131 63.4187 53.8904 63.8667 53.9837 64.352C54.0864 64.8373 54.1284 65.2993 54.1097 65.738H48.6917C48.6824 66.0553 48.7197 66.3587 48.8037 66.648C48.8877 66.928 49.0231 67.18 49.2097 67.404C49.3964 67.6187 49.6344 67.7913 49.9237 67.922C50.2131 68.0527 50.5537 68.118 50.9457 68.118C51.4497 68.118 51.8604 68.0013 52.1777 67.768C52.5044 67.5347 52.7191 67.18 52.8217 66.704H53.9977C53.8391 67.5253 53.4891 68.1413 52.9477 68.552C52.4064 68.9533 51.7251 69.154 50.9037 69.154ZM52.8497 64.688C52.8311 64.408 52.7657 64.142 52.6537 63.89C52.5511 63.638 52.4064 63.4233 52.2197 63.246C52.0424 63.0593 51.8277 62.9147 51.5757 62.812C51.3331 62.7 51.0624 62.644 50.7637 62.644C50.4557 62.644 50.1757 62.7 49.9237 62.812C49.6811 62.9147 49.4711 63.0593 49.2937 63.246C49.1164 63.4327 48.9764 63.652 48.8737 63.904C48.7711 64.1467 48.7104 64.408 48.6917 64.688H52.8497ZM55.3433 61.762H56.5333V65.22L59.8513 61.762H61.4333L58.2273 64.898L61.8113 69H60.2853L57.2613 65.556L56.5333 66.27V69H55.3433V61.762ZM65.7084 69.154C65.1577 69.154 64.6677 69.0653 64.2384 68.888C63.8184 68.7107 63.4637 68.4587 63.1744 68.132C62.8944 67.8053 62.6797 67.418 62.5304 66.97C62.3904 66.522 62.3204 66.0227 62.3204 65.472C62.3204 64.9307 62.3904 64.4267 62.5304 63.96C62.6704 63.484 62.8804 63.0733 63.1604 62.728C63.4497 62.3733 63.8044 62.098 64.2244 61.902C64.6537 61.6967 65.1577 61.594 65.7364 61.594C66.1471 61.594 66.5297 61.6453 66.8844 61.748C67.2484 61.8413 67.5657 61.9907 67.8364 62.196C68.1164 62.4013 68.3451 62.6627 68.5224 62.98C68.6997 63.288 68.8117 63.6567 68.8584 64.086H67.6264C67.5331 63.6287 67.3371 63.274 67.0384 63.022C66.7397 62.77 66.3384 62.644 65.8344 62.644C65.4051 62.644 65.0457 62.7233 64.7564 62.882C64.4671 63.0407 64.2337 63.2507 64.0564 63.512C63.8884 63.7733 63.7671 64.0767 63.6924 64.422C63.6177 64.758 63.5804 65.108 63.5804 65.472C63.5804 65.808 63.6177 66.1347 63.6924 66.452C63.7764 66.7693 63.9024 67.054 64.0704 67.306C64.2384 67.5487 64.4531 67.7447 64.7144 67.894C64.9851 68.0433 65.3117 68.118 65.6944 68.118C66.2824 68.118 66.7397 67.964 67.0664 67.656C67.4024 67.348 67.6077 66.914 67.6824 66.354H68.9004C68.7697 67.2593 68.4384 67.9547 67.9064 68.44C67.3744 68.916 66.6417 69.154 65.7084 69.154ZM73.3119 69.154C72.7333 69.154 72.2246 69.0607 71.7859 68.874C71.3566 68.6873 70.9973 68.426 70.7079 68.09C70.4186 67.754 70.1993 67.3527 70.0499 66.886C69.9099 66.4193 69.8399 65.9107 69.8399 65.36C69.8399 64.8187 69.9239 64.3193 70.0919 63.862C70.2599 63.3953 70.4933 62.994 70.7919 62.658C71.0999 62.322 71.4593 62.0607 71.8699 61.874C72.2899 61.6873 72.7473 61.594 73.2419 61.594C73.8859 61.594 74.4179 61.7293 74.8379 62C75.2673 62.2613 75.6079 62.5973 75.8599 63.008C76.1213 63.4187 76.2986 63.8667 76.3919 64.352C76.4946 64.8373 76.5366 65.2993 76.5179 65.738H71.0999C71.0906 66.0553 71.1279 66.3587 71.2119 66.648C71.2959 66.928 71.4313 67.18 71.6179 67.404C71.8046 67.6187 72.0426 67.7913 72.3319 67.922C72.6213 68.0527 72.9619 68.118 73.3539 68.118C73.8579 68.118 74.2686 68.0013 74.5859 67.768C74.9126 67.5347 75.1273 67.18 75.2299 66.704H76.4059C76.2473 67.5253 75.8973 68.1413 75.3559 68.552C74.8146 68.9533 74.1333 69.154 73.3119 69.154ZM75.2579 64.688C75.2393 64.408 75.1739 64.142 75.0619 63.89C74.9593 63.638 74.8146 63.4233 74.6279 63.246C74.4506 63.0593 74.2359 62.9147 73.9839 62.812C73.7413 62.7 73.4706 62.644 73.1719 62.644C72.8639 62.644 72.5839 62.7 72.3319 62.812C72.0893 62.9147 71.8793 63.0593 71.7019 63.246C71.5246 63.4327 71.3846 63.652 71.2819 63.904C71.1793 64.1467 71.1186 64.408 71.0999 64.688H75.2579Z" fill="#D9D9D9"/>
<defs>
<clipPath id="clip0_2051_3118">
<rect width="20" height="20" fill="white" transform="translate(10 10)"/>
</clipPath>
<clipPath id="clip1_2051_3118">
<rect width="12" height="12" fill="white" transform="translate(90 14)"/>
</clipPath>
<clipPath id="clip2_2051_3118">
<rect width="12" height="12" fill="white" transform="translate(106 14)"/>
</clipPath>
<clipPath id="clip3_2051_3118">
<rect width="12" height="12" fill="white" transform="translate(122 14)"/>
</clipPath>
<clipPath id="clip4_2051_3118">
<rect width="12" height="12" fill="white" transform="translate(138 14)"/>
</clipPath>
<clipPath id="clip5_2051_3118">
<rect width="12" height="12" fill="white" transform="translate(154 14)"/>
</clipPath>
</defs>
</svg>
