<svg width="60" height="60" viewBox="0 0 60 60" fill="none" xmlns="http://www.w3.org/2000/svg">
<g clip-path="url(#clip0_2135_4144)">
<path d="M44.9993 18.7483C44.9993 29.4571 32.8871 35.5541 24.3006 29.4685C17.2393 24.4821 16.829 14.1045 23.5658 8.58699C32.1794 1.53902 44.9993 7.79984 44.9993 18.7483Z" fill="#E9DDD9"/>
<path d="M42.0456 10.4526C33.505 3.47495 20.625 9.56444 20.625 20.6232C20.625 23.7709 21.7324 26.6595 23.5805 28.9201C17.1569 23.6785 17.1276 13.8604 23.5664 8.58699C29.1358 4.02983 37.4201 4.78627 42.0456 10.4526Z" fill="#CDAF95"/>
<path d="M43.6638 12.9721C40.7931 14.1932 37.7516 15.0473 34.736 15.8926C31.7823 16.7206 28.5971 15.8475 26.516 13.5939C25.2153 12.1853 23.61 11.0626 21.8038 10.3307C16.7625 16.3541 17.9905 25.8095 25.224 30.0654C27.0586 31.1459 29.1417 31.7693 31.3159 31.8603C41.1256 32.3567 48.0695 21.9464 43.6638 12.9721Z" fill="#D6BCB4"/>
<path d="M26.2507 20.6233C26.2507 28.3248 17.4139 32.7655 11.246 28.1186C8.56826 26.1058 7.15205 22.8258 7.57333 19.4455C8.35345 13.2296 14.9212 9.54133 20.6151 12.0241C23.9851 13.4924 26.2507 16.8338 26.2507 20.6233Z" fill="#E9DDD9"/>
<path d="M24.3703 14.9936C22.7846 13.8059 20.8373 13.1233 18.75 13.1233C10.961 13.1233 6.68062 22.0324 11.2453 28.1186C8.9707 26.4088 7.5 23.6877 7.5 20.6233C7.5 15.4459 11.6977 11.2483 16.875 11.2483C19.8949 11.2483 22.6332 12.6824 24.3703 14.9936Z" fill="#CDAF95"/>
<path d="M26.2507 20.6233C26.2507 28.3248 17.4139 32.7655 11.246 28.1186C8.56826 26.1058 7.15205 22.8258 7.57333 19.4455C8.3749 19.2674 9.28076 19.2756 10.0354 19.1854C18.3042 18.1987 20.632 18.0072 25.4175 16.7549C25.953 17.9338 26.2507 19.244 26.2507 20.6233Z" fill="#D6BCB4"/>
<path d="M58.1247 39.3731C56.1395 40.5942 54.0419 41.6829 51.8704 42.6532L41.4103 46.3621C30.068 49.5052 17.4007 50.6231 5.62498 50.6231L1.875 20.6232C9.53175 21.3224 22.1347 20.7582 32.6529 18.3826C40.1365 16.6916 47.8544 13.9072 54.3747 9.37329L58.1247 39.3731Z" fill="#FFF9F4"/>
<path d="M58.126 39.3731C56.1409 40.5942 54.0432 41.6829 51.8717 42.6532L41.4116 46.3621C37.5 47.4461 33.5437 48.2559 29.7246 48.8606C30.3258 47.3477 30.7371 45.7411 31.1027 44.6172C35.2206 31.932 33.0047 22.3336 32.6543 18.3826C40.1378 16.6916 47.8558 13.9072 54.376 9.37329L58.126 39.3731Z" fill="#D6BCB4"/>
<path d="M6.42771 50.6219C6.14763 50.6231 5.88045 50.6231 5.62498 50.6231L1.875 20.6232C1.875 20.6232 7.49645 21.1365 15.5284 20.6935C15.7257 22.6983 13.9291 26.9819 6.42771 50.6219Z" fill="#CDAF95"/>
<path d="M54.375 47.8106C54.375 52.2376 50.0864 55.3821 45.8672 54.0801C43.1995 53.2557 41.25 50.7634 41.25 47.8106C41.25 42.8989 46.4262 39.7883 50.727 41.9301C52.8907 43.0047 54.375 45.2359 54.375 47.8106Z" fill="#E9DDD9"/>
<path d="M54.375 47.8106C54.375 52.2376 50.0864 55.3821 45.8672 54.0801L50.7269 41.9301C52.8891 43.0024 54.375 45.2325 54.375 47.8106Z" fill="#D6BCB4"/>
<path d="M53.2945 44.2047C52.2673 43.5199 51.0128 43.1231 49.6875 43.1231C44.411 43.1231 41.3736 49.0053 44.2043 53.2926C42.4242 52.1196 41.25 50.1028 41.25 47.8106C41.25 44.186 44.1879 41.2481 47.8125 41.2481C50.0809 41.2481 52.116 42.4086 53.2945 44.2047Z" fill="#CDAF95"/>
<path d="M59.9856 39.1405L56.2356 9.14071C56.0612 7.74384 54.4612 7.02959 53.3047 7.83396C50.8228 9.55989 48.152 11.0176 45.3968 12.2516C40.5484 2.1279 26.6249 0.731736 19.86 9.77164C16.0815 8.73876 11.8879 9.70086 8.92042 12.6684C8.18823 13.4006 8.18823 14.5878 8.92042 15.32C9.6526 16.0522 10.8397 16.0522 11.572 15.32C14.503 12.389 19.2472 12.3887 22.1785 15.32C22.9104 16.052 24.0977 16.0524 24.8301 15.32C25.5624 14.5878 25.5624 13.4006 24.8301 12.6684C24.3704 12.2084 23.8722 11.7886 23.341 11.4135C28.4969 5.3762 38.3049 6.47026 41.9223 13.6784C34.3783 16.5079 26.5289 17.8322 20.3705 18.4422C10.0782 19.4615 2.1244 18.763 2.04565 18.756C0.860309 18.6454 -0.134022 19.665 0.0148058 20.8558L3.76478 50.8556C3.88209 51.7939 4.67966 52.4981 5.62524 52.4981C18.2661 52.4981 29.6243 51.2602 39.4373 48.8179C39.937 52.9969 43.5011 56.2481 47.8125 56.2481C54.465 56.2481 58.4925 48.8648 54.9262 43.2822C56.3926 42.5516 57.7931 41.7784 59.1073 40.9702C59.4139 40.7817 59.6597 40.5089 59.8154 40.1845C59.9712 39.86 60.0303 39.4976 59.9856 39.1405ZM47.8127 52.4981C45.2281 52.4981 43.1253 50.3953 43.1253 47.8106C43.1253 45.2259 45.2281 43.1231 47.8127 43.1231C50.3974 43.1231 52.5002 45.2259 52.5002 47.8106C52.5002 50.3953 50.3973 52.4981 47.8127 52.4981ZM52.0397 40.5129C47.5446 37.8991 41.7705 39.9632 39.9237 44.8223C30.5209 47.316 19.5532 48.6327 7.2798 48.7408L4.01709 22.6386C19.858 23.3924 39.2205 20.8405 52.8857 12.5731L56.113 38.391C54.8292 39.1356 53.465 39.8454 52.0397 40.5129Z" fill="#756659"/>
<path d="M30.8445 22.5063L24.3818 23.6459C23.362 23.8257 22.681 24.7982 22.8608 25.818L26.1167 44.283C26.2968 45.3045 27.271 45.9837 28.2888 45.804C29.3085 45.6242 29.9895 44.6517 29.8098 43.6319L29.4841 41.7853L33.1771 41.1341C34.1969 40.9543 34.8779 39.9818 34.6981 38.962C34.5184 37.9424 33.5461 37.2611 32.526 37.4411L28.833 38.0923L28.5075 36.2458L33.1238 35.4318C36.6873 34.8035 39.0753 31.3931 38.447 27.8294C37.8184 24.2659 34.4071 21.8782 30.8445 22.5063ZM32.4725 31.7388L27.8561 32.5527L26.8794 27.0132L31.4956 26.1992C33.0231 25.9306 34.4846 26.9535 34.7539 28.4806C35.0232 30.0079 33.9998 31.4696 32.4725 31.7388Z" fill="#756659"/>
</g>
<defs>
<clipPath id="clip0_2135_4144">
<rect width="60" height="60" fill="white"/>
</clipPath>
</defs>
</svg>
