<svg width="60" height="60" viewBox="0 0 60 60" fill="none" xmlns="http://www.w3.org/2000/svg">
<g clip-path="url(#clip0_2135_4162)">
<path d="M44.4557 51.1998C30.7829 56.8303 29.7882 57.2392 29.7758 57.2455C28.7258 57.8056 27.5246 58.1244 26.2497 58.1244C17.5544 58.1244 12.1309 49.8795 8.81475 41.8789C3.1992 28.338 1.875 11.25 1.875 11.25L7.49992 14.9999L9.3749 7.50005L14.9998 11.25L16.8748 3.7501L22.4997 7.50005L26.2497 1.87512C26.2497 1.87512 26.5461 5.5571 27.4543 10.8855C28.816 18.8765 31.5535 30.5681 36.7284 39.0945L44.4557 51.1998Z" fill="#D6BCB4"/>
<path d="M44.4551 51.1998C30.7823 56.8302 29.7876 57.2392 29.7752 57.2454C28.7252 57.8056 27.5241 58.1243 26.2491 58.1243C22.505 58.1243 19.3175 56.5962 16.6094 54.0931C20.9324 51.8725 32.2103 47.8166 40.3969 44.8425L44.4551 51.1998Z" fill="#CDAF95"/>
<path d="M56.0539 46.4245L29.7843 57.2407C32.1444 55.9775 33.7499 53.4885 33.7499 50.6244C33.7499 46.4819 30.3925 43.1245 26.25 43.1245C38.9389 38.2446 33.5965 40.2993 50.6247 33.7497C57.2354 33.7497 60.5637 41.6965 56.0539 46.4245Z" fill="#FFF9F4"/>
<path d="M50.6247 31.8747C50.1272 31.8747 51.0822 31.5648 37.5476 36.7704C29.9216 23.0311 28.1365 1.94271 28.1189 1.72439C27.9767 -0.0410134 25.6751 -0.642763 24.6899 0.834951L21.98 4.89978L17.915 2.18997C16.8385 1.47209 15.3705 2.03704 15.0561 3.29527L13.8264 8.21403L10.4153 5.94004C9.3409 5.22333 7.87139 5.78453 7.55628 7.04534L6.32665 11.9641L2.91536 9.68999C1.61718 8.82445 -0.114828 9.83717 0.00599048 11.3949C0.0437243 11.8815 0.970196 23.4487 4.488 35.224C7.91768 46.7043 14.3289 59.9994 26.25 59.9994C27.7571 59.9994 29.2525 59.6334 30.581 58.9405L50.7996 50.6158C51.4594 50.3493 51.4198 50.3794 51.8166 50.1971C57.2838 47.946 57.0415 48.1059 57.4107 47.7188C63.0743 41.781 58.8333 31.8747 50.6247 31.8747ZM28.9706 55.549C28.3302 55.8122 28.2426 55.8385 28.0609 55.953C27.4832 56.15 26.8771 56.2494 26.25 56.2494C11.8346 56.2494 5.9847 29.3576 4.17148 15.0341L6.46024 16.56C7.53472 17.2767 9.00423 16.7154 9.31922 15.4547L10.5489 10.536L13.96 12.8099C15.0365 13.5279 16.5046 12.9626 16.819 11.7046L18.0486 6.78589L21.4598 9.05988C22.3212 9.63456 23.4855 9.40159 24.0599 8.53981L24.9788 7.16158C26.3864 17.2434 29.1888 29.2177 34.0149 38.1288L25.5767 41.3742C25.168 41.5315 24.8272 41.8268 24.6135 42.2089C24.3997 42.5911 24.3265 43.036 24.4064 43.4665C24.4864 43.897 24.7145 44.286 25.0512 44.5659C25.3879 44.8458 25.8119 44.9991 26.2498 44.9992C29.3514 44.9992 31.8747 47.5224 31.8747 50.6241C31.8749 52.6765 30.7645 54.5558 28.9706 55.549ZM54.9445 44.8536L35.3395 52.9258C36.2733 49.2268 34.8833 45.3036 31.7334 43.0245C50.5022 35.806 32.098 42.8842 50.9489 35.634C55.5718 35.898 57.8797 41.3438 54.9445 44.8536Z" fill="#756659"/>
<path d="M11.9468 24.2407L21.3217 20.4908C22.2831 20.1063 22.7508 19.015 22.3662 18.0535C21.9817 17.0921 20.8904 16.6248 19.929 17.0091L10.5541 20.759C9.59269 21.1435 9.12501 22.2347 9.50961 23.1962C9.89222 24.1528 10.981 24.6271 11.9468 24.2407ZM24.2412 25.5534C23.8567 24.5922 22.7653 24.1243 21.8039 24.509L12.4291 28.2589C11.4677 28.6434 11 29.7346 11.3846 30.6961C11.6778 31.4292 12.382 31.8753 13.126 31.8753C13.633 31.8753 13.0164 32.0629 23.1967 27.9908C24.1581 27.6062 24.6258 26.5149 24.2412 25.5534ZM41.25 28.1247C42.2856 28.1247 43.125 27.2853 43.125 26.2497V24.3748H46.8749C47.9105 24.3748 48.7499 23.5354 48.7499 22.4998C48.7499 21.4642 47.9105 20.6248 46.8749 20.6248H43.125V18.7499H47.8124C51.431 18.7499 54.3748 15.806 54.3748 12.1874C54.3748 8.56886 51.431 5.62503 47.8124 5.62503H41.25C40.2144 5.62503 39.375 6.46443 39.375 7.5V26.2497C39.375 27.2853 40.2144 28.1247 41.25 28.1247ZM43.125 9.37498H47.8124C49.3631 9.37498 50.6249 10.6367 50.6249 12.1874C50.6249 13.7382 49.3631 14.9999 47.8124 14.9999H43.125V9.37498Z" fill="#756659"/>
</g>
<defs>
<clipPath id="clip0_2135_4162">
<rect width="60" height="60" fill="white"/>
</clipPath>
</defs>
</svg>
