<svg width="60" height="60" viewBox="0 0 60 60" fill="none" xmlns="http://www.w3.org/2000/svg">
<g clip-path="url(#clip0_2135_4171)">
<path d="M52.9688 2.8125H27.8906C26.7717 2.8125 25.6987 3.25697 24.9075 4.04814C24.1164 4.83931 23.6719 5.91237 23.6719 7.03125V27.5391H6.5625C5.56794 27.5391 4.61411 27.9342 3.91085 28.6374C3.20759 29.3407 2.8125 30.2945 2.8125 31.2891V53.4375C2.8125 54.4321 3.20759 55.3859 3.91085 56.0891C4.61411 56.7924 5.56794 57.1875 6.5625 57.1875H52.9688C54.0876 57.1875 55.1607 56.743 55.9519 55.9519C56.743 55.1607 57.1875 54.0876 57.1875 52.9688V7.03125C57.1875 5.91237 56.743 4.83931 55.9519 4.04814C55.1607 3.25697 54.0876 2.8125 52.9688 2.8125ZM50.8594 28.7109C50.8594 29.4569 50.5631 30.1722 50.0356 30.6997C49.5082 31.2271 48.7928 31.5234 48.0469 31.5234H43.7555V31.2891C43.7555 30.2945 43.3604 29.3407 42.6571 28.6374C41.9539 27.9342 41 27.5391 40.0055 27.5391H30V18.75C30 18.0041 30.2963 17.2887 30.8238 16.7613C31.3512 16.2338 32.0666 15.9375 32.8125 15.9375H48.0469C48.7928 15.9375 49.5082 16.2338 50.0356 16.7613C50.5631 17.2887 50.8594 18.0041 50.8594 18.75V28.7109Z" fill="#D6BCB4"/>
<path d="M43.7555 53.4375C43.7555 54.4321 43.3604 55.3859 42.6571 56.0891C41.9539 56.7924 41 57.1875 40.0055 57.1875H6.5625C5.56794 57.1875 4.61411 56.7924 3.91085 56.0891C3.20759 55.3859 2.8125 54.4321 2.8125 53.4375V31.2891C2.8125 30.2945 3.20759 29.3407 3.91085 28.6374C4.61411 27.9342 5.56794 27.5391 6.5625 27.5391H40.0055C41 27.5391 41.9539 27.9342 42.6571 28.6374C43.3604 29.3407 43.7555 30.2945 43.7555 31.2891V53.4375Z" fill="#CDAF95"/>
<path d="M35.584 27.5391C33.5941 43.2316 20.8336 54.2578 2.8125 52.3828V31.2891C2.8125 30.2945 3.20759 29.3407 3.91085 28.6374C4.61411 27.9342 5.56794 27.5391 6.5625 27.5391H35.584Z" fill="#FFF9F4"/>
<path d="M50.8594 18.75V28.7109C50.8594 29.4569 50.5631 30.1722 50.0356 30.6997C49.5082 31.2271 48.7928 31.5234 48.0469 31.5234H43.7555V31.2891C43.7555 30.2945 43.3604 29.3407 42.6571 28.6374C41.9539 27.9342 41 27.5391 40.0055 27.5391H30V18.75C30 18.0041 30.2963 17.2887 30.8238 16.7613C31.3512 16.2338 32.0666 15.9375 32.8125 15.9375H48.0469C48.7928 15.9375 49.5082 16.2338 50.0356 16.7613C50.5631 17.2887 50.8594 18.0041 50.8594 18.75Z" fill="#FFF9F4"/>
<path d="M48.0586 19.4531H36.1383C35.3924 19.4531 34.677 19.7494 34.1495 20.2769C33.6221 20.8043 33.3258 21.5197 33.3258 22.2656V27.5391H30V18.75C30 18.0041 30.2963 17.2887 30.8238 16.7613C31.3512 16.2338 32.0666 15.9375 32.8125 15.9375H48.0469C50.4715 15.9375 50.3449 19.4531 48.0586 19.4531Z" fill="#E8F3FF"/>
<path d="M15.009 34.4145H11.5625C10.527 34.4145 9.6875 35.2539 9.6875 36.2895V39.7359C9.6875 40.7715 10.527 41.6109 11.5625 41.6109H15.009C16.0445 41.6109 16.884 40.7715 16.884 39.7359V36.2895C16.884 35.2539 16.0445 34.4145 15.009 34.4145Z" fill="#E8F3FF"/>
<path d="M53.0285 6.55078C49.6875 6.54141 43.2832 6.5625 30.7031 6.5625C29.5842 6.5625 28.5112 7.00697 27.72 7.79814C26.9288 8.58931 26.4844 9.66237 26.4844 10.7812V27.5391H23.6719V7.03125C23.6719 5.91237 24.1163 4.83931 24.9075 4.04814C25.6987 3.25697 26.7717 2.8125 27.8906 2.8125H53.1551C55.5691 2.92148 55.4449 6.5625 53.0285 6.55078Z" fill="#FFF9F4"/>
<path d="M40.0055 25.6641H6.5625C5.07113 25.6656 3.64129 26.2587 2.58674 27.3133C1.53218 28.3679 0.939051 29.7977 0.9375 31.2891V53.4375C0.939051 54.9289 1.53218 56.3587 2.58674 57.4133C3.64129 58.4678 5.07113 59.0609 6.5625 59.0625H40.0055C41.4968 59.0609 42.9267 58.4678 43.9812 57.4133C45.0358 56.3587 45.6289 54.9289 45.6305 53.4375V31.2891C45.6289 29.7977 45.0358 28.3679 43.9812 27.3133C42.9267 26.2587 41.4968 25.6656 40.0055 25.6641ZM41.8805 53.4375C41.8805 53.9348 41.6829 54.4117 41.3313 54.7633C40.9797 55.115 40.5028 55.3125 40.0055 55.3125H6.5625C6.06522 55.3125 5.58831 55.115 5.23667 54.7633C4.88504 54.4117 4.6875 53.9348 4.6875 53.4375V31.2891C4.6875 30.7918 4.88504 30.3149 5.23667 29.9632C5.58831 29.6116 6.06522 29.4141 6.5625 29.4141H40.0055C40.5028 29.4141 40.9797 29.6116 41.3313 29.9632C41.6829 30.3149 41.8805 30.7918 41.8805 31.2891V53.4375ZM32.8395 51.6398C32.5049 51.9127 32.0864 52.0617 31.6547 52.0617C29.9039 52.0617 29.1 49.8504 30.4688 48.7348C31.4082 47.9691 32.1645 47.003 32.6823 45.9073C33.2001 44.8115 33.4662 43.6139 33.4613 42.4019C33.4563 41.19 33.1804 39.9946 32.6537 38.9031C32.127 37.8116 31.3628 36.8517 30.4172 36.0938C30.2248 35.9399 30.0646 35.7496 29.9458 35.5338C29.827 35.318 29.7518 35.0809 29.7246 34.8361C29.6697 34.3416 29.8134 33.8455 30.1242 33.457C30.435 33.0685 30.8874 32.8194 31.3819 32.7645C31.6267 32.7373 31.8745 32.7585 32.1112 32.8271C32.3478 32.8957 32.5686 33.0102 32.7609 33.1641C38.6566 37.8984 38.6965 46.8621 32.8395 51.6398ZM29.6941 46.4508C29.3425 46.802 28.8658 46.9993 28.3687 46.9992C26.7129 46.9992 25.8574 44.9836 27.0422 43.7988C27.4064 43.4343 27.6109 42.9401 27.6109 42.4248C27.6109 41.9095 27.4064 41.4153 27.0422 41.0508C26.6991 40.6974 26.5089 40.2232 26.5126 39.7307C26.5163 39.2381 26.7137 38.7668 27.062 38.4187C27.4104 38.0705 27.8817 37.8733 28.3742 37.8698C28.8668 37.8663 29.3409 38.0568 29.6941 38.4C30.7603 39.4684 31.359 40.9161 31.359 42.4254C31.359 43.9347 30.7603 45.3824 29.6941 46.4508ZM59.0625 7.03125V52.9688C59.0606 54.5843 58.418 56.1332 57.2756 57.2756C56.1332 58.418 54.5843 59.0606 52.9688 59.0625C52.4715 59.0625 51.9946 58.865 51.6429 58.5133C51.2913 58.1617 51.0938 57.6848 51.0938 57.1875C51.0938 56.6902 51.2913 56.2133 51.6429 55.8617C51.9946 55.51 52.4715 55.3125 52.9688 55.3125C53.5904 55.3125 54.1865 55.0656 54.626 54.626C55.0656 54.1865 55.3125 53.5904 55.3125 52.9688V7.03125C55.3125 6.40965 55.0656 5.81351 54.626 5.37397C54.1865 4.93443 53.5904 4.6875 52.9688 4.6875H27.8906C27.269 4.6875 26.6729 4.93443 26.2333 5.37397C25.7938 5.81351 25.5469 6.40965 25.5469 7.03125V18.75C25.5469 19.2473 25.3493 19.7242 24.9977 20.0758C24.6461 20.4275 24.1692 20.625 23.6719 20.625C23.1746 20.625 22.6977 20.4275 22.3461 20.0758C21.9944 19.7242 21.7969 19.2473 21.7969 18.75V7.03125C21.7987 5.41566 22.4414 3.86677 23.5837 2.72437C24.7261 1.58198 26.275 0.939361 27.8906 0.9375H52.9688C54.5843 0.939361 56.1332 1.58198 57.2756 2.72437C58.418 3.86677 59.0606 5.41566 59.0625 7.03125ZM16.8844 32.5395H9.68789C9.19061 32.5395 8.7137 32.737 8.36207 33.0886C8.01043 33.4403 7.81289 33.9172 7.81289 34.4145V41.6109C7.81289 42.1082 8.01043 42.5851 8.36207 42.9368C8.7137 43.2884 9.19061 43.4859 9.68789 43.4859H16.8844C17.3817 43.4859 17.8586 43.2884 18.2102 42.9368C18.5618 42.5851 18.7594 42.1082 18.7594 41.6109V34.4145C18.7594 33.9172 18.5618 33.4403 18.2102 33.0886C17.8586 32.737 17.3817 32.5395 16.8844 32.5395ZM15.0094 39.7359H11.5629V36.2895H15.0094V39.7359ZM31.9922 11.25C31.4949 11.25 31.018 11.0525 30.6664 10.7008C30.3147 10.3492 30.1172 9.87228 30.1172 9.375C30.1172 8.87772 30.3147 8.40081 30.6664 8.04918C31.018 7.69754 31.4949 7.5 31.9922 7.5H48.8672C49.3645 7.5 49.8414 7.69754 50.193 8.04918C50.5446 8.40081 50.7422 8.87772 50.7422 9.375C50.7422 9.87228 50.5446 10.3492 50.193 10.7008C49.8414 11.0525 49.3645 11.25 48.8672 11.25H31.9922ZM50.8594 33.3984C50.3621 33.3984 49.8852 33.2009 49.5335 32.8493C49.1819 32.4976 48.9844 32.0207 48.9844 31.5234V18.75C48.9844 18.5014 48.8856 18.2629 48.7098 18.0871C48.534 17.9113 48.2955 17.8125 48.0469 17.8125H32.8125C32.5639 17.8125 32.3254 17.9113 32.1496 18.0871C31.9738 18.2629 31.875 18.5014 31.875 18.75V21.6211C31.875 22.1184 31.6775 22.5953 31.3258 22.9469C30.9742 23.2985 30.4973 23.4961 30 23.4961C29.5027 23.4961 29.0258 23.2985 28.6742 22.9469C28.3225 22.5953 28.125 22.1184 28.125 21.6211V18.75C28.125 17.5068 28.6189 16.3145 29.4979 15.4354C30.377 14.5564 31.5693 14.0625 32.8125 14.0625H48.0469C49.2901 14.0625 50.4824 14.5564 51.3614 15.4354C52.2405 16.3145 52.7344 17.5068 52.7344 18.75V31.5234C52.7344 32.0207 52.5368 32.4976 52.1852 32.8493C51.8336 33.2009 51.3567 33.3984 50.8594 33.3984Z" fill="#756659"/>
</g>
<defs>
<clipPath id="clip0_2135_4171">
<rect width="60" height="60" fill="white"/>
</clipPath>
</defs>
</svg>
