<svg width="60" height="60" viewBox="0 0 60 60" fill="none" xmlns="http://www.w3.org/2000/svg">
<g clip-path="url(#clip0_2248_12917)">
<path d="M15.203 36.5343C10.0337 36.5343 5.82812 40.7398 5.82812 45.9092V54.2155C5.82812 57.4052 8.42308 60.0001 11.6127 60.0001H18.7934C21.9829 60.0001 24.5778 57.4052 24.5778 54.2155V45.9092C24.5777 40.7398 20.3723 36.5343 15.203 36.5343ZM45.0717 36.5343C39.9026 36.5343 35.697 40.7398 35.697 45.9092V54.2155C35.697 57.4052 38.2919 60.0001 41.4815 60.0001H48.6621C51.8517 60.0001 54.4467 57.4052 54.4467 54.2155V45.9092C54.4466 40.7398 50.241 36.5343 45.0717 36.5343Z" fill="#CDAF95"/>
<path d="M15.2044 24.351C10.7935 24.351 7.20508 27.9394 7.20508 32.3503C7.20508 36.7611 10.7935 40.3495 15.2044 40.3495C19.6152 40.3495 23.2037 36.7611 23.2037 32.3503C23.2037 27.9394 19.6153 24.351 15.2044 24.351ZM45.0732 24.351C40.6624 24.351 37.0739 27.9394 37.0739 32.3503C37.0739 36.7611 40.6624 40.3495 45.0732 40.3495C49.484 40.3495 53.0725 36.7611 53.0725 32.3503C53.0725 27.9394 49.484 24.351 45.0732 24.351ZM30.1388 36.5343C24.9695 36.5343 20.7639 40.7398 20.7639 45.9092V54.2155C20.7639 57.4052 23.3589 60.0001 26.5485 60.0001H33.7292C36.9188 60.0001 39.5138 57.4052 39.5138 54.2155V45.9092C39.5137 40.7398 35.3082 36.5343 30.1388 36.5343Z" fill="#FFF9F4"/>
<path d="M30.1379 40.3495C34.5558 40.3495 38.1371 36.7682 38.1371 32.3503C38.1371 27.9325 34.5558 24.3511 30.1379 24.3511C25.72 24.3511 22.1387 27.9325 22.1387 32.3503C22.1387 36.7682 25.72 40.3495 30.1379 40.3495Z" fill="#CDAF95"/>
<path d="M33.7288 60C36.9184 60 39.5134 57.4051 39.5134 54.2154V48.1398C33.5861 50.1471 26.56 49.536 20.7637 48.3184V54.2155C20.7637 57.4052 23.3586 60.0001 26.5483 60.0001H33.7288V60Z" fill="#FFF9F4"/>
<path d="M50.4682 38.2498C55.8336 33.3384 52.3538 24.351 45.0724 24.351C41.6707 24.351 38.7599 26.4864 37.6053 29.4864C36.4507 26.4863 33.5399 24.351 30.1381 24.351C26.7362 24.351 23.8254 26.4864 22.6708 29.4864C21.5162 26.4863 18.6054 24.351 15.2037 24.351C7.92494 24.351 4.44116 33.3372 9.80788 38.2498C7.40345 39.9488 5.82883 42.7476 5.82883 45.909V54.2154C5.82883 57.405 8.42379 60 11.6134 60H18.7941C20.2841 60 21.6443 59.4334 22.6709 58.5045C23.6976 59.4334 25.0577 60 26.5479 60H33.7286C35.2188 60 36.5789 59.4334 37.6055 58.5045C38.6321 59.4334 39.9922 60 41.4824 60H48.663C51.8527 60 54.4476 57.405 54.4476 54.2154V45.9092C54.4473 42.7476 52.8727 39.9488 50.4682 38.2498ZM45.0724 28.1662C47.3796 28.1662 49.2565 30.0432 49.2565 32.3503C49.2565 34.6574 47.3796 36.5343 45.0724 36.5343C42.7653 36.5343 40.8884 34.6574 40.8884 32.3503C40.8884 30.0432 42.7653 28.1662 45.0724 28.1662ZM37.6053 35.2141C38.0517 36.3726 38.7608 37.4117 39.6767 38.2498C38.8882 38.8066 38.1896 39.4808 37.6053 40.2491C37.021 39.4808 36.3224 38.8066 35.5339 38.2498C36.4498 37.4117 37.1589 36.3726 37.6053 35.2141ZM30.1381 28.1662C32.4452 28.1662 34.3222 30.0432 34.3222 32.3503C34.3222 34.6574 32.4452 36.5343 30.1381 36.5343C27.8309 36.5343 25.9539 34.6574 25.9539 32.3503C25.9539 30.0432 27.831 28.1662 30.1381 28.1662ZM22.6708 35.2141C23.1172 36.3726 23.8263 37.4117 24.7422 38.2498C23.9537 38.8066 23.2551 39.4808 22.6708 40.2491C22.0865 39.4808 21.3879 38.8066 20.5994 38.2498C21.5154 37.4118 22.2244 36.3726 22.6708 35.2141ZM11.0197 32.3503C11.0197 30.0432 12.8967 28.1662 15.2038 28.1662C17.511 28.1662 19.3878 30.0432 19.3878 32.3503C19.3878 34.6574 17.511 36.5343 15.2038 36.5343C12.8967 36.5343 11.0197 34.6574 11.0197 32.3503ZM18.7941 56.1848H11.6134C10.5276 56.1848 9.64406 55.3013 9.64406 54.2154V45.9092C9.64406 42.8436 12.1382 40.3495 15.2037 40.3495C18.2692 40.3495 20.7632 42.8436 20.7632 45.9092V54.2155C20.7632 55.3013 19.8799 56.1848 18.7941 56.1848ZM33.7283 56.1848H26.5477C25.4619 56.1848 24.5783 55.3013 24.5783 54.2154V45.9092C24.5783 42.8436 27.0724 40.3495 30.1379 40.3495C33.2035 40.3495 35.6976 42.8436 35.6976 45.9092V54.2155C35.6977 55.3013 34.8142 56.1848 33.7283 56.1848ZM50.6321 54.2155C50.6321 55.3013 49.7486 56.1849 48.6627 56.1849H41.4821C40.3963 56.1849 39.5128 55.3014 39.5128 54.2155V45.9092C39.5128 42.8436 42.0068 40.3495 45.0723 40.3495C48.1378 40.3495 50.6319 42.8436 50.6319 45.9092L50.6321 54.2155ZM6.48732 10.7367C7.12231 10.7367 7.39785 10.504 8.82844 9.71918L9.38594 10.2323C10.1609 10.9457 11.3678 10.8959 12.0813 10.1205C12.7947 9.34529 12.7447 8.13848 11.9694 7.42516L10.4039 5.98407C10.1101 5.71363 9.73886 5.54221 9.34248 5.49398C8.9461 5.44575 8.54458 5.52313 8.19451 5.71522L5.56797 7.15618C3.84253 8.10284 4.51937 10.7367 6.48732 10.7367ZM29.6794 14.3485C30.7019 14.602 31.7364 13.9783 31.9898 12.9556L32.7038 10.0734C32.9572 9.0508 32.3336 8.0164 31.3109 7.76304C30.2883 7.50981 29.2539 8.13312 29.0005 9.15596L28.2865 12.0381C28.0331 13.0607 28.6567 14.0951 29.6794 14.3485ZM17.491 18.99C18.795 18.99 19.725 17.6964 19.2918 16.4552C19.352 15.9423 20.0676 14.6357 20.8211 13.679C21.4733 12.853 21.3335 11.6546 20.5081 11.0011C19.6819 10.3471 18.4824 10.4868 17.8282 11.3126C14.2587 15.8218 15.3167 18.99 17.491 18.99ZM39.8137 10.4564L40.8535 11.0917L40.5817 11.8619C40.4776 12.1567 40.4476 12.4724 40.4943 12.7815C40.5409 13.0906 40.6628 13.3834 40.8492 13.6343L42.5522 15.9269C43.1802 16.7725 44.3754 16.949 45.2211 16.3207C46.0669 15.6924 46.2431 14.4975 45.6149 13.6519L44.5173 12.1743L44.9655 10.9046C45.1109 10.4925 45.1104 10.0428 44.9641 9.63095C44.8177 9.21908 44.5344 8.86995 44.1614 8.64198L41.8035 7.20089C40.9044 6.65138 39.7304 6.93502 39.181 7.83386C38.6314 8.73283 38.9146 9.90696 39.8137 10.4564ZM55.9679 2.42017C55.033 1.93385 53.8813 2.29784 53.3954 3.23245L51.6923 6.50759C51.0288 7.78343 51.9658 9.29569 53.3832 9.29569C54.0722 9.29569 54.7374 8.92132 55.0773 8.26784L56.7803 4.99271C57.2663 4.05798 56.9026 2.90613 55.9679 2.42017ZM22.0749 3.81523H23.385C24.4386 3.81523 25.2926 2.96122 25.2926 1.90762C25.2926 0.854016 24.4386 0 23.385 0H22.0749C21.0213 0 20.1673 0.854016 20.1673 1.90762C20.1673 2.96122 21.0213 3.81523 22.0749 3.81523ZM34.1241 23.1401C37.5103 23.8589 37.3348 23.837 37.6072 23.837C38.4889 23.837 39.2809 23.2221 39.4714 22.3251C39.6902 21.2945 39.0321 20.2816 38.0015 20.0629L34.9164 19.408C33.8857 19.1895 32.873 19.8474 32.6542 20.8779C32.4354 21.9084 33.0934 22.9213 34.1241 23.1401ZM54.566 17.9186C53.7386 17.2662 52.5392 17.4079 51.8868 18.2351L51.0417 19.3066C50.0489 20.5656 50.9654 22.3956 52.5384 22.3956C53.1024 22.3956 53.6611 22.1465 54.0375 21.6692L54.8826 20.5977C55.535 19.7705 55.3932 18.5711 54.566 17.9186ZM7.32524 19.1541L6.27724 18.0826C5.54031 17.3294 4.33255 17.316 3.57963 18.0527C2.82648 18.7894 2.81301 19.9972 3.54971 20.7503C4.54071 21.7636 4.95944 22.3956 5.96153 22.3956C7.6357 22.3956 8.50963 20.3651 7.32524 19.1541Z" fill="#756659"/>
</g>
<defs>
<clipPath id="clip0_2248_12917">
<rect width="60" height="60" fill="white"/>
</clipPath>
</defs>
</svg>
