<svg width="60" height="60" viewBox="0 0 60 60" fill="none" xmlns="http://www.w3.org/2000/svg">
<g clip-path="url(#clip0_2638_5750)">
<path d="M37.5 5.625V54.375C37.5 56.4457 35.8207 58.125 33.75 58.125H5.625C3.5543 58.125 1.875 56.4457 1.875 54.375V5.625C1.875 3.5543 3.5543 1.875 5.625 1.875H33.75C35.8207 1.875 37.5 3.5543 37.5 5.625Z" fill="#FFF9F4"/>
<path d="M37.5 5.625V54.375H9.375C7.3043 54.375 5.625 52.6957 5.625 50.625V1.875H33.75C35.8207 1.875 37.5 3.5543 37.5 5.625Z" fill="#CDAF95"/>
<path d="M58.125 20.625V36.5625C58.125 40.1797 55.1943 43.125 51.5625 43.125H36.5625L25.3125 49.6875V43.125H23.4375C19.8129 43.125 16.875 40.1871 16.875 36.5625V20.625C16.875 16.9961 19.818 14.0625 23.4375 14.0625H51.5625C55.1871 14.0625 58.125 17.0004 58.125 20.625Z" fill="#FFF9F4"/>
<path d="M58.125 20.625V36.5625C58.125 37.5152 57.9223 38.4199 57.5566 39.2367H23.4375C21.8842 39.2367 20.625 37.9775 20.625 36.4242V14.6941C21.4781 14.2887 22.4309 14.0625 23.4375 14.0625H51.5625C55.1869 14.0625 58.125 17.0006 58.125 20.625Z" fill="#D6BCB4"/>
<path d="M51.5625 12.1875H39.375V5.625C39.375 2.5234 36.8517 0 33.75 0H5.625C2.52328 0 0 2.5234 0 5.625V54.375C0 57.4766 2.52328 60 5.625 60H33.75C36.8517 60 39.375 57.4766 39.375 54.375V45H51.5625C56.215 45 60 41.215 60 36.5625V20.625C60 15.9725 56.215 12.1875 51.5625 12.1875ZM33.75 56.25H5.625C4.59117 56.25 3.75 55.4088 3.75 54.375V5.625C3.75 4.59117 4.59117 3.75 5.625 3.75H9.89859L10.4087 5.28047C10.5332 5.6538 10.7719 5.97851 11.0912 6.2086C11.4104 6.43869 11.794 6.5625 12.1875 6.5625H27.1875C27.581 6.5625 27.9646 6.43869 28.2838 6.2086C28.6031 5.97851 28.8418 5.6538 28.9663 5.28047L29.4764 3.75H33.75C34.7838 3.75 35.625 4.59117 35.625 5.625V12.1875H23.4375C18.785 12.1875 15 15.9725 15 20.625V36.5625C15 41.215 18.785 45 23.4375 45V49.6875C23.4375 50.721 24.2764 51.5625 25.3125 51.5625C26.0353 51.5625 25.5598 51.7139 35.625 45.8426V54.375C35.625 55.4088 34.7838 56.25 33.75 56.25ZM56.25 36.5625C56.25 39.1472 54.1472 41.25 51.5625 41.25H36.5625C35.8404 41.25 36.2122 41.1587 27.1875 46.4231V43.125C27.1875 42.0895 26.3481 41.25 25.3125 41.25H23.4375C20.8528 41.25 18.75 39.1472 18.75 36.5625V20.625C18.75 18.0403 20.8528 15.9375 23.4375 15.9375H51.5625C54.1472 15.9375 56.25 18.0403 56.25 20.625V36.5625Z" fill="#756659"/>
<path d="M49.6875 19.6875H25.3125C24.2769 19.6875 23.4375 20.527 23.4375 21.5625C23.4375 22.598 24.2769 23.4375 25.3125 23.4375H49.6875C50.7231 23.4375 51.5625 22.598 51.5625 21.5625C51.5625 20.527 50.7231 19.6875 49.6875 19.6875ZM49.6875 27.1875H25.3125C24.2769 27.1875 23.4375 28.027 23.4375 29.0625C23.4375 30.098 24.2769 30.9375 25.3125 30.9375H49.6875C50.7231 30.9375 51.5625 30.098 51.5625 29.0625C51.5625 28.027 50.7231 27.1875 49.6875 27.1875ZM49.6875 34.6875H25.3125C24.2769 34.6875 23.4375 35.527 23.4375 36.5625C23.4375 37.598 24.2769 38.4375 25.3125 38.4375H49.6875C50.7231 38.4375 51.5625 37.598 51.5625 36.5625C51.5625 35.527 50.7231 34.6875 49.6875 34.6875Z" fill="#756659"/>
</g>
<defs>
<clipPath id="clip0_2638_5750">
<rect width="60" height="60" fill="white"/>
</clipPath>
</defs>
</svg>
