<svg width="60" height="60" viewBox="0 0 60 60" fill="none" xmlns="http://www.w3.org/2000/svg">
<g clip-path="url(#clip0_2638_5793)">
<path d="M56.8651 32.9036L56.2251 33.5424C54.0862 35.6813 51.4936 37.0907 48.7559 37.7682C50.2113 40.1829 51.0496 43.0126 51.0496 46.0383V46.9432C51.0496 49.2104 49.2108 51.0493 46.9436 51.0493H46.0387C43.013 51.0493 40.1833 50.2109 37.7685 48.7555C37.0911 51.4933 35.6816 54.0859 33.5427 56.2248L32.904 56.8647C31.2998 58.4677 28.7011 58.4677 27.097 56.8647L26.4582 56.2248C24.3193 54.0859 22.9099 51.4933 22.2324 48.7555C19.8176 50.2109 16.9879 51.0493 13.9623 51.0493H13.0573C10.7902 51.0493 8.95129 49.2104 8.95129 46.9432V46.0383C8.95129 43.0126 9.78968 40.1829 11.2451 37.7682C8.5073 37.0907 5.91472 35.6813 3.7758 33.5424L3.13582 32.9036C1.53285 31.2994 1.53285 28.7008 3.13582 27.0966L3.7758 26.4578C5.91472 24.3189 8.5073 22.9095 11.2451 22.232C9.78968 19.8173 8.95129 16.9876 8.95129 13.9619V13.057C8.95129 10.7898 10.7902 8.95093 13.0573 8.95093H13.9623C16.9879 8.95093 19.8176 9.78931 22.2324 11.2447C22.9099 8.50694 24.3193 5.91435 26.4582 3.77544L27.097 3.13546C28.7011 1.53248 31.2998 1.53248 32.904 3.13546L33.5427 3.77544C35.6816 5.91435 37.0911 8.50694 37.7685 11.2447C40.1833 9.78931 43.013 8.95093 46.0387 8.95093H46.9436C49.2108 8.95093 51.0496 10.7898 51.0496 13.057V13.9619C51.0496 16.9876 50.2113 19.8173 48.7559 22.232C51.4936 22.9095 54.0862 24.3189 56.2251 26.4578L56.8651 27.0966C58.4681 28.7008 58.4681 31.2994 56.8651 32.9036Z" fill="#D6BCB4"/>
<path d="M22.2323 11.2447C22.1258 11.6766 22.0363 12.1121 21.9673 12.5501C19.1661 11.57 16.9864 11.6524 15.7587 11.6524C13.4915 11.6524 11.6526 13.4913 11.6526 15.7584C11.6526 16.9787 11.5678 19.1589 12.5503 21.9671C12.1124 22.036 11.6768 22.1256 11.2449 22.232C9.78956 19.8173 8.95117 16.9876 8.95117 13.9619V13.057C8.95117 10.7898 10.7901 8.95093 13.0572 8.95093H13.9621C16.9878 8.95093 19.8175 9.78931 22.2323 11.2447Z" fill="#CDAF95"/>
<path d="M56.8651 32.9036L56.2251 33.5424C50.23 39.5375 40.6783 39.7916 34.3811 34.3239C34.363 34.3433 34.3436 34.3626 34.3243 34.3808C39.7922 40.6781 39.5377 50.2298 33.5427 56.2248L32.904 56.8647C31.2998 58.4677 28.7011 58.4677 27.097 56.8647L26.4582 56.2248C20.4631 50.2296 20.209 40.678 25.6767 34.3808C25.6573 34.3626 25.638 34.3433 25.6198 34.3239C19.3225 39.7918 9.77081 39.5374 3.7758 33.5424L3.13582 32.9036C1.53285 31.2994 1.53285 28.7008 3.13582 27.0966L3.7758 26.4578C9.77093 20.4627 19.3226 20.2086 25.6198 25.6763C25.638 25.6569 25.6573 25.6376 25.6767 25.6194C20.2084 19.3216 20.4637 9.76996 26.4582 3.77544L27.097 3.13546C28.7011 1.53248 31.2998 1.53248 32.904 3.13546L33.5427 3.77544C39.5379 9.77056 39.7919 19.3222 34.3243 25.6194C34.3436 25.6376 34.363 25.6569 34.3811 25.6763C40.6785 20.2084 50.2301 20.4628 56.2251 26.4578L56.8651 27.0966C58.4681 28.7008 58.4681 31.2994 56.8651 32.9036Z" fill="#CDAF95"/>
<path d="M34.3249 34.3808C30.4416 38.2134 23.8457 35.4429 23.8457 30.0002C23.8457 24.5613 30.437 21.7823 34.3249 25.6195C36.7552 27.8979 36.7582 32.0995 34.3249 34.3808Z" fill="#CDAF95"/>
<path d="M32.5182 24.3822C33.7388 24.9249 33.4829 26.7415 32.1595 26.9251C29.2407 27.3297 27.2805 29.6299 26.9235 32.1583C26.735 33.4933 24.9098 33.7231 24.3702 32.4876C22.0633 27.2045 27.4577 22.1322 32.5182 24.3822ZM32.5453 5.29627C31.5023 5.76627 30.8299 6.54647 30.304 7.07333C27.0714 10.3075 25.2215 14.4558 24.8262 18.7424C24.6886 20.2336 22.5663 20.3688 22.213 18.9136C20.9368 13.6565 22.352 7.88026 26.457 3.77532L27.0958 3.13534C28.6999 1.53236 31.2986 1.53236 32.9028 3.13534C33.6031 3.83726 33.3573 4.93031 32.5453 5.29627ZM16.7811 21.8459C18.2009 21.9932 18.211 24.0407 16.794 24.2135C13.2409 24.6471 9.80057 26.2275 7.07479 28.9547C6.37287 29.654 5.35822 30.4866 5.18691 32.1841C5.08504 33.1933 3.87634 33.6448 3.15881 32.9278C1.49075 31.2606 1.56273 28.6693 3.13438 27.0964L3.77436 26.4576C7.32957 22.9026 12.1401 21.3644 16.7811 21.8459Z" fill="#E8F3FF"/>
<path d="M58.2333 25.728C57.2469 24.7416 55.2111 22.5536 51.5147 21.0876C52.7548 18.2144 52.9847 15.925 52.9847 13.0568C52.9847 9.72555 50.2745 7.01525 46.9431 7.01525C45.5543 7.01525 42.5668 6.90782 38.9124 8.48527C37.7354 5.51765 36.2421 3.73708 34.272 1.76669C31.9163 -0.588897 28.0835 -0.588897 25.7278 1.76669C24.7347 2.75993 22.5518 4.79323 21.0876 8.48515C18.2144 7.24499 15.9251 7.01513 13.0568 7.01513C9.72543 7.01513 7.01525 9.72543 7.01525 13.0567C7.01525 14.3136 6.88375 17.3771 8.48527 21.0874C5.51233 22.2665 3.73127 23.7634 1.76669 25.7278C-0.588897 28.0834 -0.588897 31.9163 1.76669 34.2719C2.75303 35.2582 4.78887 37.4462 8.48527 38.9123C7.24511 41.7854 7.01525 44.0748 7.01525 46.943C7.01525 50.2743 9.72543 52.9846 13.0568 52.9846C14.3138 52.9846 17.3772 53.1161 21.0876 51.5145C22.2646 54.4823 23.7578 56.2629 25.728 58.2331C28.0837 60.5888 31.9165 60.5886 34.2721 58.2331C35.2595 57.2457 37.4467 55.2105 38.9125 51.5147C41.7856 52.7548 44.0751 52.9847 46.9432 52.9847C50.2746 52.9847 52.9848 50.2744 52.9848 46.9431C52.9848 45.6863 53.1163 42.6227 51.5148 38.9124C54.4877 37.7333 56.2688 36.2364 58.2334 34.272C60.5888 31.9164 60.5888 28.0837 58.2333 25.728ZM46.9431 10.8866C48.1398 10.8866 49.1134 11.8601 49.1134 13.0568C49.1134 14.3695 49.2201 16.9449 47.7332 20.0504C44.9615 19.6085 42.0611 19.8052 39.2884 20.7115C40.1499 18.0763 40.4145 15.1832 39.9495 12.2667C42.8592 10.8736 45.209 10.8866 46.9431 10.8866ZM30 34.2202C27.6729 34.2202 25.7797 32.327 25.7797 30C25.7797 27.6729 27.6729 25.7797 30 25.7797C32.327 25.7797 34.2202 27.6729 34.2202 30C34.2202 32.327 32.3269 34.2202 30 34.2202ZM27.8259 5.1437L28.4654 4.50421C29.3115 3.65808 30.6883 3.65808 31.5345 4.50421L32.1741 5.14382C36.961 9.93061 37.6056 17.4375 33.9399 22.9364C33.3104 22.5836 32.6363 22.3172 31.9356 22.1444V17.9391C31.9356 16.8701 31.0689 16.0034 30 16.0034C28.931 16.0034 28.0643 16.8701 28.0643 17.9391V22.1444C27.3637 22.3172 26.6895 22.5836 26.06 22.9364C22.3943 17.4374 23.0389 9.93049 27.8259 5.1437ZM10.8865 13.0568C10.8865 11.8601 11.86 10.8866 13.0567 10.8866C14.3695 10.8866 16.9449 10.7799 20.0503 12.2666C19.6093 15.0325 19.8031 17.9329 20.7113 20.7113C18.0773 19.8503 15.184 19.5851 12.2666 20.0503C10.8735 17.1407 10.8865 14.7909 10.8865 13.0568ZM4.50409 31.5346C3.65784 30.6885 3.65784 29.3116 4.50409 28.4653L5.14358 27.8259C9.93049 23.0389 17.4372 22.3942 22.9361 26.06C22.5834 26.6895 22.317 27.3637 22.1442 28.0643H17.9389C16.87 28.0643 16.0033 28.931 16.0033 30C16.0033 31.0689 16.87 31.9356 17.9389 31.9356H22.1442C22.3169 32.6363 22.5833 33.3104 22.9361 33.9399C17.4372 37.6056 9.93049 36.9609 5.14358 32.1741L4.50409 31.5346ZM13.0567 49.1135C11.86 49.1135 10.8865 48.14 10.8865 46.9432C10.8865 45.6306 10.7798 43.0552 12.2666 39.9497C15.0976 40.401 17.9918 40.1771 20.7115 39.2879C19.8499 41.9233 19.5852 44.8167 20.0503 47.7333C17.1406 49.1264 14.7908 49.1135 13.0567 49.1135ZM32.174 54.8564L31.5345 55.4958C30.6883 56.342 29.3115 56.342 28.4654 55.4958L27.8257 54.8562C23.0388 50.0695 22.3943 42.5626 26.0599 37.0637C26.6894 37.4165 27.3636 37.6829 28.0642 37.8556V42.061C28.0642 43.13 28.9309 43.9967 29.9999 43.9967C31.0688 43.9967 31.9355 43.13 31.9355 42.061V37.8556C32.6361 37.6829 33.3103 37.4165 33.9398 37.0637C37.6056 42.5627 36.9609 50.0696 32.174 54.8564ZM49.1134 46.9432C49.1134 48.14 48.1398 49.1135 46.9431 49.1135C45.6304 49.1135 43.055 49.2202 39.9495 47.7333C40.3915 44.9612 40.1949 42.0611 39.2883 39.288C42.0018 40.1752 44.8959 40.402 47.7332 39.9495C49.1263 42.8593 49.1134 45.2091 49.1134 46.9432ZM55.4959 31.5346L54.8564 32.1741C50.0693 36.9609 42.5626 37.6056 37.0638 33.9399C37.4166 33.3104 37.683 32.6363 37.8558 31.9356H42.061C43.13 31.9356 43.9967 31.0689 43.9967 30C43.9967 28.931 43.13 28.0643 42.061 28.0643H37.8558C37.683 27.3637 37.4166 26.6895 37.0638 26.06C42.5627 22.3944 50.0695 23.0391 54.8564 27.8259L55.4959 28.4653C56.342 29.3116 56.342 30.6885 55.4959 31.5346Z" fill="#756659"/>
</g>
<defs>
<clipPath id="clip0_2638_5793">
<rect width="60" height="60" fill="white"/>
</clipPath>
</defs>
</svg>
