<svg width="60" height="60" viewBox="0 0 60 60" fill="none" xmlns="http://www.w3.org/2000/svg">
<path d="M29.775 3C16.7373 3 5.82484 12.0747 3 24.25C3.0875 24.6247 3.1875 25.0123 3.2875 25.3877C3.6 26.4997 3.9875 27.6002 4.42531 28.6622C4.57484 29.0125 4.73781 29.3622 4.90016 29.7127C5.0625 30.0502 5.22484 30.3998 5.4 30.7375C5.57516 31.075 5.7625 31.4003 5.95 31.7378C8.425 36.0128 12.0125 39.5625 16.3253 41.9875C16.625 42.1498 16.9253 42.3128 17.2378 42.475C17.3 42.5123 17.3752 42.5502 17.4373 42.5875C17.6877 42.6997 17.9373 42.8248 18.1873 42.9378C18.3127 43 18.4377 43.0622 18.5623 43.1123C18.8375 43.2373 19.1248 43.3625 19.4123 43.4748C20.1248 43.7623 20.8498 44.0248 21.5878 44.2623C21.9625 44.3752 22.325 44.4874 22.6998 44.5748C22.9123 44.6375 23.1373 44.6877 23.3498 44.7377C23.6373 44.8127 23.9377 44.8872 24.225 44.9372C24.5625 45.0122 24.9 45.0752 25.2375 45.1253C25.5123 45.1753 25.7998 45.2125 26.0872 45.2497C26.1622 45.2625 26.2373 45.2747 26.3253 45.2747C26.6 45.3247 26.8623 45.3498 27.1248 45.3748C27.5373 45.4127 27.95 45.4378 28.3627 45.4628C28.8252 45.4878 29.3002 45.5 29.775 45.5C30.2498 45.5 30.7247 45.4878 31.1875 45.4628C31.6 45.4378 32.0125 45.4128 32.425 45.3748C32.6875 45.3498 32.95 45.3248 33.2247 45.2748C33.3127 45.2748 33.3877 45.2625 33.4628 45.2498C33.7503 45.2125 34.0378 45.1753 34.3123 45.1253C34.6498 45.0753 34.9873 45.0123 35.3248 44.9372C35.6123 44.8872 35.9127 44.8128 36.2002 44.7377C36.4127 44.6877 36.6377 44.6377 36.8502 44.5747C37.225 44.4875 37.5875 44.3752 37.9622 44.2622C38.7002 44.0247 39.4253 43.7622 40.1375 43.4748C40.425 43.3625 40.7125 43.2373 40.9878 43.1123C41.1123 43.0623 41.2373 43 41.3625 42.9378C41.6128 42.8248 41.8625 42.6997 42.1125 42.5873C42.175 42.5502 42.25 42.5123 42.3122 42.4752C42.6247 42.3127 42.925 42.1498 43.2247 41.9875C47.5375 39.5625 51.1252 36.0127 53.6 31.7378C53.7875 31.4003 53.9748 31.075 54.15 30.7375C54.3252 30.4 54.4875 30.0502 54.65 29.7125C54.8122 29.3623 54.9752 29.0125 55.1247 28.6622C55.5623 27.6002 55.95 26.4997 56.2625 25.3877C56.3625 25.0123 56.4625 24.6247 56.55 24.25C53.725 12.0747 42.8125 3 29.775 3ZM29.775 35.5C21.4875 35.5 14.775 28.7875 14.775 20.5H44.775C44.775 28.7875 38.0625 35.5 29.775 35.5Z" fill="#FFF9F4"/>
<path d="M29.9996 15C16.962 15 6.04945 24.0747 3.22461 36.25C3.31211 36.6247 3.41211 37.0123 3.51211 37.3877C3.82461 38.4997 4.21211 39.6002 4.64992 40.6622C4.79945 41.0125 4.96242 41.3622 5.12477 41.7127C5.28711 42.0502 5.44945 42.3998 5.62461 42.7375C5.79977 43.075 5.98711 43.4003 6.17461 43.7378C8.64961 48.0128 12.2371 51.5625 16.5499 53.9875C16.8496 54.1498 17.1499 54.3128 17.4624 54.475C17.5246 54.5123 17.5998 54.5502 17.662 54.5875C17.9123 54.6997 18.162 54.8248 18.412 54.9378C18.5373 55 18.6623 55.0622 18.787 55.1123C19.0621 55.2373 19.3495 55.3625 19.637 55.4748C20.3495 55.7623 21.0745 56.0248 21.8124 56.2623C22.1871 56.3752 22.5496 56.4874 22.9245 56.5748C23.137 56.6375 23.362 56.6877 23.5745 56.7377C23.862 56.8127 24.1623 56.8872 24.4496 56.9372C24.7871 57.0122 25.1246 57.0752 25.4621 57.1253C25.737 57.1753 26.0245 57.2125 26.3118 57.2497C26.3868 57.2625 26.462 57.2747 26.5499 57.2747C26.8246 57.3247 27.087 57.3498 27.3495 57.3748C27.762 57.4127 28.1746 57.4378 28.5873 57.4628C29.0498 57.4878 29.5248 57.5 29.9996 57.5C30.4745 57.5 30.9493 57.4878 31.4121 57.4628C31.8246 57.4378 32.2371 57.4128 32.6496 57.3748C32.9121 57.3498 33.1746 57.3248 33.4493 57.2748C33.5373 57.2748 33.6123 57.2625 33.6874 57.2498C33.9749 57.2125 34.2624 57.1753 34.537 57.1253C34.8745 57.0753 35.212 57.0123 35.5495 56.9372C35.837 56.8872 36.1373 56.8128 36.4248 56.7377C36.6373 56.6877 36.8623 56.6377 37.0748 56.5747C37.4496 56.4875 37.8121 56.3752 38.1868 56.2622C38.9248 56.0247 39.6499 55.7622 40.3621 55.4748C40.6496 55.3625 40.9371 55.2373 41.2124 55.1123C41.337 55.0623 41.462 55 41.5871 54.9378C41.8374 54.8248 42.0871 54.6997 42.3371 54.5873C42.3996 54.5502 42.4746 54.5123 42.5368 54.4752C42.8493 54.3127 43.1496 54.1498 43.4493 53.9875C47.7621 51.5625 51.3498 48.0127 53.8246 43.7378C54.0121 43.4003 54.1995 43.075 54.3746 42.7375C54.5498 42.4 54.7121 42.0502 54.8746 41.7125C55.0368 41.3623 55.1998 41.0125 55.3493 40.6622C55.787 39.6002 56.1746 38.4997 56.4871 37.3877C56.5871 37.0123 56.6871 36.6247 56.7746 36.25C53.9496 24.0747 43.0371 15 29.9996 15ZM29.9996 47.5C21.7121 47.5 14.9996 40.7875 14.9996 32.5H44.9996C44.9996 40.7875 38.2871 47.5 29.9996 47.5Z" fill="#CDAF95"/>
<path d="M47.5 23.7352C47.5 22.3707 46.3938 21.25 45.0293 21.25H44.0962C42.5863 21.25 41.6538 19.6028 42.4307 18.3081C42.9827 17.3882 42.6844 16.195 41.7645 15.6431L41.2863 15.3561C40.1023 14.6457 38.5666 15.0297 37.8562 16.2137L35.4693 20.1921C33.8697 22.8582 35.7902 26.25 38.8993 26.25H45C46.3807 26.25 47.5 25.116 47.5 23.7352ZM22.1438 16.2137C21.4334 15.0297 19.8977 14.6457 18.7137 15.3561L18.2355 15.6431C17.3156 16.195 17.0173 17.3882 17.5693 18.3081C18.3462 19.6028 17.4137 21.25 15.9038 21.25H14.9707C13.6062 21.25 12.5 22.3707 12.5 23.7352C12.5 25.116 13.6193 26.25 15 26.25H21.1007C24.2098 26.25 26.1303 22.8582 24.5307 20.1921L22.1438 16.2137Z" fill="#756659"/>
<path d="M1.09625 38.0322C1.41109 39.2127 1.82125 40.3925 2.35234 41.6473C2.50859 42.0123 2.67766 42.3761 2.87469 42.8039L3.00719 43.0798C3.13594 43.3491 3.26594 43.6213 3.40406 43.8873C3.54375 44.1602 3.69266 44.4264 3.84516 44.6948L4.00875 44.9878C6.69375 49.6503 10.6061 53.5163 15.3612 56.1889L15.4864 56.2561C15.7537 56.4014 16.0223 56.5461 16.3013 56.6912L17.295 57.1766C17.4823 57.2698 17.6739 57.3614 17.7514 57.3891C18.0664 57.5323 18.3972 57.6752 18.7023 57.7948C19.4678 58.1036 20.2564 58.3886 21.0461 58.6438L21.1987 58.6902C21.5637 58.8 21.9227 58.9062 22.2887 58.9948C22.505 59.0541 22.7225 59.1084 22.9412 59.1577C23.2953 59.2498 23.6652 59.3402 23.9062 59.3786C24.3023 59.4666 24.6984 59.5398 25.0141 59.5863C25.3266 59.6423 25.6537 59.6875 25.8936 59.7162C26.0186 59.7375 26.1427 59.7553 26.275 59.7663C26.5613 59.8114 26.8378 59.8402 27.1209 59.8675C27.5611 59.9072 27.9998 59.9353 28.4497 59.9616C28.9575 59.9859 29.4788 60 30 60C30.5212 60 31.0425 59.9859 31.56 59.9573C32.0002 59.9311 32.4389 59.9048 32.8875 59.8639C33.1622 59.8377 33.4363 59.8102 33.7202 59.7639C33.8441 59.7553 33.9466 59.74 34.0186 59.7278C34.3462 59.685 34.6722 59.6411 34.9036 59.5978C35.3003 59.5384 35.6964 59.4647 35.9802 59.3988C36.3336 59.3378 36.7036 59.2475 37.0989 59.1461C37.3011 59.0984 37.5098 59.0484 37.7113 58.9923C38.0786 58.9037 38.4425 58.7952 38.9159 58.6523C39.7316 58.4039 40.545 58.1097 41.275 57.8016C41.6041 57.6727 41.9336 57.5298 42.1362 57.4334C42.2991 57.3682 42.4588 57.2953 42.6147 57.215L43.7347 56.6687C44.0014 56.5302 44.2591 56.3898 44.5148 56.2513L44.6766 56.1639C49.3943 53.5133 53.3096 49.6392 56.0102 44.9498L56.1548 44.69C56.3061 44.4212 56.4552 44.1566 56.5961 43.8825C56.7335 43.6159 56.8657 43.3467 56.9928 43.075L57.1552 42.7362C57.3236 42.3713 57.4927 42.0075 57.6527 41.6327C58.1787 40.3875 58.5889 39.2091 58.905 38.0202C59.0115 37.6224 59.1125 37.2231 59.2078 36.8225C59.7339 34.6113 60 32.315 60 30C60 13.4577 46.5411 0 30 0C13.4589 0 0 13.4577 0 30C0 32.315 0.266094 34.6113 0.791094 36.8213C0.88375 37.2173 0.99 37.6275 1.09625 38.0322ZM30 5C43.7848 5 55 16.2152 55 30C55 31.9263 54.7791 33.8348 54.3414 35.6787C54.2591 36.0316 54.1638 36.3966 54.0722 36.7425C53.8191 37.6966 53.4827 38.6584 53.0536 39.6778C52.9162 39.9975 52.7673 40.3173 52.6264 40.6225L52.4836 40.9198C52.3761 41.1427 52.2687 41.3691 52.1552 41.5887C52.0398 41.8103 51.9202 42.0263 51.7962 42.2436L51.6589 42.4903C49.4227 46.3739 46.1616 49.5959 42.2614 51.7877L42.135 51.8561C41.8891 51.9886 41.6413 52.1228 41.385 52.2564L40.4688 52.7016C40.4078 52.7314 40.3473 52.765 40.1764 52.8377C39.9414 52.9439 39.6961 53.0513 39.3927 53.1716C38.7609 53.4377 38.1109 53.6727 37.3559 53.9028C37.0716 53.9877 36.795 54.0736 36.5075 54.1403L36.3659 54.1773C36.2347 54.2164 36.0963 54.2477 35.9625 54.2788L35.7911 54.3191C35.5713 54.3764 35.3411 54.4363 35.0086 54.4966C34.7289 54.5589 34.4513 54.6102 34.0898 54.665C33.8586 54.7078 33.6164 54.7377 33.3764 54.7689L33.0023 54.8152C32.8003 54.8525 32.6075 54.8677 32.4225 54.8855C32.0361 54.9202 31.6509 54.9441 31.275 54.9653C30.44 55.0111 29.5514 55.0111 28.7359 54.9653C28.3502 54.9428 27.9652 54.9189 27.5873 54.8855C27.3952 54.8666 27.2014 54.8511 26.9989 54.8141L26.665 54.7738L26.6247 54.7689C26.3848 54.7377 26.1414 54.7078 25.8289 54.6517C25.5487 54.6102 25.2711 54.5577 24.8786 54.4741C24.6588 54.435 24.4286 54.3764 24.2091 54.3178L24.0375 54.2775C23.9037 54.2463 23.7653 54.2153 23.6341 54.1763L23.4925 54.1389C23.2063 54.0725 22.9284 53.9864 22.58 53.8814C21.8948 53.6606 21.2177 53.4155 20.55 53.1466C20.3052 53.0502 20.0586 52.9427 19.7137 52.7887C19.6528 52.7637 19.5923 52.7314 19.4416 52.6575L18.615 52.2555C18.3587 52.123 18.1128 51.9888 17.865 51.855L17.7766 51.8063C13.8416 49.5938 10.5786 46.3716 8.36125 42.5216L8.205 42.2414C8.08132 42.0253 7.96166 41.8069 7.84609 41.5864C7.7325 41.3661 7.62516 41.1416 7.51766 40.9177L7.38219 40.6348C7.23516 40.3152 7.08625 39.9953 6.9525 39.6852C6.51734 38.6561 6.18219 37.6936 5.93016 36.7477C5.8354 36.3892 5.74487 36.0296 5.65859 35.6691C5.22109 33.8348 5 31.9263 5 30C5 16.2152 16.2152 5 30 5Z" fill="#756659"/>
<path d="M30 50C39.6503 50 47.5 42.1503 47.5 32.5C47.5 31.1193 46.3807 30 45 30H15C13.6193 30 12.5 31.1193 12.5 32.5C12.5 42.1503 20.3497 50 30 50ZM37.3514 35C39.8815 35 41.7787 37.3893 40.3615 39.485C38.1129 42.8101 34.3073 45 30 45C25.6927 45 21.8871 42.8101 19.6386 39.485C18.2213 37.3893 20.1186 35 22.6486 35H37.3514Z" fill="#756659"/>
</svg>
