<svg width="60" height="60" viewBox="0 0 60 60" fill="none" xmlns="http://www.w3.org/2000/svg">
<path d="M45.9375 34.6875C45.9375 44.1797 30 51.5625 30 51.5625C30 51.5625 26.0156 49.7168 22.0312 46.6852C18.2009 43.7689 14.0625 39.5229 14.0625 34.6875C14.0625 29.9267 18.0564 26.0196 23.0063 26.2606C24.444 26.3329 25.8398 26.769 27.063 27.5279C28.2862 28.2869 29.2968 29.3439 30 30.6C32.7559 25.6657 39.4771 24.7782 43.4473 28.7203C44.9985 30.2607 45.9375 32.3748 45.9375 34.6875Z" fill="#FFF9F4"/>
<path d="M45.8938 33.8251C45.4484 37.4415 41.6371 40.6419 37.8587 42.9683C33.0447 45.9322 26.9648 45.9373 22.1504 42.9739C18.8632 40.9507 14.58 37.678 14.1055 33.8263V33.8251C14.5411 29.5753 18.1548 26.2501 22.5617 26.2501C25.7209 26.2501 28.5293 27.9674 29.9996 30.6001C31.4677 27.9715 34.2736 26.2501 37.4375 26.2501C41.8246 26.2501 45.4552 29.5557 45.8938 33.8251Z" fill="#D6BCB4"/>
<path d="M45.719 32.7785C49.5241 32.4176 52.5007 29.2125 52.5007 25.3125H47.8132C51.9557 25.3125 55.3132 21.9551 55.3132 17.8125H50.6257C54.7682 17.8125 58.1257 14.4551 58.1257 10.3125H54.3757C46.0917 10.3125 39.3757 17.0285 39.3757 25.3125V26.4715L45.719 32.7785ZM20.6257 25.3125V26.4703L14.2823 32.7785C10.4378 32.4079 7.50066 29.1798 7.50066 25.3125H12.1882C8.04558 25.3125 4.68816 21.9551 4.68816 17.8125H9.37566C5.2448 17.8125 1.89441 14.4738 1.87566 10.3477C1.87566 10.2936 1.58574 10.3125 5.62566 10.3125C13.9096 10.3125 20.6257 17.0285 20.6257 25.3125Z" fill="#CDAF95"/>
<path d="M15.9375 28.465V29.8665L13.5984 32.6814C10.1262 32.0263 7.5 28.9759 7.5 25.3126H12.1875C8.04492 25.3126 4.6875 21.9552 4.6875 17.8126H9.375C5.24414 17.8126 1.89375 14.4739 1.875 10.3478C9.72187 10.9337 15.9375 18.8204 15.9375 28.465ZM44.0625 28.465V29.8665L46.4016 32.6814C49.8738 32.0263 52.5 28.9759 52.5 25.3126H47.8125C51.9551 25.3126 55.3125 21.9552 55.3125 17.8126H50.625C54.7559 17.8126 58.1063 14.4739 58.125 10.3478C50.2781 10.9337 44.0625 18.8204 44.0625 28.465Z" fill="#D6BCB4"/>
<path d="M60 10.3126C60 9.27715 59.1605 8.43762 58.125 8.43762H54.375C45.3843 8.43762 38.0139 15.5053 37.5264 24.3764C34.7565 24.3424 32.0029 25.4529 30 27.4977C29.0198 26.4981 27.8481 25.7064 26.5549 25.1701C25.2617 24.6338 23.8736 24.3638 22.4736 24.3763C21.986 15.5052 14.6156 8.43762 5.625 8.43762H1.875C0.839531 8.43762 0 9.27715 0 10.3126C0 12.9939 1.13156 15.416 2.94211 17.1264C2.85618 17.3449 2.81221 17.5778 2.8125 17.8126C2.8125 20.4939 3.94406 22.916 5.75461 24.6264C5.66868 24.845 5.62471 25.0778 5.625 25.3126C5.625 29.4779 8.34996 33.0553 12.1971 34.2586C12.0319 38.2486 14.1784 41.7969 16.9508 44.6946C20.2493 48.1436 25.4 51.499 29.2119 53.264C29.4589 53.3784 29.7278 53.4376 30 53.4376C30.2722 53.4376 30.5411 53.3784 30.7881 53.264C30.9584 53.1851 35.0046 51.2966 39.1042 48.1767C43.644 44.7218 48.0347 39.9564 47.802 34.2588C51.6459 33.0568 54.375 29.482 54.375 25.3125C54.375 25.0703 54.3291 24.8388 54.2454 24.6263C56.0559 22.916 57.1875 20.4939 57.1875 17.8126C57.1875 17.5704 57.1416 17.339 57.0579 17.1264C58.8684 15.416 60 12.9939 60 10.3126ZM9.69082 27.1876H12.1875C13.223 27.1876 14.0625 26.3481 14.0625 25.3126C14.0625 24.2772 13.223 23.4376 12.1875 23.4376C9.74297 23.4376 7.65762 21.8702 6.88383 19.6876H9.375C10.4105 19.6876 11.25 18.8481 11.25 17.8126C11.25 16.7772 10.4105 15.9376 9.375 15.9376C6.93047 15.9376 4.84512 14.3702 4.07133 12.1876H5.625C12.7902 12.1876 18.6319 17.9593 18.7473 25.0976C16.193 26.105 14.134 28.0932 13.0418 30.5918C12.2663 30.3074 11.5635 29.8546 10.9841 29.266C10.4046 28.6773 9.96292 27.9675 9.69082 27.1876ZM29.9993 49.4709C24.565 46.688 15.9375 40.8251 15.9375 34.6876C15.9375 31.0691 18.9095 28.1251 22.5625 28.1251C24.9728 28.1251 27.1954 29.4239 28.3629 31.5149C29.0768 32.7932 30.922 32.7953 31.637 31.5149C32.8031 29.4266 35.0604 28.0697 37.6068 28.1278C41.1915 28.2168 44.0624 31.1182 44.0624 34.6876C44.0625 40.8091 35.4742 46.6638 29.9993 49.4709ZM50.625 15.9376C49.5895 15.9376 48.75 16.7772 48.75 17.8126C48.75 18.8481 49.5895 19.6876 50.625 19.6876H53.1162C52.3423 21.8702 50.257 23.4376 47.8125 23.4376C46.777 23.4376 45.9375 24.2772 45.9375 25.3126C45.9375 26.3481 46.777 27.1876 47.8125 27.1876H50.3092C50.0373 27.9669 49.5961 28.6763 49.0173 29.2646C48.4385 29.853 47.7364 30.3058 46.9617 30.5904C45.8809 28.1093 43.835 26.1108 41.2527 25.0976C41.3681 17.9593 47.2097 12.1876 54.375 12.1876H55.9287C55.1549 14.3702 53.0695 15.9376 50.625 15.9376Z" fill="#756659"/>
<path d="M23.8586 16.5162C27.3143 18.2442 32.6834 18.2457 36.1422 16.5162C40.4625 14.356 40.4706 10.0231 36.1422 7.85877C32.6864 6.13084 27.3174 6.12932 23.8586 7.85877C19.5381 10.0191 19.5301 14.352 23.8586 16.5162ZM25.5355 11.2129C27.9347 10.0134 32.0665 10.0136 34.4651 11.2129C35.4236 11.6922 35.6253 12.1226 35.6253 12.1876C35.6253 12.2525 35.4236 12.6829 34.4651 13.1622C32.0659 14.3617 27.9341 14.3615 25.5355 13.1622C24.5771 12.6829 24.3754 12.2525 24.3754 12.1876C24.3754 12.1226 24.5771 11.6922 25.5355 11.2129Z" fill="#756659"/>
<path d="M24.375 30.9375C24.375 30.9375 18.75 30 18.75 33.75C18.75 37.5 19.6875 32.8125 22.5 32.8125C25.3125 32.8125 25.3125 31.875 24.375 30.9375Z" fill="#D6BCB4"/>
</svg>
