<svg width="60" height="60" viewBox="0 0 60 60" fill="none" xmlns="http://www.w3.org/2000/svg">
<g clip-path="url(#clip0_2638_11327)">
<path d="M21.5784 5.13781C16.543 1.53939 12.0822 4.11186 12.6811 10.2746C13.4689 18.3814 22.0294 28.9476 27.5522 25.7585C33.0871 22.563 28.189 9.86163 21.5784 5.13781Z" fill="#CDAF95"/>
<path d="M35.1369 4.25779C32.2534 -2.08424 25.945 -1.43474 23.8848 7.17393C28.4072 11.9457 32.0031 20.9757 28.6249 24.8682C29.1415 25.047 29.6135 25.1029 30.0001 25.1029C36.3764 25.1029 38.5093 11.6749 35.1369 4.25779Z" fill="#CDAF95"/>
<path d="M31.0929 8.30228C29.8719 5.61686 27.6726 3.47609 24.8811 4.2242C24.477 5.10641 24.142 6.10063 23.8852 7.17384C28.7022 12.2562 31.8749 21.1238 28.6254 24.8681C29.4279 25.1457 30.2586 25.1781 31.0766 24.9593C33.2059 20.3138 33.2188 12.978 31.0929 8.30228ZM27.7972 25.6051C27.4219 17.2648 18.2189 5.85111 12.6367 9.63147C13.0091 17.9072 22.1835 29.4067 27.7972 25.6051Z" fill="#FFF9F4"/>
<path d="M10.2775 12.6791C4.11762 12.0805 1.54057 16.5389 5.14064 21.5764C9.87573 28.2023 22.5722 33.0739 25.7614 27.5504C28.9572 22.0157 18.3624 13.4648 10.2775 12.6791Z" fill="#CDAF95"/>
<path d="M25.295 28.1993C21.0758 21.742 8.85385 16.5526 4.8457 21.1447C9.07846 27.6196 21.3078 32.7673 25.295 28.1993Z" fill="#FFF9F4"/>
<path d="M20.8822 24.8612C16.2282 22.745 8.91845 22.7427 4.25963 24.8612C-1.37425 27.4227 -1.37696 32.5721 4.25963 35.1348C8.91363 37.251 16.2234 37.2533 20.8822 35.1348C26.5161 32.5733 26.5188 27.4239 20.8822 24.8612Z" fill="#CDAF95"/>
<path d="M3.48633 34.7487C10.6147 38.6251 24.9515 36.6517 25.104 30.0908C18.0033 26.2311 3.63912 28.1755 3.48633 34.7487Z" fill="#FFF9F4"/>
<path d="M25.7605 32.4455C22.5651 26.9107 9.86375 31.809 5.13981 38.4194C2.79336 41.7029 3.45073 43.9388 4.05145 44.9793C7.25049 50.5203 19.9563 45.6045 24.6722 39.0054C27.0187 35.7219 26.3613 33.486 25.7605 32.4455Z" fill="#CDAF95"/>
<path d="M25.8277 32.5659C17.8931 33.7505 8.10501 41.8344 10.9771 47.2283C18.908 46.0441 28.7 37.9598 25.8277 32.5659Z" fill="#FFF9F4"/>
<path d="M27.5517 34.2373C22.0303 31.0495 13.4687 41.6099 12.6805 49.7211C12.2902 53.7381 13.9775 55.3456 15.0181 55.9463C20.5471 59.1386 29.1023 48.5603 29.8892 40.4625C30.2795 36.4455 28.5922 34.8381 27.5517 34.2373Z" fill="#CDAF95"/>
<path d="M27.8694 34.441C20.8478 37.9806 14.6871 51.8813 20.1287 55.7417C27.147 52.2064 33.3158 38.3025 27.8694 34.441Z" fill="#FFF9F4"/>
<path d="M35.137 39.1155C32.5755 33.4817 27.426 33.4791 24.8633 39.1155C22.7469 43.7704 22.7453 51.0797 24.8633 55.7382C27.4249 61.3722 32.5743 61.3749 35.1371 55.7382C37.2534 51.0832 37.2551 43.774 35.137 39.1155Z" fill="#CDAF95"/>
<path d="M35.1996 55.5954C37.2546 50.9302 37.2337 43.7255 35.1377 39.1155C33.9175 36.432 31.7147 34.2834 28.9145 35.0396C26.8594 39.7046 26.8805 46.9093 28.9764 51.5193C30.1999 54.2103 32.4037 56.3504 35.1996 55.5954Z" fill="#FFF9F4"/>
<path d="M39.0081 35.3256C33.9729 31.7272 29.5119 34.2993 30.1108 40.4625C30.8986 48.5693 39.4591 59.1355 44.9819 55.9463C50.5168 52.7508 45.6187 40.0494 39.0081 35.3256Z" fill="#CDAF95"/>
<path d="M39.0069 35.3256C34.9475 32.4245 31.7503 33.6952 30.5879 36.3975C31.5496 41.134 34.8751 46.5917 38.6726 49.3052C42.7082 52.1894 45.9169 50.9641 47.0916 48.2333C46.1298 43.4969 42.8045 38.0394 39.0069 35.3256Z" fill="#FFF9F4"/>
<path d="M40.4651 30.1081C34.3067 29.5086 31.7273 33.9666 35.3281 39.0053C40.064 45.6324 52.7598 50.5024 55.9489 44.9792C59.1446 39.4447 48.5518 30.8941 40.4651 30.1081Z" fill="#CDAF95"/>
<path d="M50.0318 41.2278C52.9727 41.2278 54.3284 39.9245 54.9247 38.9773C50.7238 32.0871 37.8209 26.5967 34.3516 32.1097C37.2921 36.9329 44.6578 41.2278 50.0318 41.2278Z" fill="#FFF9F4"/>
<path d="M55.7397 24.8612C51.0857 22.745 43.7759 22.7427 39.117 24.8612C33.4832 27.4227 33.4805 32.5721 39.117 35.1348C43.771 37.251 51.0809 37.2533 55.7397 35.1348C61.3736 32.5733 61.3763 27.4239 55.7397 24.8612Z" fill="#CDAF95"/>
<path d="M34.9727 29.2074C41.133 33.644 56.2859 32.3589 57.5498 25.8935C51.3944 21.4601 36.2381 22.7335 34.9727 29.2074Z" fill="#FFF9F4"/>
<path d="M55.9481 15.0166C52.7529 9.48161 40.0513 14.3801 35.3273 20.9906C32.9808 24.2741 33.6382 26.51 34.239 27.5505C37.438 33.0915 50.1439 28.1755 54.8597 21.5766C57.2063 18.293 56.5489 16.0572 55.9481 15.0166Z" fill="#CDAF95"/>
<path d="M33.7503 26.2128C41.0062 27.1132 53.1636 18.9498 51.9963 12.6888C44.7384 11.7884 32.5819 19.9452 33.7503 26.2128Z" fill="#FFF9F4"/>
<path d="M44.9816 4.04954C42.0382 2.34999 38.4889 4.67012 36.1161 7.17336C37.7444 13.9729 36.0647 23.2476 31.375 24.8677C31.7406 25.289 32.1253 25.5724 32.4479 25.7586C37.9769 28.9509 46.5321 18.3726 47.319 10.2747C47.7094 6.25777 46.0221 4.65025 44.9816 4.04954Z" fill="#CDAF95"/>
<path d="M38.091 5.38281C37.4206 5.89409 36.7579 6.49621 36.1161 7.17333C37.7444 13.9729 36.0647 23.2475 31.375 24.8676C31.9957 25.5829 32.7725 26.0252 33.6347 26.217C40.797 20.7603 45.1479 6.95272 38.091 5.38281Z" fill="#FFF9F4"/>
<path d="M29.9996 19.764C24.3565 19.764 19.7656 24.355 19.7656 29.998C19.7656 35.6409 24.3566 40.2319 29.9996 40.2319C35.6425 40.2319 40.2335 35.6409 40.2335 29.998C40.2335 24.355 35.6426 19.764 29.9996 19.764Z" fill="#FFF9F4"/>
<path d="M29.9996 19.764C24.3565 19.764 19.7656 24.355 19.7656 29.998C19.7656 35.6409 23.1366 27.05 28.7797 27.05C34.4227 27.05 40.2336 35.6409 40.2336 29.998C40.2336 24.355 35.6426 19.764 29.9996 19.764Z" fill="#CDAF95"/>
<path d="M52.8242 23.8824C59.9511 17.1273 56.1519 10.4822 46.7086 13.2896C49.5085 3.85777 42.8796 0.0320321 36.1159 7.17388C33.8301 -2.37236 26.1747 -2.40539 23.8857 7.17505C17.1174 0.0325024 10.4884 3.85977 13.2917 13.2893C3.85875 10.4888 0.0344231 17.1186 7.17592 23.8819C-2.39277 26.1733 -2.39113 33.8266 7.1758 36.1135C0.0231402 42.8929 3.90118 49.4978 13.2913 46.7062C10.5089 56.0787 17.1074 59.9775 23.8841 52.822C26.1754 62.3916 33.8289 62.3881 36.1155 52.8221C42.9088 59.989 49.4884 56.0578 46.7084 46.7065C56.1162 49.4994 59.9754 42.8866 52.8242 36.1138C62.3927 33.8226 62.3911 26.1693 52.8242 23.8824ZM44.5786 18.1935C48.8822 15.9966 52.2406 16.1168 52.6911 16.8971C53.1211 17.6418 51.5104 21.0002 46.5754 23.8495C43.6345 25.5475 41.1277 26.1322 39.4906 26.1702C39.2998 25.6989 39.074 25.2425 38.815 24.8048C41.1617 23.1927 43.1685 20.6542 44.5786 18.1935ZM36.4728 29.9979C36.4728 33.5671 33.569 36.4708 30 36.4708C26.4309 36.4708 23.5271 33.5671 23.5271 29.9979C23.5271 26.4288 26.4309 23.5251 30 23.5251C33.569 23.5251 36.4728 26.4288 36.4728 29.9979ZM35.1369 20.8804C36.0495 18.8732 36.7341 15.9793 36.7233 12.4857C37.8915 10.6838 39.273 9.15221 40.6083 8.19795C41.6149 7.47852 42.3721 7.24545 42.7988 7.24545C42.933 7.24545 43.0345 7.26849 43.1008 7.30669C43.3777 7.46654 43.7327 8.2921 43.5754 9.91089C43.161 14.1751 39.7013 19.8913 36.311 21.9466C34.9388 20.8688 34.9552 21.2799 35.1369 20.8804ZM30 3.79642C30.8599 3.79642 32.963 6.87052 32.963 12.569C32.963 15.9645 32.2163 18.4277 31.4308 19.8645C30.9264 19.7931 30.4173 19.7599 29.9078 19.7651C29.6838 16.9148 28.4905 13.9181 27.065 11.4666C27.3176 6.40414 29.2073 3.79642 30 3.79642ZM16.8993 7.30669C16.9656 7.26849 17.067 7.24545 17.2012 7.24545C17.6279 7.24545 18.3853 7.47852 19.3918 8.19795C22.9072 10.7099 26.0967 16.5747 26.1828 20.503C25.7078 20.6947 25.2479 20.922 24.807 21.1828C23.1971 18.8403 20.6793 16.8471 18.1956 15.4194C17.2192 13.5067 16.5835 11.5445 16.4247 9.91101C16.2674 8.2921 16.6223 7.46665 16.8993 7.30669ZM7.30873 16.8971C7.44142 16.6673 8.03215 16.3839 9.15448 16.3839C13.2189 16.3839 19.6283 19.8908 21.942 23.696C20.8474 25.0927 21.2841 25.0438 20.8824 24.8611C18.3509 23.71 15.2442 23.2638 12.4841 23.2746C8.28532 20.5647 6.90747 17.5922 7.30873 16.8971ZM3.79845 29.9979C3.79845 29.1381 6.87256 27.0348 12.5711 27.0348C15.9665 27.0348 18.4297 27.7816 19.8665 28.5671C19.7952 29.0715 19.762 29.5806 19.7672 30.0901C16.9235 30.3138 13.9274 31.5027 11.4692 32.9335C6.47788 32.6861 3.79845 30.8007 3.79845 29.9979ZM15.4214 41.8024C13.5088 42.7787 11.5465 43.4146 9.91293 43.5733C8.2939 43.7311 7.46869 43.3757 7.30873 43.0988C6.87879 42.3541 8.48948 38.9957 13.4245 36.1464C16.3653 34.4485 18.8721 33.8635 20.5091 33.8254C21.1604 35.4344 21.3497 35.0703 20.9924 35.3258C19.1903 36.6135 17.1487 38.7866 15.4214 41.8024ZM23.2768 47.5103C22.1085 49.3122 20.7271 50.8438 19.3918 51.7981C18.0684 52.7439 17.1761 52.8488 16.8993 52.6892C16.6224 52.5294 16.2674 51.7038 16.4247 50.085C16.8391 45.8209 20.2987 40.1047 23.689 38.0492C24.0915 38.3652 24.5171 38.6508 24.9621 38.9034C23.7382 41.4689 23.2673 44.6688 23.2768 47.5103ZM30 56.1996C29.1401 56.1996 27.037 53.1255 27.037 47.4268C27.037 44.0314 27.7836 41.5681 28.5691 40.1314C29.099 40.2058 29.5834 40.2346 30.0921 40.2307C30.315 43.0696 31.5025 46.0673 32.9355 48.5287C32.688 53.5202 30.8026 56.1996 30 56.1996ZM43.1007 52.6892C42.8238 52.8489 41.9313 52.7436 40.6082 51.7981C37.0787 49.276 33.9028 43.3982 33.8171 39.4931C35.4373 38.8392 35.0717 38.6475 35.3277 39.0055C36.6009 40.7871 38.7409 42.8157 41.8044 44.5766C42.7808 46.4893 43.4165 48.4515 43.5753 50.085C43.7326 51.7038 43.3777 52.5292 43.1007 52.6892ZM52.6912 43.0988C52.5313 43.3757 51.7058 43.7311 50.087 43.5733C45.9784 43.1741 40.2209 39.8572 38.0581 36.2999C38.3714 35.9001 38.6546 35.4776 38.9053 35.0358C41.4685 36.259 44.6765 36.7324 47.516 36.7212C51.7147 39.4312 53.0925 42.4037 52.6912 43.0988ZM47.4289 32.9611C44.0334 32.9611 41.5703 32.2143 40.1334 31.4288C40.2047 30.9249 40.2379 30.4164 40.2327 29.9076C43.0634 29.6828 46.056 28.5023 48.5308 27.0623C53.5221 27.3097 56.2015 29.1951 56.2015 29.9978C56.2015 30.8578 53.1274 32.9611 47.4289 32.9611Z" fill="#756659"/>
</g>
<defs>
<clipPath id="clip0_2638_11327">
<rect width="60" height="60" fill="white"/>
</clipPath>
</defs>
</svg>
