<svg width="60" height="60" viewBox="0 0 60 60" fill="none" xmlns="http://www.w3.org/2000/svg">
<path d="M10.3125 24.3765L10.7769 26.118C12.9024 34.0886 17.7031 41.0862 24.3744 45.9381H35.624C35.6564 45.9381 45.6833 39.3864 49.2215 26.118L49.6859 24.3765H10.3125Z" fill="#D6BCB4"/>
<path d="M10.3125 24.3765L10.7769 25.5123C12.9024 30.7104 17.7031 35.2741 24.3744 38.4384H35.624C35.7053 38.4384 45.7058 34.1104 49.2215 25.5123L49.6859 24.3765H10.3125Z" fill="#CDAF95"/>
<path d="M35.6241 45.938H24.3745L22.4996 58.125H37.499L35.6241 45.938ZM24.3745 1.87732V9.37701C24.3745 11.0996 23.6 12.6417 22.3801 13.6718H15.1194C13.8996 12.6417 13.125 11.0996 13.125 9.37701V1.87732L18.7498 5.62717L24.3745 1.87732Z" fill="#D6BCB4"/>
<path d="M29.9991 11.252V18.7516C29.9991 21.8582 27.4808 24.3764 24.3743 24.3764C21.2678 24.3764 18.7495 21.8582 18.7495 18.7516V11.252L24.3743 15.0018L29.9991 11.252ZM18.7495 11.252V18.7516C18.7495 21.8582 16.2313 24.3764 13.1248 24.3764C10.0183 24.3764 7.5 21.8582 7.5 18.7516V11.252L13.1248 15.0018L18.7495 11.252ZM52.4982 11.252V18.7516C52.4982 21.8582 49.9799 24.3764 46.8734 24.3764C43.7669 24.3764 41.2486 21.8582 41.2486 18.7516V11.252L46.8734 15.0018L52.4982 11.252ZM41.2486 11.252V18.7516C41.2486 21.8582 38.7304 24.3764 35.6238 24.3764C32.5173 24.3764 29.9991 21.8582 29.9991 18.7516V11.252L35.6238 15.0018L41.2486 11.252Z" fill="#D6BCB4"/>
<path d="M29.9991 11.2519V15.0018C29.9991 18.1083 27.4808 20.6266 24.3743 20.6266C21.2678 20.6266 18.7495 18.1083 18.7495 15.0018V11.2519L24.3743 15.0018L29.9991 11.2519ZM24.3743 1.87732V5.62717C24.3743 8.73368 21.8561 11.2519 18.7495 11.2519C15.643 11.2519 13.1248 8.73368 13.1248 5.62717V1.87732L18.7495 5.62717L24.3743 1.87732ZM35.6238 1.87732V5.62717C35.6238 8.73368 33.1056 11.2519 29.9991 11.2519C26.8926 11.2519 24.3743 8.73368 24.3743 5.62717V1.87732L29.9991 5.62717L35.6238 1.87732ZM18.7495 11.2519V15.0018C18.7495 18.1083 16.2313 20.6266 13.1248 20.6266C10.0183 20.6266 7.5 18.1083 7.5 15.0018V11.2519L13.1248 15.0018L18.7495 11.2519ZM52.4982 11.2519V15.0018C52.4982 18.1083 49.9799 20.6266 46.8734 20.6266C43.7669 20.6266 41.2486 18.1083 41.2486 15.0018V11.2519L46.8734 15.0018L52.4982 11.2519ZM41.2486 11.2519V15.0018C41.2486 18.1083 38.7304 20.6266 35.6238 20.6266C32.5173 20.6266 29.9991 18.1083 29.9991 15.0018V11.2519L35.6238 15.0018L41.2486 11.2519Z" fill="#FFF9F4"/>
<path d="M46.8741 1.87732V9.37701C46.8741 11.0996 46.0995 12.6417 44.8796 13.6718H37.619C36.3991 12.6417 35.6245 11.0996 35.6245 9.37701V1.87732L41.2493 5.62717L46.8741 1.87732ZM35.6245 1.87732V9.37701C35.6245 11.0996 34.85 12.6417 33.6301 13.6718H26.3694C25.1496 12.6417 24.375 11.0996 24.375 9.37701V1.87732L29.9998 5.62717L35.6245 1.87732Z" fill="#D6BCB4"/>
<path d="M46.8726 1.87732V9.37701C46.8726 11.0996 46.098 12.6417 44.8781 13.6718H37.6175C36.3976 12.6417 35.623 11.0996 35.623 9.37701V1.87732L41.2478 5.62717L46.8726 1.87732Z" fill="#D6BCB4"/>
<path d="M51.4581 9.69192L48.3612 11.7566C48.8625 10.2569 48.7482 9.98616 48.7482 1.87736C48.7482 0.383511 47.0786 -0.512937 45.8333 0.317303L41.2485 3.37378C36.2541 0.0441498 36.5726 0.234806 36.3008 0.129693C36.0654 0.0385015 35.8139 -0.00417646 35.5615 0.00422055C35.3092 0.0126175 35.0611 0.0719164 34.8322 0.178558C34.6312 0.27207 34.8943 0.110358 29.999 3.3739C25.0274 0.0593835 25.3572 0.267852 25.1673 0.179144C24.9387 0.0724506 24.6909 0.0129749 24.4388 0.00427656C24.1867 -0.00442174 23.9354 0.0378362 23.7 0.128521C23.4217 0.235978 23.7283 0.0544618 18.7495 3.37378L14.1647 0.317303C12.9216 -0.511296 11.2498 0.380698 11.2498 1.87736C11.2498 9.96589 11.1314 10.2444 11.6368 11.7566L8.53992 9.69192C7.29685 8.86332 5.625 9.75531 5.625 11.252V18.7517C5.625 21.122 6.73167 23.2376 8.45402 24.613C8.4777 24.7988 8.44746 24.6598 8.96506 26.6011C11.0951 34.5884 15.8301 41.7038 22.3508 46.7602L20.6463 57.8399C20.4717 58.9747 21.3504 60 22.4993 60H37.4987C38.6467 60 39.5264 58.9754 39.3517 57.8399L37.6472 46.7602C44.1678 41.7038 48.9028 34.5884 51.0329 26.601C51.5526 24.652 51.5207 24.7965 51.544 24.6129C53.2663 23.2375 54.373 21.122 54.373 18.7515V11.2519C54.373 9.75789 52.7033 8.8618 51.4581 9.69192ZM50.6232 18.7517C50.6232 20.8194 48.941 22.5015 46.8733 22.5015C44.8056 22.5015 43.1235 20.8194 43.1235 18.7517V14.7553L45.8333 16.5618C46.1413 16.7671 46.5032 16.8766 46.8733 16.8766C47.2435 16.8766 47.6053 16.7671 47.9133 16.5618L50.6232 14.7553V18.7517ZM20.6244 18.7517V14.7553L23.3342 16.5618C23.6422 16.7671 24.0041 16.8766 24.3742 16.8766C24.7444 16.8766 25.1062 16.7671 25.4142 16.5618L28.1241 14.7553V18.7517C28.1241 20.8194 26.4419 22.5015 24.3742 22.5015C22.3065 22.5015 20.6244 20.8194 20.6244 18.7517ZM31.8739 18.7517V14.7553L34.5838 16.5618C34.8918 16.7671 35.2536 16.8766 35.6238 16.8766C35.9939 16.8766 36.3558 16.7671 36.6638 16.5618L39.3736 14.7553V18.7517C39.3736 20.8194 37.6915 22.5015 35.6238 22.5015C33.5561 22.5015 31.8739 20.8194 31.8739 18.7517ZM42.2885 7.18726L44.9984 5.38065C44.9984 9.48122 45.1485 10.0701 44.5315 11.1873L42.2885 9.69192C42.0207 9.51378 41.7115 9.40747 41.3908 9.38317C41.07 9.35888 40.7484 9.41742 40.4567 9.55317C40.2756 9.63766 40.3888 9.57169 37.9654 11.1873C37.3406 10.0559 37.4986 9.3917 37.4986 5.38065L40.2084 7.18726C40.5164 7.3926 40.8783 7.50217 41.2485 7.50217C41.6186 7.50217 41.9805 7.3926 42.2885 7.18726ZM31.039 7.18726L33.7488 5.38065C33.7488 9.48122 33.899 10.0701 33.282 11.1873L31.039 9.69192C30.7711 9.51378 30.462 9.40747 30.1412 9.38317C29.8205 9.35888 29.4988 9.41742 29.2072 9.55317C29.026 9.63766 29.1392 9.57169 26.7159 11.1873C26.0911 10.0559 26.249 9.3917 26.249 5.38065L28.9589 7.18726C29.2669 7.3926 29.6288 7.50217 29.9989 7.50217C30.3691 7.50217 30.731 7.3926 31.039 7.18726ZM14.9996 5.38065L17.7095 7.18726C18.0174 7.39257 18.3793 7.50213 18.7495 7.50213C19.1196 7.50213 19.4815 7.39257 19.7895 7.18726L22.4993 5.38065C22.4993 9.48122 22.6494 10.0701 22.0325 11.1873L19.7895 9.69192C19.5216 9.51378 19.2125 9.40747 18.8917 9.38317C18.5709 9.35888 18.2493 9.41742 17.9577 9.55317C17.7765 9.63766 17.8897 9.57169 15.4664 11.1873C14.8417 10.0558 14.9996 9.3917 14.9996 5.38065ZM9.37485 14.7553L12.0847 16.5618C12.3927 16.7671 12.7545 16.8766 13.1247 16.8766C13.4948 16.8766 13.8567 16.7671 14.1647 16.5618L16.8745 14.7553V18.7517C16.8745 20.8194 15.1924 22.5015 13.1247 22.5015C11.057 22.5015 9.37485 20.8194 9.37485 18.7517V14.7553ZM24.6848 56.2501L25.9828 47.813H28.1108C28.1308 47.8131 28.1242 47.5297 28.1242 51.5628C28.1242 52.5982 28.9636 53.4377 29.9991 53.4377C31.0347 53.4377 31.874 52.5982 31.874 51.5628C31.874 47.5286 31.8675 47.8131 31.8874 47.813H34.0154L35.3135 56.2501H24.6848ZM47.2392 26.2514C45.2051 33.3368 40.8888 39.6213 35.005 44.0631H34.4754L38.3401 32.4691C38.6676 31.4867 38.1366 30.4249 37.1543 30.0975C36.1717 29.7696 35.11 30.301 34.7828 31.2833L30.5228 44.0632H29.4757L25.2157 31.2833C24.8883 30.301 23.8263 29.7699 22.8442 30.0975C21.8618 30.4249 21.3309 31.4867 21.6584 32.4691L25.5231 44.0631H24.9934C19.1097 39.6213 14.7934 33.3368 12.7593 26.2514H47.2392Z" fill="#756659"/>
</svg>
