<svg width="566" height="214" viewBox="0 0 566 214" fill="none" xmlns="http://www.w3.org/2000/svg">
<path d="M108.756 211.028C106.77 211.028 105.081 210.334 103.691 208.947C102.3 207.56 101.605 205.876 101.605 203.894V165.85H7.15109C4.96604 165.85 3.17826 165.156 1.78777 163.769C0.595924 162.382 0 160.698 0 158.717V138.506C0 137.317 0.198641 135.93 0.595924 134.344C1.19185 132.561 2.08573 130.976 3.27758 129.589L91.1764 8.025C93.7588 4.65648 97.4336 2.97222 102.201 2.97222H134.679C136.665 2.97222 138.354 3.66574 139.744 5.05278C141.135 6.43981 141.83 8.12407 141.83 10.1055V130.778H168.349C170.732 130.778 172.52 131.471 173.712 132.858C175.102 134.047 175.798 135.731 175.798 137.911V158.717C175.798 160.698 175.102 162.382 173.712 163.769C172.321 165.156 170.633 165.85 168.647 165.85H141.83V203.894C141.83 205.876 141.135 207.56 139.744 208.947C138.354 210.334 136.665 211.028 134.679 211.028H108.756ZM41.4167 131.967H102.499V46.0695L41.4167 131.967Z" fill="#756659"/>
<path d="M283.166 214C269.063 214 257.045 211.919 247.113 207.758C237.181 203.597 229.037 197.851 222.68 190.519C216.324 183.188 211.556 174.767 208.378 165.256C205.2 155.546 203.313 145.243 202.717 134.344C202.518 128.994 202.319 123.149 202.121 116.808C202.121 110.269 202.121 103.731 202.121 97.1917C202.319 90.6528 202.518 84.6093 202.717 79.0611C203.114 68.163 205.001 57.9583 208.378 48.4472C211.755 38.738 216.622 30.3167 222.978 23.1833C229.533 16.05 237.777 10.4028 247.709 6.24167C257.641 2.08056 269.46 0 283.166 0C297.071 0 308.99 2.08056 318.922 6.24167C328.854 10.4028 336.998 16.05 343.355 23.1833C349.91 30.3167 354.777 38.738 357.955 48.4472C361.332 57.9583 363.219 68.163 363.616 79.0611C364.014 84.6093 364.212 90.6528 364.212 97.1917C364.212 103.731 364.212 110.269 364.212 116.808C364.212 123.149 364.014 128.994 363.616 134.344C363.219 145.243 361.431 155.546 358.253 165.256C355.075 174.767 350.307 183.188 343.951 190.519C337.594 197.851 329.351 203.597 319.22 207.758C309.288 211.919 297.27 214 283.166 214ZM283.166 179.819C296.078 179.819 305.514 175.658 311.473 167.336C317.631 158.816 320.809 147.323 321.008 132.858C321.405 127.112 321.604 121.366 321.604 115.619C321.604 109.675 321.604 103.731 321.604 97.7861C321.604 91.8417 321.405 86.1944 321.008 80.8444C320.809 66.7759 317.631 55.4815 311.473 46.9611C305.514 38.2426 296.078 33.8833 283.166 33.8833C270.453 33.8833 261.018 38.2426 254.86 46.9611C248.901 55.4815 245.723 66.7759 245.325 80.8444C245.325 86.1944 245.226 91.8417 245.027 97.7861C245.027 103.731 245.027 109.675 245.027 115.619C245.226 121.366 245.325 127.112 245.325 132.858C245.723 147.323 249 158.816 255.158 167.336C261.316 175.658 270.652 179.819 283.166 179.819Z" fill="#756659"/>
<path d="M498.959 211.028C496.972 211.028 495.284 210.334 493.893 208.947C492.503 207.56 491.807 205.876 491.807 203.894V165.85H397.353C395.168 165.85 393.381 165.156 391.99 163.769C390.798 162.382 390.202 160.698 390.202 158.717V138.506C390.202 137.317 390.401 135.93 390.798 134.344C391.394 132.561 392.288 130.976 393.48 129.589L481.379 8.025C483.961 4.65648 487.636 2.97222 492.403 2.97222H524.881C526.868 2.97222 528.556 3.66574 529.947 5.05278C531.337 6.43981 532.032 8.12407 532.032 10.1055V130.778H558.551C560.935 130.778 562.722 131.471 563.914 132.858C565.305 134.047 566 135.731 566 137.911V158.717C566 160.698 565.305 162.382 563.914 163.769C562.524 165.156 560.835 165.85 558.849 165.85H532.032V203.894C532.032 205.876 531.337 207.56 529.947 208.947C528.556 210.334 526.868 211.028 524.881 211.028H498.959ZM431.619 131.967H492.701V46.0695L431.619 131.967Z" fill="#756659"/>
</svg>
