<svg width="420" height="87" viewBox="0 0 420 87" fill="none" xmlns="http://www.w3.org/2000/svg">
<path d="M388.74 79.7337L397.211 81.1244V83.906C387.433 83.6531 379.847 83.5267 374.453 83.5267C371.924 83.5267 369.227 83.5688 366.361 83.6531C363.58 83.6531 360.798 83.7374 358.017 83.906V81.3773L364.97 80.113C366.825 79.8601 368.426 79.3965 369.775 78.7222C371.124 78.0479 371.798 76.9943 371.798 75.5614V54.9527C371.798 53.1826 371.039 51.0754 369.522 48.631L348.155 15.5054C345.036 10.4481 342.339 7.793 340.063 7.54014L334.5 6.78153V4.12643C336.101 4.37929 341.327 4.50572 350.178 4.50572C354.561 4.50572 358.522 4.50572 362.063 4.50572C365.687 4.42144 368.342 4.295 370.028 4.12643V6.78153L363.58 7.91943C361.304 8.34087 360.166 9.14162 360.166 10.3217C360.166 10.9117 360.335 11.3753 360.672 11.7124L381.66 45.0909C384.863 40.0335 388.066 35.0183 391.269 30.0453C394.556 25.0722 397.97 20.1413 401.51 15.2526C402.606 13.3982 403.153 11.9232 403.153 10.8274C403.153 9.3102 402.1 8.38302 399.993 8.04587L392.786 6.78153V4.12643C393.544 4.37929 397.675 4.50572 405.176 4.50572C408.969 4.50572 412.046 4.46358 414.406 4.37929C416.85 4.29501 418.536 4.16858 419.463 4V6.6551L415.165 7.66657C413.9 7.91944 412.341 8.84662 410.487 10.4481C408.632 12.0496 406.609 14.5361 404.418 17.9077L385.579 45.8495C384.905 46.7767 384.441 47.8724 384.188 49.1367C383.935 50.4011 383.809 52.3819 383.809 55.0791V75.3085C383.809 77.7529 385.453 79.2279 388.74 79.7337Z" fill="#CDAF95"/>
<path d="M292.327 48.8033L282.339 76.2394C281.917 77.5037 281.833 78.4731 282.086 79.1474C282.339 79.8217 283.603 80.2431 285.879 80.4117L294.603 81.0439V83.699C293.76 83.6147 292.032 83.5725 289.419 83.5725C286.89 83.4883 283.434 83.4461 279.051 83.4461C274.668 83.4461 271.17 83.4883 268.557 83.5725C266.029 83.5725 264.343 83.6147 263.5 83.699V81.0439L271.465 80.4117C274.247 80.1589 276.186 78.5995 277.281 75.7337L306.108 0H310.786L338.728 74.8486C339.318 76.2815 339.866 77.2509 340.372 77.7566C340.877 78.2623 341.804 78.7259 343.153 79.1474L350.107 81.2968V83.8254C348.253 83.6568 345.935 83.5725 343.153 83.5725C340.372 83.4883 337.379 83.4461 334.176 83.4461H326.211C323.682 83.4461 321.322 83.4883 319.131 83.5725C317.024 83.6568 315.127 83.7411 313.441 83.8254V81.2968L321.533 80.0324C323.977 79.611 325.368 79.1052 325.705 78.5152C326.042 77.9252 325.874 76.7873 325.2 75.1015L315.591 48.8033H292.327ZM314.2 44.7575L304.085 15.6778L293.844 44.7575H314.2Z" fill="#CDAF95"/>
<path d="M176.5 81.2623L182.189 80.5037C184.634 80.2509 186.235 79.7873 186.994 79.113C187.837 78.3544 188.258 76.6264 188.258 73.9292V15.8962C188.258 14.6319 188.216 13.5361 188.132 12.6089C188.048 11.6818 187.753 10.9232 187.247 10.3331C186.825 9.65883 186.151 9.1531 185.224 8.81594C184.297 8.3945 182.99 8.05734 181.304 7.80447L177.006 7.04587C177.006 6.62443 176.964 6.20298 176.879 5.78154C176.879 5.27581 176.879 4.81221 176.879 4.39076C179.239 4.39076 180.967 4.39076 182.063 4.39076C183.159 4.39076 184.297 4.30648 185.477 4.1379L203.051 3.25287C203.978 3.16858 204.948 3.12643 205.959 3.12643C206.97 3.04215 207.94 3 208.867 3C213.587 3 217.802 3.33715 221.51 4.01147C225.303 4.68578 228.506 5.78154 231.119 7.29874C233.817 8.81594 235.839 10.8389 237.188 13.3675C238.621 15.8962 239.337 18.9728 239.337 22.5972C239.337 27.5702 238.031 31.4897 235.418 34.3555C232.889 37.137 229.054 39.75 223.913 42.1944L237.567 66.0903C239.506 69.5462 241.192 72.2013 242.625 74.0556C244.058 75.8257 245.448 77.1743 246.797 78.1015C248.23 79.0287 249.705 79.6609 251.222 79.998C252.824 80.2509 254.762 80.5459 257.038 80.883V83.5381C255.268 83.4539 253.329 83.4117 251.222 83.4117C249.199 83.4117 247.008 83.4117 244.648 83.4117C243.468 83.4117 242.245 83.4117 240.981 83.4117C239.717 83.4117 238.495 83.4117 237.315 83.4117C236.219 83.4117 235.207 83.4539 234.28 83.5381C233.353 83.5381 232.636 83.5381 232.131 83.5381L213.292 48.2632C211.775 45.6502 209.668 44.3438 206.97 44.3438H201.155V73.1706C201.155 75.1935 201.534 76.6686 202.292 77.5958C203.135 78.5229 204.568 79.2394 206.591 79.7451L212.786 81.2623V83.9174C209.752 83.7489 206.633 83.6224 203.43 83.5381C200.227 83.4539 197.024 83.4117 193.821 83.4117C190.703 83.4117 187.668 83.4539 184.718 83.5381C181.768 83.6224 179.029 83.7489 176.5 83.9174V81.2623ZM201.155 40.2979C209.752 40.635 215.947 39.455 219.74 36.7577C223.618 33.9762 225.556 29.9303 225.556 24.6201C225.556 19.3099 223.913 15.1376 220.625 12.1032C217.338 8.98452 212.407 7.42518 205.833 7.42518C205.158 7.42518 204.4 7.46732 203.557 7.55161C202.714 7.55161 201.913 7.59375 201.155 7.67804V40.2979Z" fill="#CDAF95"/>
<path d="M168.613 6.78154L161.785 7.91944C159.172 8.34089 157.444 9.73166 156.601 12.0917L127.522 86.3082H124.235L93.5112 14.2411C92.584 11.9653 91.7411 10.4903 90.9825 9.81594C90.3082 9.05734 89.3389 8.55161 88.0745 8.29874L81.5 6.78154V4C84.3658 4.25286 90.1818 4.37929 98.9478 4.37929C103.331 4.37929 107.292 4.37929 110.833 4.37929C114.373 4.29501 117.196 4.16858 119.304 4V6.78154L113.235 7.28727C111.633 7.54014 110.369 7.83515 109.442 8.1723C108.515 8.50946 107.882 9.0152 107.545 9.68951C107.208 10.3638 107.166 11.3331 107.419 12.5975C107.756 13.7775 108.346 15.4212 109.189 17.5284L130.177 68.734L149.142 16.7698C149.732 14.9997 150.111 13.5668 150.28 12.471C150.533 11.3753 150.406 10.4903 149.901 9.81594C149.479 9.14163 148.636 8.63589 147.372 8.29874C146.192 7.96158 144.464 7.66657 142.188 7.41371L137.131 6.78154V4C139.407 4.25286 144.801 4.37929 153.314 4.37929C161.575 4.37929 166.674 4.25286 168.613 4V6.78154Z" fill="#CDAF95"/>
<path d="M72.1878 65.3203C71.7663 67.9332 71.2185 70.8412 70.5442 74.0442C69.8699 77.2471 69.1113 80.2816 68.2684 83.1474C63.0424 85.2546 54.9928 86.3082 44.1196 86.3082C37.7979 86.3082 31.9398 85.381 26.5453 83.5267C21.2351 81.6723 16.6413 79.0172 12.764 75.5614C8.97104 72.1055 5.97879 67.9332 3.78727 63.0444C1.59576 58.1557 0.5 52.6348 0.5 46.4817C0.5 40.5814 1.55361 35.0605 3.66084 29.9189C5.85235 24.7772 8.80246 20.3099 12.5112 16.5169C16.2199 12.6396 20.6029 9.60522 25.6603 7.4137C30.7176 5.1379 36.1542 4 41.9702 4C46.1003 4 49.6405 4.16858 52.5906 4.50573C55.625 4.7586 58.1958 5.1379 60.303 5.64364C62.4103 6.06508 64.1803 6.61296 65.6133 7.28727C67.0462 7.87729 68.3105 8.50946 69.4063 9.18377C69.4906 10.1952 69.5748 11.3753 69.6591 12.7239C69.7434 14.0725 69.7856 15.4633 69.7856 16.8962C69.8699 18.3291 69.912 19.7199 69.912 21.0685C69.912 22.4171 69.912 23.6393 69.912 24.7351H67.004C65.824 19.8463 63.3796 15.8005 59.6709 12.5975C55.9622 9.31021 50.9048 7.66657 44.4989 7.66657C40.2001 7.66657 36.2385 8.50946 32.6141 10.1952C28.9897 11.881 25.871 14.3675 23.258 17.6548C20.6451 20.8578 18.58 24.8194 17.0628 29.5396C15.6299 34.1755 14.9134 39.4435 14.9134 45.3438C14.9134 57.9871 17.6107 67.3432 23.0052 73.412C28.3997 79.4808 35.8592 82.5152 45.3839 82.5152C51.1998 82.5152 56.0886 81.0402 60.0502 78.09C64.0118 75.1399 67.3412 70.8833 70.0384 65.3203H72.1878Z" fill="#CDAF95"/>
</svg>
