<svg width="244" height="52" viewBox="0 0 244 52" fill="none" xmlns="http://www.w3.org/2000/svg">
<path d="M226.086 47.2839L231.019 48.1087V49.7582C225.325 49.6082 220.908 49.5333 217.766 49.5333C216.294 49.5333 214.723 49.5583 213.054 49.6082C211.434 49.6082 209.814 49.6582 208.195 49.7582V48.2586L212.244 47.5088C213.324 47.3589 214.257 47.084 215.042 46.6841C215.827 46.2842 216.22 45.6594 216.22 44.8096V32.5882C216.22 31.5385 215.778 30.2889 214.895 28.8393L202.452 9.19509C200.636 6.19597 199.065 4.62143 197.74 4.47148L194.5 4.0216V2.44707C195.433 2.59702 198.476 2.672 203.63 2.672C206.182 2.672 208.489 2.672 210.551 2.672C212.661 2.62201 214.208 2.54704 215.189 2.44707V4.0216L211.434 4.69641C210.109 4.94633 209.446 5.42119 209.446 6.12099C209.446 6.47089 209.544 6.74581 209.741 6.94575L221.963 26.7399C223.828 23.7408 225.693 20.7667 227.559 17.8176C229.473 14.8684 231.461 11.9443 233.522 9.04513C234.16 7.94545 234.48 7.07071 234.48 6.4209C234.48 5.52116 233.866 4.97133 232.639 4.77139L228.442 4.0216V2.44707C228.884 2.59702 231.289 2.672 235.658 2.672C237.866 2.672 239.658 2.64701 241.032 2.59702C242.456 2.54704 243.438 2.47206 243.977 2.37209V3.94663L241.474 4.54645C240.738 4.69641 239.83 5.24625 238.75 6.19597C237.67 7.14569 236.492 8.62026 235.216 10.6197L224.245 27.1898C223.853 27.7397 223.583 28.3895 223.435 29.1392C223.288 29.889 223.215 31.0637 223.215 32.6632V44.6597C223.215 46.1093 224.172 46.984 226.086 47.2839Z" fill="#756659"/>
<path d="M169.943 28.9415L164.127 45.2117C163.881 45.9615 163.832 46.5364 163.979 46.9362C164.127 47.3361 164.863 47.5861 166.188 47.686L171.269 48.0609V49.6354C170.778 49.5855 169.771 49.5605 168.25 49.5605C166.777 49.5105 164.765 49.4855 162.212 49.4855C159.66 49.4855 157.623 49.5105 156.101 49.5605C154.629 49.5605 153.647 49.5855 153.156 49.6354V48.0609L157.795 47.686C159.415 47.5361 160.544 46.6113 161.182 44.9118L177.969 0H180.693L196.964 44.387C197.308 45.2367 197.627 45.8116 197.922 46.1115C198.216 46.4114 198.756 46.6863 199.541 46.9362L203.591 48.2109V49.7104C202.511 49.6104 201.161 49.5605 199.541 49.5605C197.922 49.5105 196.179 49.4855 194.314 49.4855H189.675C188.203 49.4855 186.828 49.5105 185.552 49.5605C184.325 49.6105 183.221 49.6604 182.239 49.7104V48.2109L186.951 47.4611C188.375 47.2112 189.184 46.9112 189.381 46.5613C189.577 46.2114 189.479 45.5366 189.086 44.5369L183.491 28.9415H169.943ZM182.681 26.5422L176.791 9.29727L170.827 26.5422H182.681Z" fill="#756659"/>
<path d="M102.492 48.1905L105.805 47.7406C107.229 47.5906 108.161 47.3157 108.603 46.9158C109.094 46.466 109.34 45.4413 109.34 43.8417V9.42683C109.34 8.67705 109.315 8.02724 109.266 7.4774C109.217 6.92756 109.045 6.47769 108.75 6.1278C108.505 5.72791 108.112 5.428 107.572 5.22806C107.033 4.97813 106.272 4.77819 105.29 4.62823L102.787 4.17837C102.787 3.92844 102.762 3.67851 102.713 3.42859C102.713 3.12868 102.713 2.85375 102.713 2.60382C104.087 2.60382 105.094 2.60382 105.732 2.60382C106.37 2.60382 107.033 2.55384 107.72 2.45387L117.954 1.92903C118.494 1.87904 119.058 1.85405 119.647 1.85405C120.236 1.80406 120.801 1.77907 121.341 1.77907C124.089 1.77907 126.544 1.97901 128.703 2.37889C130.912 2.77878 132.777 3.42859 134.299 4.32832C135.87 5.22806 137.048 6.42771 137.833 7.92727C138.668 9.42683 139.085 11.2513 139.085 13.4007C139.085 16.3498 138.324 18.6741 136.802 20.3736C135.33 22.0231 133.097 23.5727 130.102 25.0223L138.054 39.1931C139.183 41.2425 140.165 42.817 140.999 43.9167C141.834 44.9664 142.644 45.7662 143.429 46.316C144.263 46.8658 145.122 47.2407 146.006 47.4407C146.938 47.5906 148.067 47.7656 149.393 47.9655V49.5401C148.362 49.4901 147.233 49.4651 146.006 49.4651C144.828 49.4651 143.552 49.4651 142.177 49.4651C141.49 49.4651 140.778 49.4651 140.042 49.4651C139.306 49.4651 138.594 49.4651 137.907 49.4651C137.269 49.4651 136.68 49.4901 136.14 49.5401C135.6 49.5401 135.183 49.5401 134.888 49.5401L123.918 28.6212C123.034 27.0717 121.807 26.2969 120.236 26.2969H116.849V43.3919C116.849 44.5915 117.07 45.4663 117.512 46.0161C118.003 46.5659 118.837 46.9908 120.015 47.2907L123.623 48.1905V49.765C121.856 49.665 120.04 49.59 118.175 49.5401C116.31 49.4901 114.444 49.4651 112.579 49.4651C110.763 49.4651 108.996 49.4901 107.278 49.5401C105.56 49.59 103.965 49.665 102.492 49.765V48.1905ZM116.849 23.8976C121.856 24.0975 125.464 23.3977 127.673 21.7982C129.931 20.1487 131.06 17.7494 131.06 14.6003C131.06 11.4512 130.102 8.97696 128.188 7.17749C126.274 5.32803 123.402 4.4033 119.574 4.4033C119.181 4.4033 118.739 4.42829 118.248 4.47828C117.758 4.47828 117.291 4.50327 116.849 4.55325V23.8976Z" fill="#756659"/>
<path d="M97.8971 4.02161L93.9212 4.69641C92.3996 4.94634 91.3933 5.7711 90.9025 7.17069L73.9683 51.1828H72.0539L54.1625 8.44531C53.6226 7.09571 53.1318 6.22096 52.69 5.82108C52.2973 5.37121 51.7328 5.0713 50.9966 4.92134L47.168 4.02161V2.37209C48.8369 2.52205 52.2237 2.59702 57.3285 2.59702C59.8809 2.59702 62.1879 2.59702 64.2495 2.59702C66.311 2.54704 67.9554 2.47206 69.1825 2.37209V4.02161L65.6484 4.32152C64.7158 4.47148 63.9795 4.64642 63.4396 4.84637C62.8996 5.04631 62.5315 5.34622 62.3352 5.74611C62.1388 6.14599 62.1143 6.72082 62.2615 7.4706C62.4579 8.17039 62.8015 9.14511 63.2923 10.3947L75.5144 40.7608L86.5585 9.94487C86.9021 8.89518 87.123 8.04543 87.2211 7.39562C87.3684 6.74581 87.2948 6.22096 87.0002 5.82108C86.7548 5.4212 86.264 5.12129 85.5277 4.92134C84.8405 4.7214 83.8343 4.54645 82.509 4.3965L79.5639 4.02161V2.37209C80.8892 2.52205 84.0306 2.59702 88.9882 2.59702C93.7985 2.59702 96.7681 2.52205 97.8971 2.37209V4.02161Z" fill="#756659"/>
<path d="M41.7466 38.7364C41.5012 40.286 41.1821 42.0105 40.7894 43.9099C40.3968 45.8094 39.955 47.6088 39.4642 49.3083C36.4209 50.558 31.7333 51.1828 25.4014 51.1828C21.72 51.1828 18.3086 50.6329 15.1672 49.5333C12.0749 48.4336 9.39973 46.859 7.14183 44.8096C4.93302 42.7602 3.19051 40.286 1.91431 37.3868C0.638102 34.4877 0 31.2136 0 27.5647C0 24.0657 0.613559 20.7917 1.84068 17.7426C3.11688 14.6935 4.83485 12.0443 6.99458 9.79492C9.15431 7.49559 11.7067 5.69612 14.6518 4.3965C17.5969 3.04689 20.7629 2.37209 24.1497 2.37209C26.5549 2.37209 28.6164 2.47206 30.3344 2.672C32.1014 2.82196 33.5985 3.0469 34.8256 3.34681C36.0528 3.59673 37.0835 3.92164 37.918 4.32152C38.7524 4.67142 39.4887 5.04631 40.1268 5.44619C40.1759 6.04602 40.225 6.74581 40.274 7.54557C40.3231 8.34534 40.3477 9.1701 40.3477 10.0198C40.3968 10.8696 40.4213 11.6944 40.4213 12.4941C40.4213 13.2939 40.4213 14.0187 40.4213 14.6685H38.7279C38.0407 11.7693 36.6172 9.37004 34.4575 7.4706C32.2978 5.52117 29.3527 4.54646 25.6222 4.54646C23.1189 4.54646 20.8119 5.04631 18.7013 6.04601C16.5907 7.04572 14.7745 8.52029 13.2529 10.4697C11.7313 12.3692 10.5287 14.7185 9.64515 17.5177C8.81071 20.2668 8.39349 23.3909 8.39349 26.8899C8.39349 34.3877 9.96421 39.9361 13.1056 43.535C16.2471 47.134 20.5911 48.9334 26.1376 48.9334C29.5245 48.9334 32.3714 48.0587 34.6784 46.3092C36.9854 44.5597 38.9242 42.0355 40.4949 38.7364H41.7466Z" fill="#756659"/>
</svg>
